{
DisplayStrings = (
"abcdfghijklmnopqrstuvwynxnyz\012AYHYBYCYDYEFGHIJK\012LMNOPQRSTU\012VWXYZT\0120123456789@o&o\012/dagger/daggerdbl \U00A4/divisionslash/bulletoperator ~|\U00A623456789/infinity \U00AE/trademark/partialdiff ^/lozenge \U00B6\012\U00A9/Ohm/summation 5\U00A7/estimated \U00B5/increment  /integral 56 56/euro/literSign/radical 68\U00A0L/Lcaron d/dcaron l/lcaron t/tcaron/Dcroat \U00D0/Lslash \U00D8/lslash/gcommaaccent \012o\U00F8d\U00F0/firsttonechinese \U00AF/dcroat \U00DE\U00FE\U00EF\U00EC\U00EE\U00ED/imacron \U00DF/pi f/fi/fl \U00AA\U00BA/fi/fl \012GxMiresgarriaIzugarrianazinancapilarestamosetjepenseder/racute/rcaron/rcommaaccent nierdepitquiparticuliernlacherontbecause\012nn/Placeholder nn/Placeholder oo\012nn/Placeholder oo/Placeholder oo/Placeholder nn00/Placeholder 00/Placeholder \012HVH/Placeholder HH/Placeholder OO\012OO/Placeholder OO/Placeholder HH",
"monArrowrootmohBarleymonChervil\012monDumplinmonEndivemonFlaxseed\012monGarbanzomonHijikimonIshtu\012monJicamamonKalemonLychee\012monMarjorammonNectarine\012monOxtailmonPizzamonQuinoa\012monRoquefortmonSquash\012monTofumonUppumamonVanilla\012monWheatmonXeris\012monYourtmonZvweiback"
);
copyright = "Copyright \U00A9 2015 by Vaishnavi Murthy. All rights reserved.";
customParameters = (
{
name = license;
value = "http://scripts.sil.org/OFL";
},
{
name = glyphOrder;
value = (
    tlA,
    tlAA,
    tlI,
    tlII,
    tlU,
    tlUU,
    tlvR,
    tlvRR,
    tlvL,
    tlvLL,
    tlE,
    tlEE,
    tlAI,
    tlO,
    tlOO,
    tlAU,
    tlmAA,
    tlmI,
    tlmII,
    tlmU,
    tlmUU,
    tlmvR,
    tlmvRR,
    tlmvL,
    tlmvLL,
    tlmE,
    tlmEE,
    tlmAI,
    tlmO,
    tlmOO,
    tlmAU,
    tlLengthmark,
    tlAIlengthmark,
    tlKA,
    tlKHA,
    tlGA,
    tlGHA,
    tlNGA,
    tlCA,
    tlCHA,
    tlJA,
    tlJHA,
    tlNYA,
    tlTTA,
    tlTTHA,
    tlDDA,
    tlDDHA,
    tlNNA,
    tlTA,
    tlTHA,
    tlDA,
    tlDHA,
    tlNA,
    tlPA,
    tlPHA,
    tlBA,
    tlBHA,
    tlMA,
    tlYA,

glyphs = (
{
color = 3;
glyphname = A;
lastChange = "2015-12-24 10:46:09 +0000";
layers = (
{
anchors = (
{
name = bottom;
position = "{296, 0}";
},
{
name = ogonek;
position = "{539, 10}";
},
{
name = top;
position = "{385, 660}";
}
);
layerId = "59118767-2CA9-48AA-9373-694D24C960D8";
name = Regular;
paths = (
{
closed = 1;
nodes = (
"522 199 OFFCURVE",
"504 261 OFFCURVE",
"492 335 CURVE SMOOTH",
"482 393 OFFCURVE",
"477 458 OFFCURVE",
"477 524 CURVE SMOOTH",
"477 540 OFFCURVE",
"478 555 OFFCURVE",
"478 571 CURVE SMOOTH",
"478 650 OFFCURVE",
"456 677 OFFCURVE",
"408 677 CURVE SMOOTH",
"271 677 OFFCURVE",
"160 491 OFFCURVE",
"93 298 CURVE",
"54 294 OFFCURVE",
"40 289 OFFCURVE",
"22 245 CURVE SMOOTH",
"15 229 OFFCURVE",
"10 211 OFFCURVE",
"10 202 CURVE SMOOTH",
"10 193 OFFCURVE",
"15 186 OFFCURVE",
"25 180 CURVE SMOOTH",
"39 171 OFFCURVE",
"43 159 OFFCURVE",
"43 141 CURVE SMOOTH",
"43 101 OFFCURVE",
"22 49 OFFCURVE",
"22 19 CURVE SMOOTH",
"22 -2 OFFCURVE",
"32 -10 OFFCURVE",
"55 -10 CURVE SMOOTH",
"90 -10 OFFCURVE",
"143 6 OFFCURVE",
"143 54 CURVE SMOOTH",
"143 71 OFFCURVE",
"140 101 OFFCURVE",
"140 130 CURVE SMOOTH",
"140 163 OFFCURVE",
"144 189 OFFCURVE",
"152 226 CURVE",
"115 189 LINE",
"161 194 OFFCURVE",
"200 196 OFFCURVE",
"249 196 CURVE SMOOTH",
"298 196 OFFCURVE",
"347 191 OFFCURVE",
"371 191 CURVE SMOOTH",
"386 191 OFFCURVE",
"399 207 OFFCURVE",
"410 226 CURVE",
"416 183 OFFCURVE",
"426 141 OFFCURVE",
"439 104 CURVE SMOOTH",
"462 32 OFFCURVE",
"488 -11 OFFCURVE",
"535 -11 CURVE SMOOTH",
"578 -11 OFFCURVE",
"617 26 OFFCURVE",
"617 56 CURVE SMOOTH",
"617 83 OFFCURVE",
"584 89 OFFCURVE",
"548 152 CURVE SMOOTH"
);
},
{
closed = 1;
nodes = (
"283 309 OFFCURVE",
"225 307 OFFCURVE",
"175 304 CURVE",
"220 442 OFFCURVE",
"291 549 OFFCURVE",
"365 549 CURVE SMOOTH",
"390 549 OFFCURVE",
"398 539 OFFCURVE",
"398 506 CURVE SMOOTH",
"398 479 OFFCURVE",
"396 451 OFFCURVE",
"396 423 CURVE SMOOTH",
"396 385 OFFCURVE",
"397 346 OFFCURVE",
"400 308 CURVE",
"379 308 OFFCURVE",
"355 309 OFFCURVE",
"329 309 CURVE SMOOTH"
);
}
);
width = 624;
}
);
leftKerningGroup = A;
note = A;
rightKerningGroup = A;
unicode = 0041;
},
{
glyphname = AE;
lastChange = "2015-12-24 10:46:09 +0000";
layers = (
{
layerId = "59118767-2CA9-48AA-9373-694D24C960D8";
name = Regular;
paths = (
{
closed = 1;
nodes = (
"460 284 LINE",
"475 285 OFFCURVE",
"503 286 OFFCURVE",
"521 286 CURVE SMOOTH",
"596 286 OFFCURVE",
"660 282 OFFCURVE",
"691 282 CURVE SMOOTH",
"730 282 OFFCURVE",
"755 334 OFFCURVE",
"755 366 CURVE SMOOTH",
"755 379 OFFCURVE",
"752 390 OFFCURVE",
"740 391 CURVE SMOOTH",
"732 392 OFFCURVE",
"709 393 OFFCURVE",
"669 393 CURVE SMOOTH",
"605 393 OFFCURVE",
"538 389 OFFCURVE",
"476 384 CURVE"
);
},
{
closed = 1;
nodes = (
"778 669 OFFCURVE",
"751 670 OFFCURVE",
"680 670 CURVE SMOOTH",
"607 670 OFFCURVE",
"545 663 OFFCURVE",
"494 657 CURVE SMOOTH",
"473 654 OFFCURVE",
"453 647 OFFCURVE",
"440 628 CURVE",
"453 545 LINE",
"508 554 OFFCURVE",
"582 556 OFFCURVE",
"615 556 CURVE SMOOTH",
"674 556 OFFCURVE",
"720 551 OFFCURVE",
"744 551 CURVE SMOOTH",
"770 551 OFFCURVE",
"783 557 OFFCURVE",
"799 579 CURVE SMOOTH",
"811 595 OFFCURVE",
"821 613 OFFCURVE",
"821 636 CURVE SMOOTH",
"821 655 OFFCURVE",
"813 663 OFFCURVE",
"794 666 CURVE SMOOTH"
);
},
{
closed = 1;
nodes = (
"775 146 OFFCURVE",
"763 138 OFFCURVE",
"739 128 CURVE SMOOTH",
"694 110 OFFCURVE",
"651 103 OFFCURVE",
"605 103 CURVE SMOOTH",
"517 103 OFFCURVE",
"480 129 OFFCURVE",
"480 206 CURVE SMOOTH",
"480 244 OFFCURVE",
"493 323 OFFCURVE",
"500 360 CURVE",
"507 396 OFFCURVE",
"513 479 OFFCURVE",
"513 515 CURVE SMOOTH",
"513 536 OFFCURVE",
"511 557 OFFCURVE",
"506 580 CURVE",
"486 632 LINE",
"477 665 OFFCURVE",
"457 677 OFFCURVE",
"424 677 CURVE SMOOTH",
"287 677 OFFCURVE",
"170 491 OFFCURVE",
"96 298 CURVE",
"57 294 OFFCURVE",
"42 288 OFFCURVE",
"26 251 CURVE SMOOTH",
"16 229 OFFCURVE",
"10 211 OFFCURVE",
"10 202 CURVE SMOOTH",
"10 193 OFFCURVE",
"14 186 OFFCURVE",
"24 180 CURVE SMOOTH",
"38 171 OFFCURVE",
"41 159 OFFCURVE",
"41 141 CURVE SMOOTH",
"41 101 OFFCURVE",
"15 49 OFFCURVE",
"15 18 CURVE SMOOTH",
"15 -2 OFFCURVE",
"24 -10 OFFCURVE",
"47 -10 CURVE SMOOTH",
"82 -10 OFFCURVE",
"136 6 OFFCURVE",
"137 54 CURVE SMOOTH",
"137 67 OFFCURVE",
"137 89 OFFCURVE",
"137 112 CURVE SMOOTH",
"137 142 OFFCURVE",
"139 165 OFFCURVE",
"144 192 CURVE",
"178 195 OFFCURVE",
"210 196 OFFCURVE",
"248 196 CURVE SMOOTH",
"297 196 OFFCURVE",
"337 191 OFFCURVE",
"361 191 CURVE SMOOTH",
"375 191 OFFCURVE",
"389 207 OFFCURVE",
"398 223 CURVE",
"394 195 OFFCURVE",
"390 165 OFFCURVE",
"390 138 CURVE SMOOTH",
"390 14 OFFCURVE",
"463 -14 OFFCURVE",
"584 -14 CURVE SMOOTH",
"646 -14 OFFCURVE",
"710 -4 OFFCURVE",
"754 17 CURVE SMOOTH",
"790 35 OFFCURVE",
"816 63 OFFCURVE",
"816 95 CURVE SMOOTH",
"816 121 OFFCURVE",
"799 146 OFFCURVE",
"783 146 CURVE SMOOTH"
);
},
{
closed = 1;
nodes = (
"412 308 OFFCURVE",
"378 309 OFFCURVE",
"332 309 CURVE SMOOTH",
"277 309 OFFCURVE",
"205 306 OFFCURVE",
"150 302 CURVE",
"165 266 LINE",
"214 422 OFFCURVE",
"296 549 OFFCURVE",
"377 549 CURVE SMOOTH",
"416 549 OFFCURVE",
"418 486 OFFCURVE",
"418 420 CURVE SMOOTH",
"418 366 OFFCURVE",
"414 322 OFFCURVE",
"408 282 CURVE",
"429 306 LINE"
);
}
);
width = 856;
}
);
leftKerningGroup = A;
leftMetricsKey = A;
rightMetricsKey = E;
unicode = 00C6;
},
{
color = 3;
glyphname = B;
lastChange = "2015-12-24 10:46:09 +0000";
layers = (
{
layerId = "59118767-2CA9-48AA-9373-694D24C960D8";
name = Regular;
paths = (
{
closed = 1;
nodes = (
"195 103 OFFCURVE",
"153 129 OFFCURVE",
"153 206 CURVE SMOOTH",
"153 269 OFFCURVE",
"178 350 OFFCURVE",
"186 500 CURVE SMOOTH",
"188 531 OFFCURVE",
"188 562 OFFCURVE",
"186 593 CURVE",
"164 539 LINE",
"195 549 OFFCURVE",
"232 557 OFFCURVE",
"270 557 CURVE SMOOTH",
"330 557 OFFCURVE",
"360 537 OFFCURVE",
"360 492 CURVE SMOOTH",
"360 433 OFFCURVE",
"310 396 OFFCURVE",
"233 376 CURVE",
"220 372 OFFCURVE",
"216 366 OFFCURVE",
"216 351 CURVE",
"218 310 OFFCURVE",
"238 285 OFFCURVE",
"268 285 CURVE SMOOTH",
"285 285 OFFCURVE",
"309 291 OFFCURVE",
"334 291 CURVE SMOOTH",
"376 291 OFFCURVE",
"434 275 OFFCURVE",
"434 213 CURVE SMOOTH",
"434 141 OFFCURVE",
"352 103 OFFCURVE",
"266 103 CURVE SMOOTH"
);
},
{
closed = 1;
nodes = (
"412 385 OFFCURVE",
"372 390 OFFCURVE",
"329 386 CURVE",
"344 359 LINE",
"409 393 OFFCURVE",
"453 453 OFFCURVE",
"453 526 CURVE SMOOTH",
"453 609 OFFCURVE",
"396 670 OFFCURVE",
"277 670 CURVE SMOOTH",
"200 670 OFFCURVE",
"136 645 OFFCURVE",
"101 624 CURVE SMOOTH",
"59 599 OFFCURVE",
"45 573 OFFCURVE",
"45 536 CURVE SMOOTH",
"45 519 OFFCURVE",
"48 499 OFFCURVE",
"61 499 CURVE SMOOTH",
"73 499 OFFCURVE",
"101 517 OFFCURVE",
"120 531 CURVE",
"83 533 LINE",
"89 505 OFFCURVE",
"91 461 OFFCURVE",
"91 420 CURVE SMOOTH",
"91 291 OFFCURVE",
"63 213 OFFCURVE",
"63 138 CURVE SMOOTH",
"63 57 OFFCURVE",
"99 -13 OFFCURVE",
"224 -13 CURVE SMOOTH",
"380 -13 OFFCURVE",
"516 92 OFFCURVE",
"516 236 CURVE SMOOTH",
"516 300 OFFCURVE",
"489 347 OFFCURVE",
"443 370 CURVE SMOOTH"
);
}
);
width = 560;
}
);
leftKerningGroup = B;
leftMetricsKey = D;
note = B;
rightKerningGroup = B;
unicode = 0042;
},
{
color = 3;
glyphname = C;
lastChange = "2015-12-24 10:46:09 +0000";
layers = (
{
anchors = (
{
name = bottom;
position = "{310, 0}";
},
{
name = top;
position = "{370, 660}";
}
);
layerId = "59118767-2CA9-48AA-9373-694D24C960D8";
name = Regular;
paths = (
{
closed = 1;
nodes = (
"191 674 OFFCURVE",
"47 473 OFFCURVE",
"47 260 CURVE SMOOTH",
"47 91 OFFCURVE",
"144 -14 OFFCURVE",
"293 -14 CURVE SMOOTH",
"372 -14 OFFCURVE",
"452 18 OFFCURVE",
"503 69 CURVE SMOOTH",
"532 98 OFFCURVE",
"546 129 OFFCURVE",
"546 153 CURVE SMOOTH",
"546 164 OFFCURVE",
"543 173 OFFCURVE",
"537 179 CURVE SMOOTH",
"534 182 OFFCURVE",
"529 184 OFFCURVE",
"523 184 CURVE SMOOTH",
"514 184 OFFCURVE",
"504 180 OFFCURVE",
"494 171 CURVE SMOOTH",
"449 128 OFFCURVE",
"390 102 OFFCURVE",
"328 102 CURVE SMOOTH",
"214 102 OFFCURVE",
"138 190 OFFCURVE",
"138 315 CURVE SMOOTH",
"138 444 OFFCURVE",
"219 557 OFFCURVE",
"367 557 CURVE SMOOTH",
"414 557 OFFCURVE",
"447 546 OFFCURVE",
"484 521 CURVE SMOOTH",
"490 517 OFFCURVE",
"495 516 OFFCURVE",
"501 516 CURVE SMOOTH",
"534 516 OFFCURVE",
"569 558 OFFCURVE",
"569 596 CURVE SMOOTH",
"569 647 OFFCURVE",
"506 674 OFFCURVE",
"421 674 CURVE SMOOTH"
);
}
);
width = 591;
}
);
leftKerningGroup = C;
note = C;
rightKerningGroup = C;
unicode = 0043;
},
{
color = 3;
glyphname = D;
lastChange = "2015-12-24 10:46:09 +0000";
layers = (
{
anchors = (
{
name = bottom;
position = "{316, 0}";
},
{
name = center;
position = "{316, 335}";
},
{
name = top;
position = "{306, 660}";
}
);
layerId = "59118767-2CA9-48AA-9373-694D24C960D8";
name = Regular;
paths = (
{
closed = 1;
nodes = (
"231 674 OFFCURVE",
"151 652 OFFCURVE",
"105 627 CURVE SMOOTH",
"63 604 OFFCURVE",
"45 577 OFFCURVE",
"45 538 CURVE SMOOTH",
"45 522 OFFCURVE",
"48 507 OFFCURVE",
"60 507 CURVE SMOOTH",
"68 507 OFFCURVE",
"77 513 OFFCURVE",
"86 516 CURVE",
"91 487 OFFCURVE",
"93 453 OFFCURVE",
"93 428 CURVE SMOOTH",
"93 348 OFFCURVE",
"81 247 OFFCURVE",
"69 165 CURVE SMOOTH",
"65 141 OFFCURVE",
"62 116 OFFCURVE",
"62 94 CURVE SMOOTH",
"62 65 OFFCURVE",
"68 41 OFFCURVE",
"89 21 CURVE SMOOTH",
"117 -6 OFFCURVE",
"160 -14 OFFCURVE",
"213 -14 CURVE SMOOTH",
"453 -14 OFFCURVE",
"588 166 OFFCURVE",
"588 380 CURVE SMOOTH",
"588 568 OFFCURVE",
"481 674 OFFCURVE",
"308 674 CURVE SMOOTH"
);
},
{
closed = 1;
nodes = (
"189 103 OFFCURVE",
"160 118 OFFCURVE",
"160 187 CURVE SMOOTH",
"160 303 OFFCURVE",
"190 423 OFFCURVE",
"191 566 CURVE",
"173 536 LINE",
"184 540 OFFCURVE",
"244 556 OFFCURVE",
"301 556 CURVE SMOOTH",
"415 556 OFFCURVE",
"508 488 OFFCURVE",
"508 345 CURVE SMOOTH",
"508 176 OFFCURVE",
"372 104 OFFCURVE",
"246 103 CURVE SMOOTH"
);
}
);
width = 630;
}
);
leftKerningGroup = B;
note = D;
rightKerningGroup = O;
rightMetricsKey = O;
unicode = 0044;
},
{
glyphname = Eth;
lastChange = "2015-12-24 10:46:09 +0000";
layers = (
{
components = (
{
name = D;
}
);
layerId = "59118767-2CA9-48AA-9373-694D24C960D8";
name = Regular;
paths = (
{
closed = 1;
nodes = (
"271 368 OFFCURVE",
"192 362 OFFCURVE",
"122 362 CURVE SMOOTH",
"86 362 OFFCURVE",
"67 365 OFFCURVE",
"53 365 CURVE SMOOTH",
"39 365 OFFCURVE",
"17 347 OFFCURVE",
"17 316 CURVE SMOOTH",
"17 298 OFFCURVE",
"34 296 OFFCURVE",
"58 296 CURVE SMOOTH",
"83 296 OFFCURVE",
"93 298 OFFCURVE",
"153 298 CURVE SMOOTH",
"226 298 OFFCURVE",
"297 293 OFFCURVE",
"329 293 CURVE SMOOTH",
"344 293 OFFCURVE",
"365 309 OFFCURVE",
"365 341 CURVE SMOOTH",
"365 359 OFFCURVE",
"357 368 OFFCURVE",
"326 368 CURVE SMOOTH"
);
}
);
width = 630;
}
);
leftKerningGroup = B;
rightKerningGroup = O;
unicode = 00D0;
},
{
color = 3;
glyphname = E;
lastChange = "2015-12-24 10:46:09 +0000";
layers = (
{
anchors = (
{
name = bottom;
position = "{261, 0}";
},
{
name = ogonek;
position = "{462, 37}";
},
{
name = top;
position = "{281, 660}";
},
{
name = topleft;
position = "{16, 670}";
}
);
layerId = "59118767-2CA9-48AA-9373-694D24C960D8";
name = Regular;
paths = (
{
closed = 1;
nodes = (
"136 285 LINE",
"154 285 OFFCURVE",
"173 286 OFFCURVE",
"191 286 CURVE SMOOTH",
"259 286 OFFCURVE",
"328 284 OFFCURVE",
"364 282 CURVE SMOOTH",
"395 280 OFFCURVE",
"425 333 OFFCURVE",
"425 368 CURVE SMOOTH",
"425 379 OFFCURVE",
"422 390 OFFCURVE",
"410 391 CURVE SMOOTH",
"402 392 OFFCURVE",
"379 393 OFFCURVE",
"339 393 CURVE SMOOTH",
"275 393 OFFCURVE",
"208 389 OFFCURVE",
"146 384 CURVE"
);
},
{
closed = 1;
nodes = (
"445 146 OFFCURVE",
"433 138 OFFCURVE",
"409 128 CURVE SMOOTH",
"364 110 OFFCURVE",
"321 103 OFFCURVE",
"275 103 CURVE SMOOTH",
"187 103 OFFCURVE",
"150 129 OFFCURVE",
"150 206 CURVE SMOOTH",
"150 269 OFFCURVE",
"175 350 OFFCURVE",
"183 500 CURVE SMOOTH",
"184 520 OFFCURVE",
"185 564 OFFCURVE",
"184 580 CURVE",
"78 544 LINE",
"85 509 OFFCURVE",
"88 468 OFFCURVE",
"88 420 CURVE SMOOTH",
"88 291 OFFCURVE",
"60 213 OFFCURVE",
"60 138 CURVE SMOOTH",
"60 14 OFFCURVE",
"133 -14 OFFCURVE",
"254 -14 CURVE SMOOTH",
"316 -14 OFFCURVE",
"380 -4 OFFCURVE",
"424 17 CURVE SMOOTH",
"460 35 OFFCURVE",
"486 63 OFFCURVE",
"486 95 CURVE SMOOTH",
"486 121 OFFCURVE",
"469 146 OFFCURVE",
"453 146 CURVE SMOOTH"
);
},
{
closed = 1;
nodes = (
"448 669 OFFCURVE",
"421 670 OFFCURVE",
"350 670 CURVE SMOOTH",
"277 670 OFFCURVE",
"170 663 OFFCURVE",
"119 657 CURVE SMOOTH",
"98 654 OFFCURVE",
"78 647 OFFCURVE",
"65 628 CURVE SMOOTH",
"51 608 OFFCURVE",
"45 577 OFFCURVE",
"45 550 CURVE SMOOTH",
"45 535 OFFCURVE",
"49 532 OFFCURVE",
"59 532 CURVE SMOOTH",
"69 532 OFFCURVE",
"113 543 OFFCURVE",
"123 545 CURVE SMOOTH",
"178 554 OFFCURVE",
"252 556 OFFCURVE",
"285 556 CURVE SMOOTH",
"344 556 OFFCURVE",
"390 551 OFFCURVE",
"414 551 CURVE SMOOTH",
"440 551 OFFCURVE",
"453 557 OFFCURVE",
"469 579 CURVE SMOOTH",
"481 595 OFFCURVE",
"491 613 OFFCURVE",
"491 636 CURVE SMOOTH",
"491 655 OFFCURVE",
"483 663 OFFCURVE",
"464 666 CURVE SMOOTH"
);
}
);
width = 526;
}
);
leftKerningGroup = B;
leftMetricsKey = D;
note = E;
rightKerningGroup = E;
unicode = 0045;
},
{
glyphname = Eogonek;
lastChange = "2015-12-24 10:46:09 +0000";
layers = (
{
anchors = (
{
name = _ogonek;
position = "{431.392, 25.28}";
}
);
components = (
{
name = E;
}
);
layerId = "59118767-2CA9-48AA-9373-694D24C960D8";
name = Regular;
paths = (
{
closed = 1;
nodes = (
"211 -47 OFFCURVE",
"211 -143 CURVE SMOOTH",
"211 -202 OFFCURVE",
"254 -244 OFFCURVE",
"324 -239 CURVE SMOOTH",
"366 -236 OFFCURVE",
"409 -215 OFFCURVE",
"432 -180 CURVE SMOOTH",
"441 -165 OFFCURVE",
"443 -153 OFFCURVE",
"442 -144 CURVE SMOOTH",
"442 -135 OFFCURVE",
"437 -121 OFFCURVE",
"419 -122 CURVE SMOOTH",
"414 -122 OFFCURVE",
"409 -124 OFFCURVE",
"404 -127 CURVE SMOOTH",
"387 -137 OFFCURVE",
"368 -142 OFFCURVE",
"357 -142 CURVE SMOOTH",
"335 -144 OFFCURVE",
"312 -135 OFFCURVE",
"310 -109 CURVE SMOOTH",
"309 -85 OFFCURVE",
"326 -56 OFFCURVE",
"350 -34 CURVE SMOOTH",
"374 -11 OFFCURVE",
"410 10 OFFCURVE",
"434 23 CURVE",
"435 24 OFFCURVE",
"417 33 OFFCURVE",
"417 44 CURVE",
"301 7 OFFCURVE"
);
}
);
width = 526;
}
);
leftKerningGroup = B;
rightKerningGroup = E;
unicode = 0118;
},
{
color = 3;
glyphname = F;
lastChange = "2015-12-24 10:46:09 +0000";
layers = (
{
anchors = (
{
name = bottom;
position = "{245, 0}";
},
{
name = ogonek;
position = "{227, 10}";
},
{
name = top;
position = "{245, 670}";
},
{
name = topleft;
position = "{6, 670}";
}
);
layerId = "59118767-2CA9-48AA-9373-694D24C960D8";
name = Regular;
paths = (
{
closed = 1;
nodes = (
"184 608 OFFCURVE",
"59 589 OFFCURVE",
"72 550 CURVE SMOOTH",
"83 515 OFFCURVE",
"86 461 OFFCURVE",
"86 418 CURVE SMOOTH",
"86 274 OFFCURVE",
"52 131 OFFCURVE",
"52 61 CURVE SMOOTH",
"52 -4 OFFCURVE",
"82 -10 OFFCURVE",
"108 -10 CURVE SMOOTH",
"163 -10 OFFCURVE",
"201 19 OFFCURVE",
"201 50 CURVE SMOOTH",
"201 61 OFFCURVE",
"196 72 OFFCURVE",
"187 81 CURVE SMOOTH",
"159 107 OFFCURVE",
"152 144 OFFCURVE",
"152 193 CURVE SMOOTH",
"152 301 OFFCURVE",
"184 473 OFFCURVE",
"184 570 CURVE SMOOTH"
);
},
{
closed = 1;
nodes = (
"442 669 OFFCURVE",
"415 670 OFFCURVE",
"350 670 CURVE SMOOTH",
"277 670 OFFCURVE",
"170 663 OFFCURVE",
"119 657 CURVE SMOOTH",
"98 654 OFFCURVE",
"78 647 OFFCURVE",
"65 628 CURVE SMOOTH",
"51 608 OFFCURVE",
"45 577 OFFCURVE",
"45 550 CURVE SMOOTH",
"45 535 OFFCURVE",
"49 532 OFFCURVE",
"59 532 CURVE SMOOTH",
"69 532 OFFCURVE",
"113 543 OFFCURVE",
"123 545 CURVE SMOOTH",
"178 554 OFFCURVE",
"252 556 OFFCURVE",
"285 556 CURVE SMOOTH",
"344 556 OFFCURVE",
"384 551 OFFCURVE",
"408 551 CURVE SMOOTH",
"434 551 OFFCURVE",
"447 557 OFFCURVE",
"463 579 CURVE SMOOTH",
"475 595 OFFCURVE",
"485 613 OFFCURVE",
"485 636 CURVE SMOOTH",
"485 655 OFFCURVE",
"477 663 OFFCURVE",
"458 666 CURVE SMOOTH"
);
},
{
closed = 1;
nodes = (
"136 278 LINE",
"154 278 OFFCURVE",
"173 279 OFFCURVE",
"191 279 CURVE SMOOTH",
"259 279 OFFCURVE",
"328 277 OFFCURVE",
"364 275 CURVE SMOOTH",
"395 273 OFFCURVE",
"425 326 OFFCURVE",
"425 361 CURVE SMOOTH",
"425 372 OFFCURVE",
"422 383 OFFCURVE",
"410 384 CURVE SMOOTH",
"402 385 OFFCURVE",
"379 386 OFFCURVE",
"339 386 CURVE SMOOTH",
"275 386 OFFCURVE",
"208 385 OFFCURVE",
"146 377 CURVE"
);
}
);
width = 482;
}
);
leftKerningGroup = B;
leftMetricsKey = D;
rightKerningGroup = F;
unicode = 0046;
},
{
color = 3;
glyphname = G;
lastChange = "2015-12-24 10:46:09 +0000";
layers = (
{
anchors = (
{
name = bottom;
position = "{331, 0}";
},
{
name = top;
position = "{370, 660}";
}
);
layerId = "59118767-2CA9-48AA-9373-694D24C960D8";
name = Regular;
paths = (
{
closed = 1;
nodes = (
"450 -14 OFFCURVE",
"577 95 OFFCURVE",
"577 217 CURVE SMOOTH",
"577 251 OFFCURVE",
"568 274 OFFCURVE",
"557 293 CURVE",
"524 275 LINE",
"553 272 OFFCURVE",
"574 270 OFFCURVE",
"587 270 CURVE SMOOTH",
"619 270 OFFCURVE",
"646 323 OFFCURVE",
"646 358 CURVE SMOOTH",
"646 369 OFFCURVE",
"643 380 OFFCURVE",
"631 381 CURVE SMOOTH",
"623 382 OFFCURVE",
"600 383 OFFCURVE",
"560 383 CURVE SMOOTH",
"496 383 OFFCURVE",
"425 380 OFFCURVE",
"363 375 CURVE SMOOTH",
"331 372 OFFCURVE",
"308 348 OFFCURVE",
"308 315 CURVE SMOOTH",
"308 286 OFFCURVE",
"324 285 OFFCURVE",
"357 283 CURVE SMOOTH",
"428 278 OFFCURVE",
"491 263 OFFCURVE",
"491 201 CURVE SMOOTH",
"491 138 OFFCURVE",
"417 103 OFFCURVE",
"339 103 CURVE SMOOTH",
"216 103 OFFCURVE",
"138 185 OFFCURVE",
"138 315 CURVE SMOOTH",
"138 444 OFFCURVE",
"216 557 OFFCURVE",
"361 557 CURVE SMOOTH",
"407 557 OFFCURVE",
"447 546 OFFCURVE",
"484 521 CURVE SMOOTH",
"490 517 OFFCURVE",
"495 516 OFFCURVE",
"501 516 CURVE SMOOTH",
"534 516 OFFCURVE",
"569 558 OFFCURVE",
"569 596 CURVE SMOOTH",
"569 647 OFFCURVE",
"506 674 OFFCURVE",
"423 674 CURVE SMOOTH",
"194 674 OFFCURVE",
"47 472 OFFCURVE",
"47 261 CURVE SMOOTH",
"47 86 OFFCURVE",
"156 -14 OFFCURVE",
"300 -14 CURVE SMOOTH"
);
}
);
width = 668;
}
);
leftKerningGroup = B;
leftMetricsKey = C;
rightKerningGroup = G;
unicode = 0047;
},
{
color = 3;
glyphname = H;
lastChange = "2015-12-24 10:46:09 +0000";
layers = (
{
anchors = (
{
name = bottom;
position = "{331, 0}";
},
{
name = center;
position = "{331, 335}";
},
{
name = top;
position = "{331, 670}";
},
{
name = topleft;
position = "{7, 670}";
}
);
layerId = "59118767-2CA9-48AA-9373-694D24C960D8";
name = Regular;
paths = (
{
closed = 1;
nodes = (
"135 -11 OFFCURVE",
"180 9 OFFCURVE",
"181 45 CURVE SMOOTH",
"181 52 OFFCURVE",
"179 69 OFFCURVE",
"176 85 CURVE SMOOTH",
"172 127 OFFCURVE",
"169 171 OFFCURVE",
"169 217 CURVE SMOOTH",
"170 358 OFFCURVE",
"192 481 OFFCURVE",
"193 562 CURVE SMOOTH",
"193 612 OFFCURVE",
"187 670 OFFCURVE",
"137 670 CURVE SMOOTH",
"99 670 OFFCURVE",
"52 637 OFFCURVE",
"51 611 CURVE SMOOTH",
"51 595 OFFCURVE",
"69 586 OFFCURVE",
"81 545 CURVE SMOOTH",
"93 507 OFFCURVE",
"96 450 OFFCURVE",
"96 386 CURVE SMOOTH",
"96 265 OFFCURVE",
"78 140 OFFCURVE",
"57 36 CURVE SMOOTH",
"56 30 OFFCURVE",
"55 23 OFFCURVE",
"55 18 CURVE SMOOTH",
"55 -3 OFFCURVE",
"71 -11 OFFCURVE",
"96 -11 CURVE SMOOTH"
);
},
{
closed = 1;
nodes = (
"619 61 OFFCURVE",
"614 72 OFFCURVE",
"605 81 CURVE SMOOTH",
"577 107 OFFCURVE",
"570 146 OFFCURVE",
"570 183 CURVE SMOOTH",
"570 290 OFFCURVE",
"607 470 OFFCURVE",
"609 580 CURVE SMOOTH",
"609 628 OFFCURVE",
"601 670 OFFCURVE",
"555 670 CURVE SMOOTH",
"517 670 OFFCURVE",
"474 643 OFFCURVE",
"473 614 CURVE SMOOTH",
"473 599 OFFCURVE",
"485 583 OFFCURVE",
"494 542 CURVE SMOOTH",
"500 511 OFFCURVE",
"504 472 OFFCURVE",
"504 429 CURVE SMOOTH",
"504 287 OFFCURVE",
"469 135 OFFCURVE",
"469 61 CURVE SMOOTH",
"469 -4 OFFCURVE",
"497 -10 OFFCURVE",
"523 -10 CURVE SMOOTH",
"577 -10 OFFCURVE",
"618 18 OFFCURVE",
"619 50 CURVE SMOOTH"
);
},
{
closed = 1;
nodes = (
"492 399 OFFCURVE",
"461 400 OFFCURVE",
"427 400 CURVE SMOOTH",
"291 400 OFFCURVE",
"117 390 OFFCURVE",
"104 383 CURVE SMOOTH",
"78 370 OFFCURVE",
"54 312 OFFCURVE",
"54 275 CURVE SMOOTH",
"54 261 OFFCURVE",
"58 257 OFFCURVE",
"67 257 CURVE SMOOTH",
"74 257 OFFCURVE",
"126 269 OFFCURVE",
"138 271 CURVE SMOOTH",
"193 280 OFFCURVE",
"256 285 OFFCURVE",
"316 285 CURVE SMOOTH",
"365 285 OFFCURVE",
"444 280 OFFCURVE",
"468 280 CURVE SMOOTH",
"500 280 OFFCURVE",
"528 357 OFFCURVE",
"528 381 CURVE SMOOTH",
"528 393 OFFCURVE",
"522 398 OFFCURVE",
"517 398 CURVE SMOOTH"
);
}
);
width = 664;
}
);
leftKerningGroup = B;
rightKerningGroup = H;
unicode = 0048;
},
{
color = 3;
glyphname = I;
lastChange = "2015-12-24 10:46:09 +0000";
layers = (
{
anchors = (
{
name = bottom;
position = "{136, 0}";
},
{
name = ogonek;
position = "{242, 10}";
},
{
name = top;
position = "{140, 660}";
},
{
name = topleft;
position = "{21, 670}";
}
);
guideLines = (
{
angle = 87;
position = "{138, 328}";
}
);
layerId = "59118767-2CA9-48AA-9373-694D24C960D8";
name = Regular;
paths = (
{
closed = 1;
nodes = (
"174 107 OFFCURVE",
"167 144 OFFCURVE",
"167 193 CURVE SMOOTH",
"167 301 OFFCURVE",
"199 475 OFFCURVE",
"199 572 CURVE SMOOTH",
"199 615 OFFCURVE",
"193 672 OFFCURVE",
"145 672 CURVE SMOOTH",
"108 672 OFFCURVE",
"58 639 OFFCURVE",
"58 613 CURVE SMOOTH",
"58 598 OFFCURVE",
"75 589 OFFCURVE",
"87 552 CURVE SMOOTH",
"98 517 OFFCURVE",
"101 463 OFFCURVE",
"101 418 CURVE SMOOTH",
"101 274 OFFCURVE",
"67 131 OFFCURVE",
"67 61 CURVE SMOOTH",
"67 -4 OFFCURVE",
"97 -10 OFFCURVE",
"123 -10 CURVE SMOOTH",
"178 -10 OFFCURVE",
"216 19 OFFCURVE",
"216 50 CURVE SMOOTH",
"216 61 OFFCURVE",
"211 72 OFFCURVE",
"202 81 CURVE SMOOTH"
);
}
);
width = 268;
}
);
leftKerningGroup = B;
rightKerningGroup = H;
unicode = 0049;
},
{
glyphname = Iacute;
lastChange = "2015-12-24 10:46:09 +0000";
layers = (
{
components = (
{
name = I;
}
);
layerId = "59118767-2CA9-48AA-9373-694D24C960D8";
name = Regular;
paths = (
{
closed = 1;
nodes = (
"227 787 OFFCURVE",
"177 756 OFFCURVE",
"127 729 CURVE SMOOTH",
"120 725 OFFCURVE",
"113 723 OFFCURVE",
"107 723 CURVE SMOOTH",
"93 723 OFFCURVE",
"83 732 OFFCURVE",
"83 746 CURVE SMOOTH",
"83 753 OFFCURVE",
"86 762 OFFCURVE",
"91 769 CURVE SMOOTH",
"119 815 OFFCURVE",
"150 862 OFFCURVE",
"183 895 CURVE SMOOTH",
"199 911 OFFCURVE",
"216 919 OFFCURVE",
"231 919 CURVE SMOOTH",
"253 919 OFFCURVE",
"284 895 OFFCURVE",
"284 866 CURVE SMOOTH",
"284 853 OFFCURVE",
"277 836 OFFCURVE",
"263 822 CURVE SMOOTH"
);
}
);
width = 268;
}
);
leftKerningGroup = B;
rightKerningGroup = H;
unicode = 00CD;
},
{
glyphname = Icircumflex;
lastChange = "2015-12-24 10:46:09 +0000";
layers = (
{
components = (
{
name = I;
}
);
layerId = "59118767-2CA9-48AA-9373-694D24C960D8";
name = Regular;
paths = (
{
closed = 1;
nodes = (
"179 913 OFFCURVE",
"164 920 OFFCURVE",
"148 920 CURVE SMOOTH",
"135 920 OFFCURVE",
"119 915 OFFCURVE",
"101 895 CURVE SMOOTH",
"86 878 OFFCURVE",
"40 818 OFFCURVE",
"21 781 CURVE SMOOTH",
"15 769 OFFCURVE",
"12 758 OFFCURVE",
"12 749 CURVE SMOOTH",
"12 736 OFFCURVE",
"20 725 OFFCURVE",
"30 725 CURVE SMOOTH",
"35 725 OFFCURVE",
"40 727 OFFCURVE",
"48 732 CURVE SMOOTH",
"69 746 OFFCURVE",
"126 792 OFFCURVE",
"162 824 CURVE",
"128 825 LINE",
"145 807 OFFCURVE",
"211 746 OFFCURVE",
"231 732 CURVE SMOOTH",
"238 727 OFFCURVE",
"244 726 OFFCURVE",
"248 726 CURVE SMOOTH",
"260 726 OFFCURVE",
"270 738 OFFCURVE",
"270 752 CURVE SMOOTH",
"270 759 OFFCURVE",
"268 769 OFFCURVE",
"263 779 CURVE SMOOTH",
"247 820 OFFCURVE",
"210 877 OFFCURVE",
"194 896 CURVE SMOOTH"
);
}
);
width = 268;
}
);
leftKerningGroup = B;
rightKerningGroup = H;
unicode = 00CE;
},
{
glyphname = Igrave;
lastChange = "2015-12-24 10:46:09 +0000";
layers = (
{
components = (
{
name = I;
}
);
layerId = "59118767-2CA9-48AA-9373-694D24C960D8";
name = Regular;
paths = (
{
closed = 1;
nodes = (
"22 830 OFFCURVE",
"15 847 OFFCURVE",
"15 860 CURVE SMOOTH",
"15 889 OFFCURVE",
"36 913 OFFCURVE",
"66 913 CURVE SMOOTH",
"79 913 OFFCURVE",
"96 909 OFFCURVE",
"116 884 CURVE SMOOTH",
"140 855 OFFCURVE",
"166 809 OFFCURVE",
"189 763 CURVE SMOOTH",
"193 756 OFFCURVE",
"196 747 OFFCURVE",
"196 740 CURVE SMOOTH",
"196 726 OFFCURVE",
"187 717 OFFCURVE",
"174 717 CURVE SMOOTH",
"169 717 OFFCURVE",
"163 719 OFFCURVE",
"157 723 CURVE SMOOTH",
"111 750 OFFCURVE",
"67 781 OFFCURVE",
"35 816 CURVE SMOOTH"
);
}
);
width = 268;
}
);
leftKerningGroup = B;
rightKerningGroup = H;
unicode = 00CC;
},
{
glyphname = Imacron;
lastChange = "2015-12-24 10:46:09 +0000";
layers = (
{
components = (
{
name = I;
}
);
layerId = "59118767-2CA9-48AA-9373-694D24C960D8";
name = Regular;
paths = (
{
closed = 1;
nodes = (
"152 859 OFFCURVE",
"69 855 OFFCURVE",
"44 846 CURVE SMOOTH",
"25 839 OFFCURVE",
"21 821 OFFCURVE",
"21 799 CURVE SMOOTH",
"21 777 OFFCURVE",
"31 763 OFFCURVE",
"43 763 CURVE SMOOTH",
"69 763 OFFCURVE",
"106 767 OFFCURVE",
"134 767 CURVE SMOOTH",
"173 767 OFFCURVE",
"201 763 OFFCURVE",
"230 763 CURVE SMOOTH",
"250 763 OFFCURVE",
"259 799 OFFCURVE",
"259 829 CURVE SMOOTH",
"259 855 OFFCURVE",
"241 859 OFFCURVE",
"210 859 CURVE SMOOTH"
);
}
);
width = 268;
}
);
leftKerningGroup = B;
rightKerningGroup = H;
unicode = 012A;
},
{
color = 3;
glyphname = J;
lastChange = "2015-12-24 10:46:09 +0000";
layers = (
{
anchors = (
{
name = bottom;
position = "{272, 0}";
},
{
name = top;
position = "{272, 670}";
}
);
guideLines = (
{
position = "{395, 236}";
},
{
position = "{374, 109}";
}
);
layerId = "59118767-2CA9-48AA-9373-694D24C960D8";
name = Regular;
paths = (
{
closed = 1;
nodes = (
"475 456 OFFCURVE",
"475 563 CURVE SMOOTH",
"474 614 OFFCURVE",
"470 661 OFFCURVE",
"418 661 CURVE SMOOTH",
"380 661 OFFCURVE",
"353 639 OFFCURVE",
"351 613 CURVE",
"352 597 OFFCURVE",
"362 588 OFFCURVE",
"370 547 CURVE SMOOTH",
"379 503 OFFCURVE",
"384 437 OFFCURVE",
"385 373 CURVE SMOOTH",
"385 333 OFFCURVE",
"384 287 OFFCURVE",
"382 254 CURVE SMOOTH",
"375 160 OFFCURVE",
"334 102 OFFCURVE",
"236 102 CURVE SMOOTH",
"166 102 OFFCURVE",
"118 130 OFFCURVE",
"117 194 CURVE SMOOTH",
"117 221 OFFCURVE",
"125 244 OFFCURVE",
"139 264 CURVE SMOOTH",
"143 269 OFFCURVE",
"147 277 OFFCURVE",
"147 286 CURVE SMOOTH",
"147 301 OFFCURVE",
"135 312 OFFCURVE",
"118 312 CURVE SMOOTH",
"109 312 OFFCURVE",
"97 309 OFFCURVE",
"78 291 CURVE SMOOTH",
"55 269 OFFCURVE",
"22 227 OFFCURVE",
"22 151 CURVE SMOOTH",
"22 44 OFFCURVE",
"85 -14 OFFCURVE",
"206 -14 CURVE SMOOTH",
"365 -14 OFFCURVE",
"455 93 OFFCURVE",
"469 305 CURVE SMOOTH",
"473 360 OFFCURVE"
);
},
{
closed = 1;
nodes = (
"449 667 OFFCURVE",
"408 670 OFFCURVE",
"342 670 CURVE SMOOTH",
"261 670 OFFCURVE",
"198 666 OFFCURVE",
"141 660 CURVE SMOOTH",
"120 658 OFFCURVE",
"100 651 OFFCURVE",
"87 633 CURVE SMOOTH",
"72 613 OFFCURVE",
"64 587 OFFCURVE",
"63 560 CURVE SMOOTH",
"63 545 OFFCURVE",
"67 542 OFFCURVE",
"77 542 CURVE SMOOTH",
"87 542 OFFCURVE",
"115 550 OFFCURVE",
"137 553 CURVE SMOOTH",
"184 558 OFFCURVE",
"232 559 OFFCURVE",
"262 559 CURVE SMOOTH",
"308 559 OFFCURVE",
"389 553 OFFCURVE",
"418 552 CURVE SMOOTH",
"444 552 OFFCURVE",
"458 552 OFFCURVE",
"474 572 CURVE SMOOTH",
"486 587 OFFCURVE",
"492 610 OFFCURVE",
"493 633 CURVE SMOOTH",
"493 652 OFFCURVE",
"485 660 OFFCURVE",
"466 664 CURVE SMOOTH"
);
}
);
width = 532;
}
);
leftKerningGroup = J;
rightKerningGroup = J;
unicode = 004A;
},
{
color = 3;
glyphname = K;
lastChange = "2015-12-24 10:46:09 +0000";
layers = (
{
anchors = (
{
name = bottom;
position = "{287, 10}";
},
{
name = top;
position = "{297, 670}";
}
);
layerId = "59118767-2CA9-48AA-9373-694D24C960D8";
name = Regular;
paths = (
{
closed = 1;
nodes = (
"135 -11 OFFCURVE",
"180 9 OFFCURVE",
"181 45 CURVE SMOOTH",
"181 52 OFFCURVE",
"179 69 OFFCURVE",
"176 85 CURVE SMOOTH",
"172 127 OFFCURVE",
"169 171 OFFCURVE",
"169 217 CURVE SMOOTH",
"170 358 OFFCURVE",
"193 485 OFFCURVE",
"193 562 CURVE SMOOTH",
"193 612 OFFCURVE",
"192 670 OFFCURVE",
"142 670 CURVE SMOOTH",
"104 670 OFFCURVE",
"52 637 OFFCURVE",
"51 611 CURVE SMOOTH",
"51 595 OFFCURVE",
"69 586 OFFCURVE",
"81 545 CURVE SMOOTH",
"93 507 OFFCURVE",
"96 450 OFFCURVE",
"96 386 CURVE SMOOTH",
"96 265 OFFCURVE",
"78 140 OFFCURVE",
"57 36 CURVE SMOOTH",
"56 30 OFFCURVE",
"55 23 OFFCURVE",
"55 18 CURVE SMOOTH",
"55 -3 OFFCURVE",
"71 -11 OFFCURVE",
"96 -11 CURVE SMOOTH"
);
},
{
closed = 1;
nodes = (
"477 103 OFFCURVE",
"425 136 OFFCURVE",
"359 211 CURVE SMOOTH",
"317 259 OFFCURVE",
"278 317 OFFCURVE",
"259 372 CURVE",
"249 319 LINE",
"293 400 OFFCURVE",
"373 480 OFFCURVE",
"415 509 CURVE SMOOTH",
"444 529 OFFCURVE",
"468 534 OFFCURVE",
"486 534 CURVE SMOOTH",
"504 534 OFFCURVE",
"514 529 OFFCURVE",
"528 529 CURVE SMOOTH",
"560 529 OFFCURVE",
"584 578 OFFCURVE",
"584 614 CURVE SMOOTH",
"584 643 OFFCURVE",
"568 670 OFFCURVE",
"529 670 CURVE SMOOTH",
"421 670 OFFCURVE",
"260 471 OFFCURVE",
"215 389 CURVE SMOOTH",
"203 367 OFFCURVE",
"198 351 OFFCURVE",
"198 333 CURVE SMOOTH",
"198 319 OFFCURVE",
"201 303 OFFCURVE",
"207 284 CURVE SMOOTH",
"240 186 OFFCURVE",
"354 -9 OFFCURVE",
"493 -9 CURVE SMOOTH",
"559 -9 OFFCURVE",
"587 36 OFFCURVE",
"587 77 CURVE SMOOTH",
"587 95 OFFCURVE",
"582 103 OFFCURVE",
"565 103 CURVE SMOOTH"
);
}
);
width = 599;
}
);
leftKerningGroup = B;
leftMetricsKey = H;
rightKerningGroup = K;
unicode = 004B;
},
{
color = 3;
glyphname = L;
lastChange = "2015-12-24 10:46:09 +0000";
layers = (
{
anchors = (
{
name = bottom;
position = "{247, 0}";
},
{
name = center;
position = "{247, 335}";
},
{
name = top;
position = "{121, 660}";
},
{
name = topright;
position = "{306, 412}";
}
);
layerId = "59118767-2CA9-48AA-9373-694D24C960D8";
name = Regular;
paths = (
{
closed = 1;
nodes = (
"441 140 OFFCURVE",
"428 131 OFFCURVE",
"395 121 CURVE SMOOTH",
"357 109 OFFCURVE",
"317 103 OFFCURVE",
"268 103 CURVE SMOOTH",
"188 103 OFFCURVE",
"160 119 OFFCURVE",
"160 204 CURVE SMOOTH",
"160 297 OFFCURVE",
"194 499 OFFCURVE",
"194 564 CURVE SMOOTH",
"194 615 OFFCURVE",
"193 672 OFFCURVE",
"141 672 CURVE SMOOTH",
"103 672 OFFCURVE",
"53 640 OFFCURVE",
"51 614 CURVE",
"51 598 OFFCURVE",
"69 586 OFFCURVE",
"81 548 CURVE SMOOTH",
"91 515 OFFCURVE",
"94 472 OFFCURVE",
"94 411 CURVE SMOOTH",
"94 363 OFFCURVE",
"91 334 OFFCURVE",
"85 282 CURVE SMOOTH",
"76 207 OFFCURVE",
"65 160 OFFCURVE",
"65 118 CURVE SMOOTH",
"65 68 OFFCURVE",
"80 41 OFFCURVE",
"96 25 CURVE SMOOTH",
"130 -9 OFFCURVE",
"193 -14 OFFCURVE",
"242 -14 CURVE SMOOTH",
"308 -14 OFFCURVE",
"374 -5 OFFCURVE",
"425 24 CURVE SMOOTH",
"453 40 OFFCURVE",
"475 61 OFFCURVE",
"475 96 CURVE SMOOTH",
"475 125 OFFCURVE",
"460 140 OFFCURVE",
"449 140 CURVE SMOOTH"
);
}
);
width = 485;
}
);
leftKerningGroup = B;
leftMetricsKey = H;
rightKerningGroup = L;
unicode = 004C;
},
{
glyphname = Ldot;
lastChange = "2015-12-24 10:46:09 +0000";
layers = (
{
components = (
{
name = L;
}
);
layerId = "59118767-2CA9-48AA-9373-694D24C960D8";
name = Regular;
paths = (
{
closed = 1;
nodes = (
"420 303 OFFCURVE",
"450 336 OFFCURVE",
"450 380 CURVE SMOOTH",
"450 422 OFFCURVE",
"425 446 OFFCURVE",
"383 446 CURVE SMOOTH",
"337 446 OFFCURVE",
"306 415 OFFCURVE",
"306 369 CURVE SMOOTH",
"306 327 OFFCURVE",
"331 303 OFFCURVE",
"373 303 CURVE SMOOTH"
);
}
);
width = 495;
}
);
leftMetricsKey = L;
unicode = 013F;
},
{
glyphname = Lslash;
lastChange = "2015-12-24 10:46:09 +0000";
layers = (
{
components = (
{
name = L;
}
);
layerId = "59118767-2CA9-48AA-9373-694D24C960D8";
name = Regular;
paths = (
{
closed = 1;
nodes = (
"204 411 OFFCURVE",
"150 372 OFFCURVE",
"117 350 CURVE SMOOTH",
"80 327 OFFCURVE",
"40 304 OFFCURVE",
"27 295 CURVE SMOOTH",
"16 287 OFFCURVE",
"10 278 OFFCURVE",
"10 262 CURVE SMOOTH",
"10 249 OFFCURVE",
"14 225 OFFCURVE",
"32 225 CURVE SMOOTH",
"44 225 OFFCURVE",
"59 234 OFFCURVE",
"85 251 CURVE SMOOTH",
"100 261 OFFCURVE",
"118 273 OFFCURVE",
"140 287 CURVE SMOOTH",
"188 318 OFFCURVE",
"266 361 OFFCURVE",
"288 376 CURVE SMOOTH",
"302 384 OFFCURVE",
"306 396 OFFCURVE",
"306 411 CURVE SMOOTH",
"306 429 OFFCURVE",
"300 451 OFFCURVE",
"280 451 CURVE SMOOTH",
"270 451 OFFCURVE",
"258 446 OFFCURVE",
"244 437 CURVE SMOOTH"
);
}
);
width = 483;
}
);
leftKerningGroup = B;
rightKerningGroup = L;
unicode = 0141;
},
{
color = 3;
glyphname = M;
lastChange = "2015-12-24 10:46:09 +0000";
layers = (
{
layerId = "59118767-2CA9-48AA-9373-694D24C960D8";
name = Regular;
paths = (
{
closed = 1;
nodes = (
"111 -10 OFFCURVE",
"172 7 OFFCURVE",
"172 50 CURVE SMOOTH",
"172 89 OFFCURVE",
"165 130 OFFCURVE",
"165 191 CURVE SMOOTH",
"165 296 OFFCURVE",
"187 416 OFFCURVE",
"214 492 CURVE SMOOTH",
"223 517 OFFCURVE",
"237 529 OFFCURVE",
"253 529 CURVE SMOOTH",
"270 529 OFFCURVE",
"277 515 OFFCURVE",
"278 491 CURVE SMOOTH",
"284 370 OFFCURVE",
"302 270 OFFCURVE",
"320 210 CURVE SMOOTH",
"333 166 OFFCURVE",
"360 122 OFFCURVE",
"419 122 CURVE SMOOTH",
"456 122 OFFCURVE",
"494 138 OFFCURVE",
"526 196 CURVE SMOOTH",
"567 270 OFFCURVE",
"603 385 OFFCURVE",
"630 473 CURVE SMOOTH",
"639 503 OFFCURVE",
"651 522 OFFCURVE",
"671 522 CURVE SMOOTH",
"687 522 OFFCURVE",
"690 511 OFFCURVE",
"690 490 CURVE SMOOTH",
"690 449 OFFCURVE",
"678 358 OFFCURVE",
"678 258 CURVE SMOOTH",
"678 196 OFFCURVE",
"683 126 OFFCURVE",
"697 68 CURVE SMOOTH",
"709 21 OFFCURVE",
"726 -9 OFFCURVE",
"770 -9 CURVE SMOOTH",
"817 -9 OFFCURVE",
"860 25 OFFCURVE",
"860 59 CURVE SMOOTH",
"860 75 OFFCURVE",
"850 86 OFFCURVE",
"839 97 CURVE SMOOTH",
"782 158 OFFCURVE",
"773 276 OFFCURVE",
"773 371 CURVE SMOOTH",
"773 447 OFFCURVE",
"780 515 OFFCURVE",
"780 575 CURVE SMOOTH",
"780 649 OFFCURVE",
"760 681 OFFCURVE",
"710 681 CURVE SMOOTH",
"629 681 OFFCURVE",
"594 588 OFFCURVE",
"568 508 CURVE SMOOTH",
"544 434 OFFCURVE",
"508 327 OFFCURVE",
"481 281 CURVE SMOOTH",
"471 264 OFFCURVE",
"462 256 OFFCURVE",
"447 256 CURVE SMOOTH",
"434 256 OFFCURVE",
"427 263 OFFCURVE",
"420 280 CURVE SMOOTH",
"397 333 OFFCURVE",
"376 472 OFFCURVE",
"365 592 CURVE SMOOTH",
"359 658 OFFCURVE",
"324 680 OFFCURVE",
"285 680 CURVE SMOOTH",
"232 680 OFFCURVE",
"194 641 OFFCURVE",
"164 569 CURVE SMOOTH",
"143 518 OFFCURVE",
"113 432 OFFCURVE",
"91 340 CURVE SMOOTH",
"66 230 OFFCURVE",
"46 111 OFFCURVE",
"46 26 CURVE SMOOTH",
"46 7 OFFCURVE",
"53 -10 OFFCURVE",
"80 -10 CURVE SMOOTH"
);
}
);
width = 898;
}
);
leftKerningGroup = M;
rightKerningGroup = M;
unicode = 004D;
},
{
color = 3;
glyphname = N;
lastChange = "2015-12-24 10:46:09 +0000";
layers = (
{
anchors = (
{
name = bottom;
position = "{331, 0}";
},
{
name = top;
position = "{348, 660}";
}
);
layerId = "59118767-2CA9-48AA-9373-694D24C960D8";
name = Regular;
paths = (
{
closed = 1;
nodes = (
"597 305 OFFCURVE",
"629 487 OFFCURVE",
"630 562 CURVE SMOOTH",
"630 613 OFFCURVE",
"624 670 OFFCURVE",
"575 670 CURVE SMOOTH",
"540 670 OFFCURVE",
"494 640 OFFCURVE",
"494 615 CURVE SMOOTH",
"494 599 OFFCURVE",
"511 581 OFFCURVE",
"519 546 CURVE",
"528 513 OFFCURVE",
"530 465 OFFCURVE",
"530 411 CURVE SMOOTH",
"530 345 OFFCURVE",
"524 272 OFFCURVE",
"511 191 CURVE SMOOTH",
"510 186 OFFCURVE",
"507 182 OFFCURVE",
"503 182 CURVE SMOOTH",
"500 182 OFFCURVE",
"497 185 OFFCURVE",
"494 191 CURVE SMOOTH",
"429 346 OFFCURVE",
"332 496 OFFCURVE",
"212 630 CURVE SMOOTH",
"194 650 OFFCURVE",
"172 671 OFFCURVE",
"138 671 CURVE SMOOTH",
"102 671 OFFCURVE",
"69 648 OFFCURVE",
"69 603 CURVE SMOOTH",
"69 582 OFFCURVE",
"76 560 OFFCURVE",
"78 542 CURVE SMOOTH",
"82 513 OFFCURVE",
"86 465 OFFCURVE",
"87 411 CURVE SMOOTH",
"86 274 OFFCURVE",
"48 131 OFFCURVE",
"48 58 CURVE SMOOTH",
"48 -1 OFFCURVE",
"72 -10 OFFCURVE",
"103 -10 CURVE SMOOTH",
"158 -10 OFFCURVE",
"191 20 OFFCURVE",
"191 46 CURVE SMOOTH",
"191 56 OFFCURVE",
"186 70 OFFCURVE",
"179 83 CURVE SMOOTH",
"162 115 OFFCURVE",
"154 146 OFFCURVE",
"154 194 CURVE SMOOTH",
"154 256 OFFCURVE",
"166 368 OFFCURVE",
"176 447 CURVE SMOOTH",
"178 460 OFFCURVE",
"182 470 OFFCURVE",
"190 470 CURVE SMOOTH",
"194 470 OFFCURVE",
"200 467 OFFCURVE",
"208 459 CURVE SMOOTH",
"303 353 OFFCURVE",
"394 201 OFFCURVE",
"454 48 CURVE SMOOTH",
"470 7 OFFCURVE",
"502 -9 OFFCURVE",
"533 -9 CURVE SMOOTH",
"577 -9 OFFCURVE",
"605 23 OFFCURVE",
"605 74 CURVE SMOOTH",
"605 102 OFFCURVE",
"597 152 OFFCURVE",
"597 203 CURVE SMOOTH"
);
}
);
width = 675;
}
);
leftKerningGroup = B;
leftMetricsKey = "=H-3";
rightKerningGroup = H;
rightMetricsKey = H;
unicode = 004E;
},
{
color = 3;
glyphname = O;
lastChange = "2015-12-24 10:46:09 +0000";
layers = (
{
anchors = (
{
name = bottom;
position = "{332, 0}";
},
{
name = center;
position = "{332, 335}";
},
{
name = ogonek;
position = "{597, 10}";
},
{
name = top;
position = "{358, 660}";
},
{
name = topleft;
position = "{21, 670}";
},
{
name = topright;
position = "{643, 670}";
}
);
layerId = "59118767-2CA9-48AA-9373-694D24C960D8";
name = Regular;
paths = (
{
closed = 1;
nodes = (
"221 674 OFFCURVE",
"137 626 OFFCURVE",
"92 586 CURVE SMOOTH",
"74 570 OFFCURVE",
"49 544 OFFCURVE",
"49 498 CURVE SMOOTH",
"49 467 OFFCURVE",
"59 450 OFFCURVE",
"79 450 CURVE SMOOTH",
"103 450 OFFCURVE",
"124 473 OFFCURVE",
"146 498 CURVE",
"130 488 LINE",
"73 405 OFFCURVE",
"51 314 OFFCURVE",
"51 235 CURVE SMOOTH",
"51 72 OFFCURVE",
"143 -14 OFFCURVE",
"286 -14 CURVE SMOOTH",
"486 -14 OFFCURVE",
"621 158 OFFCURVE",
"621 377 CURVE SMOOTH",
"621 563 OFFCURVE",
"527 674 OFFCURVE",
"341 674 CURVE SMOOTH"
);
},
{
closed = 1;
nodes = (
"226 103 OFFCURVE",
"139 164 OFFCURVE",
"139 298 CURVE SMOOTH",
"139 386 OFFCURVE",
"177 470 OFFCURVE",
"214 526 CURVE",
"245 542 OFFCURVE",
"286 557 OFFCURVE",
"338 557 CURVE SMOOTH",
"439 557 OFFCURVE",
"542 499 OFFCURVE",
"542 341 CURVE SMOOTH",
"542 171 OFFCURVE",
"427 103 OFFCURVE",
"323 103 CURVE SMOOTH"
);
}
);
width = 663;
}
);
leftKerningGroup = O;
note = O;
rightKerningGroup = O;
unicode = 004F;
},
{
glyphname = Oslash;
lastChange = "2015-12-24 10:46:09 +0000";
layers = (
{
components = (
{
name = O;
}
);
layerId = "59118767-2CA9-48AA-9373-694D24C960D8";
name = Regular;
paths = (
{
closed = 1;
nodes = (
"169 -42 OFFCURVE",
"175 -6 OFFCURVE",
"200 37 CURVE SMOOTH",
"227 84 OFFCURVE",
"273 154 OFFCURVE",
"374 315 CURVE SMOOTH",
"435 411 OFFCURVE",
"528 542 OFFCURVE",
"552 584 CURVE SMOOTH",
"596 661 OFFCURVE",
"610 696 OFFCURVE",
"580 713 CURVE SMOOTH",
"552 730 OFFCURVE",
"512 719 OFFCURVE",
"505 705 CURVE SMOOTH",
"502 701 OFFCURVE",
"500 687 OFFCURVE",
"493 670 CURVE SMOOTH",
"484 649 OFFCURVE",
"471 618 OFFCURVE",
"450 582 CURVE SMOOTH",
"411 515 OFFCURVE",
"347 411 OFFCURVE",
"291 325 CURVE SMOOTH",
"169 137 OFFCURVE",
"119 72 OFFCURVE",
"86 16 CURVE SMOOTH",
"61 -28 OFFCURVE",
"68 -46 OFFCURVE",
"98 -64 CURVE SMOOTH",
"119 -76 OFFCURVE",
"151 -73 OFFCURVE",
"161 -56 CURVE SMOOTH"
);
}
);
width = 662;
}
);
leftKerningGroup = O;
rightKerningGroup = O;
unicode = 00D8;
},
{
glyphname = OE;
lastChange = "2015-12-24 10:46:09 +0000";
layers = (
{
anchors = (
{
name = bottom;
position = "{733, 0}";
},
{
name = ogonek;
position = "{934, 37}";
}
);
components = (
{
disableAlignment = 1;
name = O;
}
);
layerId = "59118767-2CA9-48AA-9373-694D24C960D8";
name = Regular;
paths = (
{
closed = 1;
nodes = (
"603 285 LINE",
"621 285 OFFCURVE",
"640 286 OFFCURVE",
"658 286 CURVE SMOOTH",
"726 286 OFFCURVE",
"795 284 OFFCURVE",
"831 282 CURVE SMOOTH",
"862 280 OFFCURVE",
"892 333 OFFCURVE",
"892 368 CURVE SMOOTH",
"892 379 OFFCURVE",
"889 390 OFFCURVE",
"877 391 CURVE SMOOTH",
"869 392 OFFCURVE",
"846 393 OFFCURVE",
"806 393 CURVE SMOOTH",
"742 393 OFFCURVE",
"675 389 OFFCURVE",
"613 384 CURVE"
);
},
{
closed = 1;
nodes = (
"912 146 OFFCURVE",
"900 138 OFFCURVE",
"876 128 CURVE SMOOTH",
"831 110 OFFCURVE",
"788 103 OFFCURVE",
"742 103 CURVE SMOOTH",
"654 103 OFFCURVE",
"617 129 OFFCURVE",
"617 206 CURVE SMOOTH",
"617 269 OFFCURVE",
"642 350 OFFCURVE",
"650 500 CURVE SMOOTH",
"651 520 OFFCURVE",
"652 566 OFFCURVE",
"651 580 CURVE",
"545 544 LINE",
"552 509 OFFCURVE",
"555 468 OFFCURVE",
"555 420 CURVE SMOOTH",
"555 291 OFFCURVE",
"527 213 OFFCURVE",
"527 138 CURVE SMOOTH",
"527 14 OFFCURVE",
"600 -14 OFFCURVE",
"721 -14 CURVE SMOOTH",
"783 -14 OFFCURVE",
"847 -4 OFFCURVE",
"891 17 CURVE SMOOTH",
"927 35 OFFCURVE",
"953 63 OFFCURVE",
"953 95 CURVE SMOOTH",
"953 121 OFFCURVE",
"936 146 OFFCURVE",
"920 146 CURVE SMOOTH"
);
},
{
closed = 1;
nodes = (
"915 669 OFFCURVE",
"888 670 OFFCURVE",
"817 670 CURVE SMOOTH",
"744 670 OFFCURVE",
"682 663 OFFCURVE",
"631 657 CURVE SMOOTH",
"610 654 OFFCURVE",
"590 647 OFFCURVE",
"577 628 CURVE SMOOTH",
"563 608 OFFCURVE",
"560 577 OFFCURVE",
"559 527 CURVE",
"590 545 LINE",
"645 554 OFFCURVE",
"719 556 OFFCURVE",
"752 556 CURVE SMOOTH",
"811 556 OFFCURVE",
"857 551 OFFCURVE",
"881 551 CURVE SMOOTH",
"907 551 OFFCURVE",
"920 557 OFFCURVE",
"936 579 CURVE SMOOTH",
"948 595 OFFCURVE",
"958 613 OFFCURVE",
"958 636 CURVE SMOOTH",
"958 655 OFFCURVE",
"950 663 OFFCURVE",
"931 666 CURVE SMOOTH"
);
}
);
width = 993;
}
);
leftKerningGroup = O;
leftMetricsKey = O;
rightMetricsKey = E;
unicode = 0152;
},
{
color = 3;
glyphname = P;
lastChange = "2015-12-24 10:46:09 +0000";
layers = (
{
anchors = (
{
name = bottom;
position = "{271, 0}";
},
{
name = top;
position = "{271, 670}";
}
);
layerId = "59118767-2CA9-48AA-9373-694D24C960D8";
name = Regular;
paths = (
{
closed = 1;
nodes = (
"386 229 OFFCURVE",
"520 333 OFFCURVE",
"520 479 CURVE SMOOTH",
"520 597 OFFCURVE",
"431 674 OFFCURVE",
"297 674 CURVE SMOOTH",
"229 674 OFFCURVE",
"159 654 OFFCURVE",
"110 628 CURVE SMOOTH",
"60 602 OFFCURVE",
"45 576 OFFCURVE",
"45 534 CURVE SMOOTH",
"45 513 OFFCURVE",
"49 500 OFFCURVE",
"63 500 CURVE SMOOTH",
"74 500 OFFCURVE",
"94 512 OFFCURVE",
"108 516 CURVE",
"165 538 OFFCURVE",
"229 557 OFFCURVE",
"286 557 CURVE SMOOTH",
"370 557 OFFCURVE",
"428 515 OFFCURVE",
"428 444 CURVE SMOOTH",
"428 375 OFFCURVE",
"375 328 OFFCURVE",
"301 328 CURVE SMOOTH",
"282 328 OFFCURVE",
"261 331 OFFCURVE",
"239 336 CURVE SMOOTH",
"228 338 OFFCURVE",
"221 335 OFFCURVE",
"218 324 CURVE SMOOTH",
"215 313 OFFCURVE",
"214 299 OFFCURVE",
"214 289 CURVE SMOOTH",
"214 253 OFFCURVE",
"228 229 OFFCURVE",
"279 229 CURVE SMOOTH"
);
},
{
closed = 1;
nodes = (
"193 608 OFFCURVE",
"68 589 OFFCURVE",
"81 550 CURVE SMOOTH",
"92 515 OFFCURVE",
"95 461 OFFCURVE",
"95 418 CURVE SMOOTH",
"95 274 OFFCURVE",
"61 131 OFFCURVE",
"61 61 CURVE SMOOTH",
"61 -4 OFFCURVE",
"91 -10 OFFCURVE",
"117 -10 CURVE SMOOTH",
"172 -10 OFFCURVE",
"210 19 OFFCURVE",
"210 50 CURVE SMOOTH",
"210 61 OFFCURVE",
"205 72 OFFCURVE",
"196 81 CURVE SMOOTH",
"168 107 OFFCURVE",
"161 144 OFFCURVE",
"161 193 CURVE SMOOTH",
"161 301 OFFCURVE",
"193 473 OFFCURVE",
"193 570 CURVE SMOOTH"
);
}
);
width = 539;
}
);
leftKerningGroup = B;
leftMetricsKey = D;
rightKerningGroup = P;
unicode = 0050;
},
{
glyphname = Thorn;
lastChange = "2015-12-24 10:46:09 +0000";
layers = (
{
components = (
{
disableAlignment = 1;
name = I;
transform = "{1, 0, 0, 1, -7, 0}";
}
);
layerId = "59118767-2CA9-48AA-9373-694D24C960D8";
name = Regular;
paths = (
{
closed = 1;
nodes = (
"110 400 LINE",
"156 416 OFFCURVE",
"206 427 OFFCURVE",
"251 427 CURVE SMOOTH",
"331 427 OFFCURVE",
"381 390 OFFCURVE",
"381 327 CURVE SMOOTH",
"381 267 OFFCURVE",
"336 225 OFFCURVE",
"265 225 CURVE SMOOTH",
"247 225 OFFCURVE",
"228 228 OFFCURVE",
"207 233 CURVE SMOOTH",
"196 234 OFFCURVE",
"190 232 OFFCURVE",
"187 221 CURVE SMOOTH",
"184 212 OFFCURVE",
"183 197 OFFCURVE",
"183 187 CURVE SMOOTH",
"183 155 OFFCURVE",
"196 133 OFFCURVE",
"245 133 CURVE SMOOTH",
"346 133 OFFCURVE",
"468 227 OFFCURVE",
"468 360 CURVE SMOOTH",
"468 466 OFFCURVE",
"389 536 OFFCURVE",
"262 536 CURVE SMOOTH",
"209 536 OFFCURVE",
"154 524 OFFCURVE",
"110 506 CURVE"
);
}
);
width = 491;
}
);
leftKerningGroup = B;
leftMetricsKey = H;
rightKerningGroup = Thorn;
unicode = 00DE;
},
{
color = 3;
glyphname = Q;
lastChange = "2015-12-24 10:46:09 +0000";
layers = (
{
anchors = (
{
name = bottom;
position = "{329, 0}";
},
{
name = top;
position = "{329, 670}";
}
);
guideLines = (
{
position = "{540, -183}";
}
);
layerId = "59118767-2CA9-48AA-9373-694D24C960D8";
name = Regular;
paths = (
{
closed = 1;
nodes = (
"141 477 OFFCURVE",
"213 557 OFFCURVE",
"327 557 CURVE SMOOTH",
"435 557 OFFCURVE",
"530 486 OFFCURVE",
"533 346 CURVE SMOOTH",
"535 201 OFFCURVE",
"435 103 OFFCURVE",
"310 103 CURVE SMOOTH",
"207 103 OFFCURVE",
"129 159 OFFCURVE",
"128 227 CURVE SMOOTH",
"127 265 OFFCURVE",
"149 295 OFFCURVE",
"169 295 CURVE SMOOTH",
"176 295 OFFCURVE",
"180 292 OFFCURVE",
"185 282 CURVE SMOOTH",
"222 200 OFFCURVE",
"250 141 OFFCURVE",
"330 52 CURVE",
"412 88 LINE",
"343 169 OFFCURVE",
"291 249 OFFCURVE",
"253 330 CURVE SMOOTH",
"234 371 OFFCURVE",
"224 391 OFFCURVE",
"195 391 CURVE SMOOTH",
"167 391 OFFCURVE",
"135 373 OFFCURVE",
"103 339 CURVE SMOOTH",
"64 297 OFFCURVE",
"45 251 OFFCURVE",
"46 194 CURVE SMOOTH",
"49 71 OFFCURVE",
"145 -14 OFFCURVE",
"278 -14 CURVE SMOOTH",
"323 -14 OFFCURVE",
"369 -4 OFFCURVE",
"409 15 CURVE SMOOTH",
"533 73 OFFCURVE",
"614 203 OFFCURVE",
"611 375 CURVE SMOOTH",
"608 559 OFFCURVE",
"508 674 OFFCURVE",
"338 674 CURVE SMOOTH",
"169 674 OFFCURVE",
"52 553 OFFCURVE",
"54 458 CURVE SMOOTH",
"54 433 OFFCURVE",
"60 415 OFFCURVE",
"81 415 CURVE SMOOTH",
"88 415 OFFCURVE",
"99 417 OFFCURVE",
"105 425 CURVE SMOOTH"
);
},
{
closed = 1;
nodes = (
"694 -66 OFFCURVE",
"660 -66 CURVE SMOOTH",
"574 -66 OFFCURVE",
"474 -6 OFFCURVE",
"425 60 CURVE SMOOTH",
"389 108 LINE",
"346 5 LINE",
"410 -78 OFFCURVE",
"510 -183 OFFCURVE",
"633 -183 CURVE SMOOTH",
"699 -183 OFFCURVE",
"753 -158 OFFCURVE",
"753 -98 CURVE SMOOTH",
"753 -78 OFFCURVE",
"747 -53 OFFCURVE",
"735 -53 CURVE SMOOTH",
"729 -53 OFFCURVE"
);
}
);
width = 657;
}
);
leftKerningGroup = O;
rightKerningGroup = Q;
unicode = 0051;
},
{
color = 3;
glyphname = R;
lastChange = "2015-12-24 10:46:09 +0000";
layers = (
{
anchors = (
{
name = bottom;
position = "{289, 0}";
},
{
name = top;
position = "{289, 660}";
}
);
guideLines = (
{
position = "{359, 109}";
}
);
layerId = "59118767-2CA9-48AA-9373-694D24C960D8";
name = Regular;
paths = (
{
closed = 1;
nodes = (
"542 105 OFFCURVE",
"531 103 OFFCURVE",
"518 103 CURVE SMOOTH",
"476 103 OFFCURVE",
"436 124 OFFCURVE",
"397 165 CURVE SMOOTH",
"364 200 OFFCURVE",
"328 251 OFFCURVE",
"304 295 CURVE",
"305 262 LINE",
"401 270 OFFCURVE",
"514 359 OFFCURVE",
"514 486 CURVE SMOOTH",
"514 602 OFFCURVE",
"422 674 OFFCURVE",
"293 674 CURVE SMOOTH",
"234 674 OFFCURVE",
"167 659 OFFCURVE",
"109 628 CURVE SMOOTH",
"66 605 OFFCURVE",
"45 582 OFFCURVE",
"45 538 CURVE SMOOTH",
"45 518 OFFCURVE",
"49 501 OFFCURVE",
"63 501 CURVE SMOOTH",
"74 501 OFFCURVE",
"93 512 OFFCURVE",
"107 516 CURVE",
"162 538 OFFCURVE",
"228 558 OFFCURVE",
"287 558 CURVE SMOOTH",
"362 558 OFFCURVE",
"422 528 OFFCURVE",
"422 458 CURVE SMOOTH",
"422 394 OFFCURVE",
"371 350 OFFCURVE",
"298 350 CURVE SMOOTH",
"258 350 OFFCURVE",
"241 346 OFFCURVE",
"230 335 CURVE SMOOTH",
"222 327 OFFCURVE",
"219 317 OFFCURVE",
"219 306 CURVE SMOOTH",
"219 292 OFFCURVE",
"223 277 OFFCURVE",
"229 263 CURVE SMOOTH",
"274 157 OFFCURVE",
"362 -9 OFFCURVE",
"472 -9 CURVE SMOOTH",
"540 -9 OFFCURVE",
"562 39 OFFCURVE",
"562 78 CURVE SMOOTH",
"562 100 OFFCURVE",
"555 105 OFFCURVE",
"546 105 CURVE SMOOTH"
);
},
{
closed = 1;
nodes = (
"193 584 OFFCURVE",
"175 591 OFFCURVE",
"153 591 CURVE SMOOTH",
"118 591 OFFCURVE",
"73 574 OFFCURVE",
"81 550 CURVE SMOOTH",
"92 515 OFFCURVE",
"95 461 OFFCURVE",
"95 418 CURVE SMOOTH",
"95 274 OFFCURVE",
"61 131 OFFCURVE",
"61 61 CURVE SMOOTH",
"61 -4 OFFCURVE",
"91 -10 OFFCURVE",
"117 -10 CURVE SMOOTH",
"172 -10 OFFCURVE",
"210 19 OFFCURVE",
"210 50 CURVE SMOOTH",
"210 61 OFFCURVE",
"205 72 OFFCURVE",
"196 81 CURVE SMOOTH",
"168 107 OFFCURVE",
"161 144 OFFCURVE",
"161 193 CURVE SMOOTH",
"161 301 OFFCURVE",
"193 473 OFFCURVE",
"193 570 CURVE SMOOTH"
);
}
);
width = 581;
}
);
leftKerningGroup = B;
leftMetricsKey = D;
rightKerningGroup = R;
unicode = 0052;
},
{
color = 3;
glyphname = S;
lastChange = "2015-12-24 10:46:09 +0000";
layers = (
{
guideLines = (
{
position = "{344, 109}";
},
{
position = "{-45, 546}";
}
);
layerId = "59118767-2CA9-48AA-9373-694D24C960D8";
name = Regular;
paths = (
{
closed = 1;
nodes = (
"367 -14 OFFCURVE",
"475 101 OFFCURVE",
"475 228 CURVE SMOOTH",
"475 322 OFFCURVE",
"419 358 OFFCURVE",
"325 383 CURVE SMOOTH",
"186 417 OFFCURVE",
"141 442 OFFCURVE",
"141 486 CURVE SMOOTH",
"141 527 OFFCURVE",
"188 561 OFFCURVE",
"255 561 CURVE SMOOTH",
"292 561 OFFCURVE",
"344 549 OFFCURVE",
"383 528 CURVE SMOOTH",
"395 522 OFFCURVE",
"402 519 OFFCURVE",
"411 519 CURVE SMOOTH",
"434 519 OFFCURVE",
"477 547 OFFCURVE",
"477 589 CURVE SMOOTH",
"477 642 OFFCURVE",
"402 674 OFFCURVE",
"310 674 CURVE SMOOTH",
"146 674 OFFCURVE",
"47 553 OFFCURVE",
"47 446 CURVE SMOOTH",
"47 340 OFFCURVE",
"145 305 OFFCURVE",
"241 282 CURVE SMOOTH",
"327 261 OFFCURVE",
"378 244 OFFCURVE",
"378 192 CURVE SMOOTH",
"378 136 OFFCURVE",
"321 101 OFFCURVE",
"239 101 CURVE SMOOTH",
"176 101 OFFCURVE",
"118 127 OFFCURVE",
"83 158 CURVE SMOOTH",
"76 164 OFFCURVE",
"67 168 OFFCURVE",
"57 168 CURVE SMOOTH",
"31 168 OFFCURVE",
"15 140 OFFCURVE",
"15 107 CURVE SMOOTH",
"15 34 OFFCURVE",
"101 -14 OFFCURVE",
"204 -14 CURVE SMOOTH"
);
}
);
width = 515;
}
);
leftKerningGroup = S;
rightKerningGroup = S;
unicode = 0053;
},
{
color = 3;
glyphname = T;
lastChange = "2015-12-24 10:46:09 +0000";
layers = (
{
anchors = (
{
name = bottom;
position = "{240, 0}";
},
{
name = center;
position = "{250, 335}";
},
{
name = top;
position = "{270, 660}";
}
);
layerId = "59118767-2CA9-48AA-9373-694D24C960D8";
name = Regular;
paths = (
{
closed = 1;
nodes = (
"473 669 OFFCURVE",
"436 670 OFFCURVE",
"335 670 CURVE SMOOTH",
"242 670 OFFCURVE",
"135 663 OFFCURVE",
"84 657 CURVE SMOOTH",
"63 654 OFFCURVE",
"43 647 OFFCURVE",
"29 627 CURVE SMOOTH",
"16 608 OFFCURVE",
"8 580 OFFCURVE",
"8 557 CURVE SMOOTH",
"8 538 OFFCURVE",
"14 535 OFFCURVE",
"26 535 CURVE SMOOTH",
"43 535 OFFCURVE",
"63 544 OFFCURVE",
"102 550 CURVE SMOOTH",
"144 556 OFFCURVE",
"215 559 OFFCURVE",
"268 559 CURVE SMOOTH",
"357 559 OFFCURVE",
"413 554 OFFCURVE",
"437 554 CURVE SMOOTH",
"463 554 OFFCURVE",
"475 562 OFFCURVE",
"490 579 CURVE SMOOTH",
"506 598 OFFCURVE",
"515 615 OFFCURVE",
"515 635 CURVE SMOOTH",
"515 654 OFFCURVE",
"508 663 OFFCURVE",
"489 666 CURVE SMOOTH"
);
},
{
closed = 1;
nodes = (
"292 107 OFFCURVE",
"285 144 OFFCURVE",
"285 193 CURVE SMOOTH",
"285 301 OFFCURVE",
"317 473 OFFCURVE",
"317 570 CURVE SMOOTH",
"317 613 OFFCURVE",
"311 650 OFFCURVE",
"263 650 CURVE SMOOTH",
"226 650 OFFCURVE",
"176 637 OFFCURVE",
"176 611 CURVE SMOOTH",
"176 596 OFFCURVE",
"193 587 OFFCURVE",
"204 550 CURVE SMOOTH",
"216 515 OFFCURVE",
"219 461 OFFCURVE",
"219 418 CURVE SMOOTH",
"219 274 OFFCURVE",
"185 131 OFFCURVE",
"185 61 CURVE SMOOTH",
"185 -4 OFFCURVE",
"215 -10 OFFCURVE",
"241 -10 CURVE SMOOTH",
"296 -10 OFFCURVE",
"334 19 OFFCURVE",
"334 50 CURVE SMOOTH",
"334 61 OFFCURVE",
"329 72 OFFCURVE",
"320 81 CURVE SMOOTH"
);
}
);
width = 510;
}
);
leftKerningGroup = T;
rightKerningGroup = T;
unicode = 0054;
},
{
color = 3;
glyphname = U;
lastChange = "2015-12-24 10:46:09 +0000";
layers = (
{
anchors = (
{
name = bottom;
position = "{324, 0}";
},
{
name = ogonek;
position = "{409, 10}";
},
{
name = top;
position = "{334, 660}";
},
{
name = topright;
position = "{637, 670}";
}
);
layerId = "59118767-2CA9-48AA-9373-694D24C960D8";
name = Regular;
paths = (
{
closed = 1;
nodes = (
"605 628 OFFCURVE",
"593 670 OFFCURVE",
"550 670 CURVE SMOOTH",
"512 670 OFFCURVE",
"469 640 OFFCURVE",
"468 611 CURVE SMOOTH",
"467 591 OFFCURVE",
"485 578 OFFCURVE",
"497 534 CURVE SMOOTH",
"517 459 OFFCURVE",
"514 328 OFFCURVE",
"496 252 CURVE SMOOTH",
"475 163 OFFCURVE",
"425 103 OFFCURVE",
"319 103 CURVE SMOOTH",
"223 103 OFFCURVE",
"150 151 OFFCURVE",
"156 283 CURVE SMOOTH",
"160 388 OFFCURVE",
"177 491 OFFCURVE",
"178 562 CURVE SMOOTH",
"178 612 OFFCURVE",
"175 670 OFFCURVE",
"125 670 CURVE SMOOTH",
"87 670 OFFCURVE",
"35 637 OFFCURVE",
"34 611 CURVE",
"34 595 OFFCURVE",
"52 586 OFFCURVE",
"64 545 CURVE SMOOTH",
"76 507 OFFCURVE",
"79 458 OFFCURVE",
"79 394 CURVE SMOOTH",
"79 346 OFFCURVE",
"70 280 OFFCURVE",
"70 226 CURVE SMOOTH",
"70 60 OFFCURVE",
"142 -14 OFFCURVE",
"287 -14 CURVE SMOOTH",
"452 -14 OFFCURVE",
"534 87 OFFCURVE",
"569 253 CURVE SMOOTH",
"582 319 OFFCURVE",
"607 523 OFFCURVE",
"606 580 CURVE SMOOTH"
);
}
);
width = 648;
}
);
leftKerningGroup = U;
rightKerningGroup = U;
unicode = 0055;
},
{
color = 3;
glyphname = V;
lastChange = "2015-12-24 10:46:09 +0000";
layers = (
{
anchors = (
{
name = bottom;
position = "{315, 0}";
},
{
name = top;
position = "{315, 670}";
}
);
layerId = "59118767-2CA9-48AA-9373-694D24C960D8";
name = Regular;
paths = (
{
closed = 1;
nodes = (
"513 672 OFFCURVE",
"460 642 OFFCURVE",
"460 611 CURVE SMOOTH",
"460 588 OFFCURVE",
"489 562 OFFCURVE",
"489 467 CURVE SMOOTH",
"489 281 OFFCURVE",
"383 111 OFFCURVE",
"284 111 CURVE SMOOTH",
"260 111 OFFCURVE",
"252 122 OFFCURVE",
"251 160 CURVE SMOOTH",
"248 291 OFFCURVE",
"228 441 OFFCURVE",
"181 555 CURVE SMOOTH",
"153 627 OFFCURVE",
"120 670 OFFCURVE",
"72 670 CURVE SMOOTH",
"30 670 OFFCURVE",
"-6 635 OFFCURVE",
"-6 605 CURVE SMOOTH",
"-6 576 OFFCURVE",
"30 572 OFFCURVE",
"71 508 CURVE SMOOTH",
"101 460 OFFCURVE",
"125 399 OFFCURVE",
"142 325 CURVE SMOOTH",
"159 254 OFFCURVE",
"170 171 OFFCURVE",
"173 89 CURVE SMOOTH",
"177 10 OFFCURVE",
"202 -17 OFFCURVE",
"250 -17 CURVE SMOOTH",
"443 -17 OFFCURVE",
"590 333 OFFCURVE",
"590 572 CURVE SMOOTH",
"590 619 OFFCURVE",
"584 672 OFFCURVE",
"544 672 CURVE SMOOTH"
);
}
);
width = 643;
}
);
leftKerningGroup = V;
note = V;
rightKerningGroup = V;
unicode = 0056;
},
{
color = 3;
glyphname = W;
lastChange = "2015-12-24 10:46:09 +0000";
layers = (
{
anchors = (
{
name = bottom;
position = "{478, 0}";
},
{
name = top;
position = "{478, 670}";
}
);
layerId = "59118767-2CA9-48AA-9373-694D24C960D8";
name = Regular;
paths = (
{
closed = 1;
nodes = (
"814 675 OFFCURVE",
"761 643 OFFCURVE",
"761 612 CURVE SMOOTH",
"761 588 OFFCURVE",
"795 562 OFFCURVE",
"795 451 CURVE SMOOTH",
"795 271 OFFCURVE",
"700 112 OFFCURVE",
"599 112 CURVE SMOOTH",
"575 112 OFFCURVE",
"571 122 OFFCURVE",
"571 157 CURVE SMOOTH",
"571 283 OFFCURVE",
"562 400 OFFCURVE",
"539 492 CURVE SMOOTH",
"522 564 OFFCURVE",
"498 622 OFFCURVE",
"463 622 CURVE SMOOTH",
"433 622 OFFCURVE",
"383 579 OFFCURVE",
"389 546 CURVE SMOOTH",
"391 532 OFFCURVE",
"414 518 OFFCURVE",
"434 480 CURVE SMOOTH",
"449 452 OFFCURVE",
"465 408 OFFCURVE",
"464 357 CURVE SMOOTH",
"460 236 OFFCURVE",
"365 111 OFFCURVE",
"272 111 CURVE SMOOTH",
"251 111 OFFCURVE",
"244 118 OFFCURVE",
"244 149 CURVE SMOOTH",
"244 280 OFFCURVE",
"231 432 OFFCURVE",
"188 548 CURVE SMOOTH",
"162 623 OFFCURVE",
"129 667 OFFCURVE",
"80 667 CURVE SMOOTH",
"39 667 OFFCURVE",
"3 633 OFFCURVE",
"3 604 CURVE SMOOTH",
"3 576 OFFCURVE",
"38 570 OFFCURVE",
"76 505 CURVE SMOOTH",
"105 457 OFFCURVE",
"126 394 OFFCURVE",
"141 320 CURVE SMOOTH",
"155 248 OFFCURVE",
"161 165 OFFCURVE",
"164 83 CURVE SMOOTH",
"167 6 OFFCURVE",
"192 -15 OFFCURVE",
"240 -15 CURVE SMOOTH",
"343 -15 OFFCURVE",
"455 84 OFFCURVE",
"517 269 CURVE",
"489 249 LINE",
"494 219 OFFCURVE",
"490 176 OFFCURVE",
"490 120 CURVE SMOOTH",
"490 38 OFFCURVE",
"498 -15 OFFCURVE",
"573 -15 CURVE SMOOTH",
"760 -15 OFFCURVE",
"892 317 OFFCURVE",
"892 555 CURVE SMOOTH",
"892 605 OFFCURVE",
"889 675 OFFCURVE",
"844 675 CURVE SMOOTH"
);
}
);
width = 936;
}
);
leftKerningGroup = V;
rightKerningGroup = V;
unicode = 0057;
},
{
color = 3;
glyphname = X;
lastChange = "2015-12-24 10:46:09 +0000";
layers = (
{
anchors = (
{
name = bottom;
position = "{330, 0}";
},
{
name = top;
position = "{330, 670}";
}
);
guideLines = (
{
position = "{311, 109}";
},
{
position = "{365, 553}";
}
);
layerId = "59118767-2CA9-48AA-9373-694D24C960D8";
name = Regular;
paths = (
{
closed = 1;
nodes = (
"350 104 OFFCURVE",
"389 -10 OFFCURVE",
"511 -10 CURVE SMOOTH",
"585 -10 OFFCURVE",
"619 40 OFFCURVE",
"619 79 CURVE SMOOTH",
"619 100 OFFCURVE",
"609 110 OFFCURVE",
"596 110 CURVE SMOOTH",
"589 110 OFFCURVE",
"568 104 OFFCURVE",
"550 104 CURVE SMOOTH",
"446 104 OFFCURVE",
"391 281 OFFCURVE",
"358 373 CURVE",
"300 275 LINE"
);
},
{
closed = 1;
nodes = (
"304 249 OFFCURVE",
"320 234 OFFCURVE",
"342 234 CURVE SMOOTH",
"368 234 OFFCURVE",
"383 258 OFFCURVE",
"379 271 CURVE",
"360 350 LINE",
"306 577 OFFCURVE",
"248 670 OFFCURVE",
"139 670 CURVE SMOOTH",
"75 670 OFFCURVE",
"39 638 OFFCURVE",
"39 600 CURVE SMOOTH",
"39 573 OFFCURVE",
"56 552 OFFCURVE",
"69 552 CURVE SMOOTH",
"76 552 OFFCURVE",
"92 557 OFFCURVE",
"110 557 CURVE SMOOTH",
"216 557 OFFCURVE",
"265 379 OFFCURVE",
"300 256 CURVE"
);
},
{
closed = 1;
nodes = (
"29 149 OFFCURVE",
"-4 115 OFFCURVE",
"-4 70 CURVE SMOOTH",
"-4 20 OFFCURVE",
"36 -10 OFFCURVE",
"90 -10 CURVE SMOOTH",
"204 -10 OFFCURVE",
"269 120 OFFCURVE",
"329 283 CURVE",
"297 366 LINE",
"245 235 OFFCURVE",
"190 103 OFFCURVE",
"126 103 CURVE SMOOTH",
"107 103 OFFCURVE",
"90 114 OFFCURVE",
"82 129 CURVE SMOOTH",
"77 139 OFFCURVE",
"71 149 OFFCURVE",
"56 149 CURVE SMOOTH"
);
},
{
closed = 1;
nodes = (
"429 487 OFFCURVE",
"487 558 OFFCURVE",
"547 558 CURVE SMOOTH",
"575 558 OFFCURVE",
"594 542 OFFCURVE",
"611 541 CURVE SMOOTH",
"635 540 OFFCURVE",
"663 574 OFFCURVE",
"663 616 CURVE SMOOTH",
"663 647 OFFCURVE",
"648 670 OFFCURVE",
"597 670 CURVE SMOOTH",
"464 670 OFFCURVE",
"372 511 OFFCURVE",
"329 384 CURVE",
"367 323 LINE"
);
}
);
width = 652;
}
);
leftKerningGroup = X;
rightKerningGroup = X;
unicode = 0058;
},
{
color = 3;
glyphname = Y;
lastChange = "2015-12-24 10:46:09 +0000";
layers = (
{
anchors = (
{
name = bottom;
position = "{298, 0}";
},
{
name = top;
position = "{314, 660}";
},
{
name = topleft;
position = "{26, 670}";
}
);
guideLines = (
{
position = "{33, 372}";
}
);
layerId = "59118767-2CA9-48AA-9373-694D24C960D8";
name = Regular;
paths = (
{
closed = 1;
nodes = (
"253 199 OFFCURVE",
"272 184 OFFCURVE",
"293 184 CURVE SMOOTH",
"303 184 OFFCURVE",
"313 192 OFFCURVE",
"313 206 CURVE SMOOTH",
"313 218 OFFCURVE",
"309 236 OFFCURVE",
"303 257 CURVE",
"273 572 OFFCURVE",
"196 670 OFFCURVE",
"97 670 CURVE SMOOTH",
"50 670 OFFCURVE",
"21 634 OFFCURVE",
"21 596 CURVE SMOOTH",
"21 566 OFFCURVE",
"39 542 OFFCURVE",
"50 542 CURVE SMOOTH",
"56 542 OFFCURVE",
"65 546 OFFCURVE",
"79 546 CURVE SMOOTH",
"130 546 OFFCURVE",
"167 489 OFFCURVE",
"194 416 CURVE SMOOTH",
"220 348 OFFCURVE",
"237 268 OFFCURVE",
"250 206 CURVE"
);
},
{
closed = 1;
nodes = (
"425 671 OFFCURVE",
"326 456 OFFCURVE",
"279 331 CURVE",
"247 259 LINE",
"221 174 OFFCURVE",
"208 98 OFFCURVE",
"208 59 CURVE SMOOTH",
"208 11 OFFCURVE",
"229 -4 OFFCURVE",
"273 -4 CURVE SMOOTH",
"324 -4 OFFCURVE",
"362 20 OFFCURVE",
"362 51 CURVE SMOOTH",
"362 61 OFFCURVE",
"358 71 OFFCURVE",
"351 80 CURVE",
"330 103 OFFCURVE",
"324 133 OFFCURVE",
"324 163 CURVE SMOOTH",
"324 226 OFFCURVE",
"338 292 OFFCURVE",
"364 358 CURVE SMOOTH",
"415 486 OFFCURVE",
"470 546 OFFCURVE",
"515 546 CURVE SMOOTH",
"533 546 OFFCURVE",
"544 537 OFFCURVE",
"557 537 CURVE SMOOTH",
"583 537 OFFCURVE",
"606 585 OFFCURVE",
"606 619 CURVE SMOOTH",
"606 650 OFFCURVE",
"586 670 OFFCURVE",
"548 670 CURVE SMOOTH"
);
}
);
width = 588;
}
);
leftKerningGroup = Y;
rightKerningGroup = Y;
unicode = 0059;
},
{
color = 3;
glyphname = Z;
lastChange = "2015-12-24 10:46:09 +0000";
layers = (
{
anchors = (
{
name = bottom;
position = "{288, 0}";
},
{
name = top;
position = "{292, 660}";
}
);
layerId = "59118767-2CA9-48AA-9373-694D24C960D8";
name = Regular;
paths = (
{
closed = 1;
nodes = (
"491 156 OFFCURVE",
"473 140 OFFCURVE",
"442 127 CURVE SMOOTH",
"412 117 OFFCURVE",
"361 107 OFFCURVE",
"293 107 CURVE SMOOTH",
"234 107 OFFCURVE",
"195 110 OFFCURVE",
"170 114 CURVE SMOOTH",
"157 116 OFFCURVE",
"150 122 OFFCURVE",
"150 130 CURVE SMOOTH",
"150 135 OFFCURVE",
"153 141 OFFCURVE",
"159 146 CURVE SMOOTH",
"212 195 OFFCURVE",
"290 265 OFFCURVE",
"362 327 CURVE SMOOTH",
"454 407 OFFCURVE",
"554 498 OFFCURVE",
"554 575 CURVE SMOOTH",
"554 670 OFFCURVE",
"412 672 OFFCURVE",
"295 672 CURVE SMOOTH",
"177 672 OFFCURVE",
"38 661 OFFCURVE",
"38 583 CURVE SMOOTH",
"38 547 OFFCURVE",
"69 512 OFFCURVE",
"89 512 CURVE SMOOTH",
"99 512 OFFCURVE",
"100 520 OFFCURVE",
"113 528 CURVE SMOOTH",
"148 551 OFFCURVE",
"227 559 OFFCURVE",
"283 559 CURVE SMOOTH",
"340 559 OFFCURVE",
"384 555 OFFCURVE",
"405 548 CURVE SMOOTH",
"418 544 OFFCURVE",
"426 537 OFFCURVE",
"426 527 CURVE SMOOTH",
"426 520 OFFCURVE",
"422 512 OFFCURVE",
"415 502 CURVE SMOOTH",
"358 431 OFFCURVE",
"136 223 OFFCURVE",
"63 157 CURVE SMOOTH",
"29 126 OFFCURVE",
"11 104 OFFCURVE",
"11 74 CURVE SMOOTH",
"11 -4 OFFCURVE",
"142 -10 OFFCURVE",
"262 -10 CURVE SMOOTH",
"392 -10 OFFCURVE",
"552 2 OFFCURVE",
"552 91 CURVE SMOOTH",
"552 131 OFFCURVE",
"520 156 OFFCURVE",
"505 156 CURVE SMOOTH"
);
}
);
width = 575;
}
);
leftKerningGroup = Z;
rightKerningGroup = Z;
unicode = 005A;
},
{
color = 3;
glyphname = a;
lastChange = "2015-12-24 10:46:09 +0000";
layers = (
{
anchors = (
{
name = bottom;
position = "{258, 0}";
},
{
name = ogonek;
position = "{468, 3}";
},
{
name = top;
position = "{303, 412}";
}
);
layerId = "59118767-2CA9-48AA-9373-694D24C960D8";
name = Regular;
paths = (
{
closed = 1;
nodes = (
"316 -14 OFFCURVE",
"392 158 OFFCURVE",
"396 315 CURVE",
"353 325 LINE",
"350 276 OFFCURVE",
"344 227 OFFCURVE",
"325 186 CURVE SMOOTH",
"301 133 OFFCURVE",
"257 95 OFFCURVE",
"202 95 CURVE SMOOTH",
"149 95 OFFCURVE",
"117 131 OFFCURVE",
"117 187 CURVE SMOOTH",
"117 263 OFFCURVE",
"177 319 OFFCURVE",
"263 319 CURVE SMOOTH",
"309 319 OFFCURVE",
"350 303 OFFCURVE",
"376 288 CURVE",
"407 284 LINE",
"422 280 OFFCURVE",
"438 276 OFFCURVE",
"444 276 CURVE SMOOTH",
"456 276 OFFCURVE",
"464 286 OFFCURVE",
"468 298 CURVE SMOOTH",
"472 310 OFFCURVE",
"475 334 OFFCURVE",
"475 347 CURVE SMOOTH",
"475 396 OFFCURVE",
"407 426 OFFCURVE",
"324 426 CURVE SMOOTH",
"143 426 OFFCURVE",
"30 277 OFFCURVE",
"30 137 CURVE SMOOTH",
"30 40 OFFCURVE",
"85 -14 OFFCURVE",
"169 -14 CURVE SMOOTH"
);
},
{
closed = 1;
nodes = (
"486 -13 OFFCURVE",
"500 40 OFFCURVE",
"500 63 CURVE SMOOTH",
"500 93 OFFCURVE",
"474 78 OFFCURVE",
"448 102 CURVE SMOOTH",
"423 125 OFFCURVE",
"420 162 OFFCURVE",
"420 190 CURVE SMOOTH",
"420 247 OFFCURVE",
"429 291 OFFCURVE",
"441 347 CURVE",
"368 359 LINE",
"360 310 OFFCURVE",
"353 223 OFFCURVE",
"349 161 CURVE",
"345 140 OFFCURVE",
"342 119 OFFCURVE",
"342 98 CURVE SMOOTH",
"342 35 OFFCURVE",
"368 -13 OFFCURVE",
"426 -13 CURVE SMOOTH"
);
}
);
width = 525;
}
);
leftKerningGroup = a;
note = a;
rightKerningGroup = a;
unicode = 0061;
},
{
glyphname = ae;
lastChange = "2015-12-24 10:46:09 +0000";
layers = (
{
layerId = "59118767-2CA9-48AA-9373-694D24C960D8";
name = Regular;
paths = (
{
closed = 1;
nodes = (
"296 -14 OFFCURVE",
"372 158 OFFCURVE",
"376 315 CURVE",
"333 325 LINE",
"330 276 OFFCURVE",
"324 227 OFFCURVE",
"305 186 CURVE SMOOTH",
"281 133 OFFCURVE",
"237 95 OFFCURVE",
"182 95 CURVE SMOOTH",
"129 95 OFFCURVE",
"97 131 OFFCURVE",
"97 187 CURVE SMOOTH",
"97 263 OFFCURVE",
"157 319 OFFCURVE",
"243 319 CURVE SMOOTH",
"289 319 OFFCURVE",
"330 303 OFFCURVE",
"356 288 CURVE",
"408 306 OFFCURVE",
"430 322 OFFCURVE",
"455 347 CURVE",
"455 396 OFFCURVE",
"387 426 OFFCURVE",
"304 426 CURVE SMOOTH",
"123 426 OFFCURVE",
"10 277 OFFCURVE",
"10 137 CURVE SMOOTH",
"10 40 OFFCURVE",
"65 -14 OFFCURVE",
"149 -14 CURVE SMOOTH"
);
},
{
closed = 1;
nodes = (
"438 425 OFFCURVE",
"361 336 OFFCURVE",
"332 229 CURVE SMOOTH",
"326 206 OFFCURVE",
"318 172 OFFCURVE",
"317 158 CURVE SMOOTH",
"312 51 OFFCURVE",
"371 -14 OFFCURVE",
"478 -14 CURVE SMOOTH",
"539 -14 OFFCURVE",
"596 7 OFFCURVE",
"644 53 CURVE SMOOTH",
"667 75 OFFCURVE",
"683 97 OFFCURVE",
"683 114 CURVE SMOOTH",
"683 127 OFFCURVE",
"672 137 OFFCURVE",
"659 137 CURVE SMOOTH",
"649 137 OFFCURVE",
"641 132 OFFCURVE",
"632 125 CURVE SMOOTH",
"602 100 OFFCURVE",
"556 84 OFFCURVE",
"517 84 CURVE SMOOTH",
"445 84 OFFCURVE",
"399 132 OFFCURVE",
"402 200 CURVE SMOOTH",
"405 279 OFFCURVE",
"453 328 OFFCURVE",
"520 328 CURVE SMOOTH",
"559 328 OFFCURVE",
"581 311 OFFCURVE",
"581 286 CURVE SMOOTH",
"581 253 OFFCURVE",
"542 231 OFFCURVE",
"494 231 CURVE SMOOTH",
"460 231 OFFCURVE",
"420 242 OFFCURVE",
"402 256 CURVE SMOOTH",
"387 267 OFFCURVE",
"381 232 OFFCURVE",
"383 209 CURVE",
"400 184 OFFCURVE",
"447 162 OFFCURVE",
"503 162 CURVE SMOOTH",
"597 162 OFFCURVE",
"687 224 OFFCURVE",
"687 312 CURVE SMOOTH",
"687 384 OFFCURVE",
"628 425 OFFCURVE",
"551 425 CURVE SMOOTH"
);
}
);
width = 708;
}
);
leftKerningGroup = a;
leftMetricsKey = "=a-20";
rightKerningGroup = e;
rightMetricsKey = "=e-20";
unicode = 00E6;
},
{
color = 3;
glyphname = b;
lastChange = "2015-12-24 10:48:13 +0000";
layers = (
{
anchors = (
{
name = bottom;
position = "{260, 0}";
},
{
name = top;
position = "{260, 412}";
}
);
guideLines = (
{
position = "{468, 423}";
},
{
position = "{394, 115}";
}
);
layerId = "59118767-2CA9-48AA-9373-694D24C960D8";
name = Regular;
paths = (
{
closed = 1;
nodes = (
"387 -14 OFFCURVE",
"480 128 OFFCURVE",
"480 270 CURVE SMOOTH",
"480 366 OFFCURVE",
"429 426 OFFCURVE",
"345 426 CURVE SMOOTH",
"252 426 OFFCURVE",
"179 352 OFFCURVE",
"142 259 CURVE SMOOTH",
"119 206 OFFCURVE",
"91 132 OFFCURVE",
"91 102 CURVE",
"117 42 OFFCURVE",
"164 -14 OFFCURVE",
"250 -14 CURVE SMOOTH"
);
},
{
closed = 1;
nodes = (
"123 -11 OFFCURVE",
"150 59 OFFCURVE",
"150 87 CURVE",
"139 219 LINE",
"151 274 OFFCURVE",
"173 384 OFFCURVE",
"173 527 CURVE SMOOTH",
"173 647 OFFCURVE",
"158 708 OFFCURVE",
"108 708 CURVE SMOOTH",
"74 708 OFFCURVE",
"36 677 OFFCURVE",
"36 651 CURVE SMOOTH",
"36 629 OFFCURVE",
"61 602 OFFCURVE",
"72 552 CURVE SMOOTH",
"83 504 OFFCURVE",
"86 421 OFFCURVE",
"86 356 CURVE SMOOTH",
"86 240 OFFCURVE",
"70 125 OFFCURVE",
"49 14 CURVE SMOOTH",
"46 -2 OFFCURVE",
"64 -11 OFFCURVE",
"79 -11 CURVE SMOOTH"
);
},
{
closed = 1;
nodes = (
"219 99 OFFCURVE",
"166 128 OFFCURVE",
"129 181 CURVE",
"151 101 LINE",
"165 201 OFFCURVE",
"220 313 OFFCURVE",
"313 313 CURVE SMOOTH",
"364 313 OFFCURVE",
"398 279 OFFCURVE",
"398 223 CURVE SMOOTH",
"398 157 OFFCURVE",
"353 99 OFFCURVE",
"274 99 CURVE SMOOTH"
);
}
);
width = 519;
}
);
leftKerningGroup = b;
leftMetricsKey = h;
note = b;
rightKerningGroup = b;
rightMetricsKey = o;
unicode = 0062;
},
{
color = 3;
glyphname = c;
lastChange = "2015-12-24 10:46:09 +0000";
layers = (
{
anchors = (
{
name = bottom;
position = "{200, -4}";
},
{
name = top;
position = "{255, 412}";
}
);
layerId = "59118767-2CA9-48AA-9373-694D24C960D8";
name = Regular;
paths = (
{
closed = 1;
nodes = (
"34 310 OFFCURVE",
"34 151 CURVE SMOOTH",
"34 48 OFFCURVE",
"92 -14 OFFCURVE",
"190 -14 CURVE SMOOTH",
"248 -14 OFFCURVE",
"310 8 OFFCURVE",
"346 41 CURVE SMOOTH",
"368 60 OFFCURVE",
"380 83 OFFCURVE",
"380 106 CURVE SMOOTH",
"380 123 OFFCURVE",
"373 132 OFFCURVE",
"361 132 CURVE SMOOTH",
"351 132 OFFCURVE",
"343 129 OFFCURVE",
"335 122 CURVE SMOOTH",
"304 101 OFFCURVE",
"261 87 OFFCURVE",
"228 87 CURVE SMOOTH",
"164 87 OFFCURVE",
"122 132 OFFCURVE",
"122 201 CURVE SMOOTH",
"122 276 OFFCURVE",
"169 327 OFFCURVE",
"238 327 CURVE SMOOTH",
"269 327 OFFCURVE",
"287 319 OFFCURVE",
"311 295 CURVE SMOOTH",
"316 290 OFFCURVE",
"322 287 OFFCURVE",
"328 287 CURVE SMOOTH",
"339 287 OFFCURVE",
"362 300 OFFCURVE",
"375 313 CURVE SMOOTH",
"391 328 OFFCURVE",
"400 347 OFFCURVE",
"400 364 CURVE SMOOTH",
"400 402 OFFCURVE",
"358 426 OFFCURVE",
"292 426 CURVE SMOOTH",
"143 426 OFFCURVE"
);
}
);
width = 426;
}
);
leftKerningGroup = c;
leftMetricsKey = o;
note = c;
rightKerningGroup = c;
unicode = 0063;
},
{
color = 3;
glyphname = d;
lastChange = "2015-12-24 10:46:09 +0000";
layers = (
{
anchors = (
{
name = bottom;
position = "{265, 0}";
},
{
name = center;
position = "{265, 206}";
},
{
name = top;
position = "{265, 412}";
},
{
name = topright;
position = "{549, 412}";
}
);
guideLines = (
{
position = "{156, 689}";
},
{
position = "{-11, 419}";
},
{
position = "{306, 251}";
}
);
layerId = "59118767-2CA9-48AA-9373-694D24C960D8";
name = Regular;
paths = (
{
closed = 1;
nodes = (
"430 124 OFFCURVE",
"425 153 OFFCURVE",
"424 178 CURVE",
"427 250 OFFCURVE",
"455 345 OFFCURVE",
"455 521 CURVE SMOOTH",
"455 629 OFFCURVE",
"447 708 OFFCURVE",
"391 708 CURVE SMOOTH",
"358 708 OFFCURVE",
"316 680 OFFCURVE",
"316 650 CURVE SMOOTH",
"316 637 OFFCURVE",
"340 602 OFFCURVE",
"350 551 CURVE SMOOTH",
"359 507 OFFCURVE",
"363 419 OFFCURVE",
"363 371 CURVE",
"366 311 OFFCURVE",
"363 252 OFFCURVE",
"356 192 CURVE",
"351 162 OFFCURVE",
"346 130 OFFCURVE",
"346 98 CURVE SMOOTH",
"346 16 OFFCURVE",
"378 -9 OFFCURVE",
"424 -9 CURVE SMOOTH",
"489 -9 OFFCURVE",
"504 43 OFFCURVE",
"504 66 CURVE SMOOTH",
"504 96 OFFCURVE",
"478 81 OFFCURVE",
"451 105 CURVE SMOOTH"
);
},
{
closed = 1;
nodes = (
"132 426 OFFCURVE",
"34 284 OFFCURVE",
"34 142 CURVE SMOOTH",
"34 46 OFFCURVE",
"85 -14 OFFCURVE",
"169 -14 CURVE SMOOTH",
"262 -14 OFFCURVE",
"332 68 OFFCURVE",
"369 161 CURVE",
"423 310 LINE",
"397 370 OFFCURVE",
"350 426 OFFCURVE",
"264 426 CURVE SMOOTH"
);
},
{
closed = 1;
nodes = (
"295 313 OFFCURVE",
"348 284 OFFCURVE",
"385 231 CURVE",
"369 311 LINE",
"356 260 OFFCURVE",
"337 205 OFFCURVE",
"311 168 CURVE SMOOTH",
"281 124 OFFCURVE",
"240 98 OFFCURVE",
"201 98 CURVE SMOOTH",
"153 98 OFFCURVE",
"116 137 OFFCURVE",
"116 195 CURVE SMOOTH",
"116 261 OFFCURVE",
"164 313 OFFCURVE",
"239 313 CURVE SMOOTH"
);
}
);
width = 532;
}
);
leftKerningGroup = d;
leftMetricsKey = o;
note = d;
rightKerningGroup = d;
rightMetricsKey = l;
unicode = 0064;
},
{
glyphname = eth;
lastChange = "2015-12-24 10:46:09 +0000";
layers = (
{
layerId = "59118767-2CA9-48AA-9373-694D24C960D8";
name = Regular;
paths = (
{
closed = 1;
nodes = (
"320 708 OFFCURVE",
"215 708 CURVE SMOOTH",
"158 708 OFFCURVE",
"149 653 OFFCURVE",
"149 640 CURVE SMOOTH",
"149 626 OFFCURVE",
"160 617 OFFCURVE",
"186 606 CURVE SMOOTH",
"248 580 OFFCURVE",
"349 517 OFFCURVE",
"341 327 CURVE",
"358 369 LINE",
"329 395 OFFCURVE",
"289 416 OFFCURVE",
"238 416 CURVE SMOOTH",
"118 416 OFFCURVE",
"34 298 OFFCURVE",
"34 165 CURVE SMOOTH",
"34 34 OFFCURVE",
"112 -14 OFFCURVE",
"194 -14 CURVE SMOOTH",
"381 -14 OFFCURVE",
"413 213 OFFCURVE",
"413 326 CURVE SMOOTH",
"413 517 OFFCURVE"
);
},
{
closed = 1;
nodes = (
"151 95 OFFCURVE",
"110 134 OFFCURVE",
"110 194 CURVE SMOOTH",
"110 255 OFFCURVE",
"152 308 OFFCURVE",
"226 308 CURVE SMOOTH",
"275 308 OFFCURVE",
"326 285 OFFCURVE",
"366 239 CURVE",
"341 298 LINE",
"333 193 OFFCURVE",
"291 95 OFFCURVE",
"205 95 CURVE SMOOTH"
);
},
{
closed = 1;
nodes = (
"348 631 OFFCURVE",
"327 619 OFFCURVE",
"306 606 CURVE",
"250 574 LINE",
"211 553 OFFCURVE",
"161 528 OFFCURVE",
"150 522 CURVE SMOOTH",
"137 515 OFFCURVE",
"131 506 OFFCURVE",
"131 489 CURVE SMOOTH",
"131 475 OFFCURVE",
"134 452 OFFCURVE",
"153 452 CURVE SMOOTH",
"163 452 OFFCURVE",
"176 457 OFFCURVE",
"195 468 CURVE SMOOTH",
"224 485 OFFCURVE",
"289 520 OFFCURVE",
"316 533 CURVE SMOOTH",
"354 552 OFFCURVE",
"391 569 OFFCURVE",
"407 578 CURVE SMOOTH",
"422 585 OFFCURVE",
"428 598 OFFCURVE",
"428 615 CURVE SMOOTH",
"428 633 OFFCURVE",
"420 653 OFFCURVE",
"401 653 CURVE SMOOTH",
"392 653 OFFCURVE",
"381 649 OFFCURVE",
"368 642 CURVE SMOOTH"
);
}
);
width = 463;
}
);
leftMetricsKey = o;
unicode = 00F0;
},
{
glyphname = dcroat;
lastChange = "2015-12-24 10:46:09 +0000";
layers = (
{
components = (
{
name = d;
}
);
layerId = "59118767-2CA9-48AA-9373-694D24C960D8";
name = Regular;
paths = (
{
closed = 1;
nodes = (
"436 575 OFFCURVE",
"377 569 OFFCURVE",
"308 569 CURVE SMOOTH",
"272 569 OFFCURVE",
"238 572 OFFCURVE",
"224 572 CURVE SMOOTH",
"210 572 OFFCURVE",
"188 555 OFFCURVE",
"188 523 CURVE SMOOTH",
"188 506 OFFCURVE",
"200 503 OFFCURVE",
"229 503 CURVE SMOOTH",
"254 503 OFFCURVE",
"269 505 OFFCURVE",
"329 505 CURVE SMOOTH",
"401 505 OFFCURVE",
"462 500 OFFCURVE",
"494 500 CURVE SMOOTH",
"509 500 OFFCURVE",
"530 516 OFFCURVE",
"530 548 CURVE SMOOTH",
"530 566 OFFCURVE",
"522 575 OFFCURVE",
"491 575 CURVE SMOOTH"
);
}
);
width = 530;
}
);
unicode = 0111;
},
{
color = 3;
glyphname = e;
lastChange = "2015-12-24 10:46:09 +0000";
layers = (
{
anchors = (
{
name = bottom;
position = "{228, 0}";
},
{
name = ogonek;
position = "{325, 24}";
},
{
name = top;
position = "{264, 412}";
}
);
layerId = "59118767-2CA9-48AA-9373-694D24C960D8";
name = Regular;
paths = (
{
closed = 1;
nodes = (
"134 425 OFFCURVE",
"34 296 OFFCURVE",
"34 158 CURVE SMOOTH",
"34 51 OFFCURVE",
"95 -14 OFFCURVE",
"202 -14 CURVE SMOOTH",
"263 -14 OFFCURVE",
"320 7 OFFCURVE",
"368 53 CURVE SMOOTH",
"391 75 OFFCURVE",
"407 97 OFFCURVE",
"407 114 CURVE SMOOTH",
"407 127 OFFCURVE",
"396 137 OFFCURVE",
"383 137 CURVE SMOOTH",
"373 137 OFFCURVE",
"365 132 OFFCURVE",
"356 125 CURVE SMOOTH",
"326 100 OFFCURVE",
"280 84 OFFCURVE",
"240 84 CURVE SMOOTH",
"169 84 OFFCURVE",
"122 132 OFFCURVE",
"125 200 CURVE SMOOTH",
"128 279 OFFCURVE",
"174 328 OFFCURVE",
"243 328 CURVE SMOOTH",
"283 328 OFFCURVE",
"305 311 OFFCURVE",
"305 286 CURVE SMOOTH",
"305 253 OFFCURVE",
"266 231 OFFCURVE",
"218 231 CURVE SMOOTH",
"184 231 OFFCURVE",
"144 242 OFFCURVE",
"126 256 CURVE SMOOTH",
"111 267 OFFCURVE",
"105 232 OFFCURVE",
"107 209 CURVE",
"124 184 OFFCURVE",
"171 162 OFFCURVE",
"227 162 CURVE SMOOTH",
"321 162 OFFCURVE",
"411 224 OFFCURVE",
"411 312 CURVE SMOOTH",
"411 384 OFFCURVE",
"352 425 OFFCURVE",
"274 425 CURVE SMOOTH"
);
}
);
width = 452;
}
);
leftKerningGroup = c;
leftMetricsKey = o;
note = e;
rightKerningGroup = e;
unicode = 0065;
},
{
glyphname = eogonek;
lastChange = "2015-12-24 10:46:09 +0000";
layers = (
{
anchors = (
{
name = _ogonek;
position = "{328.784, 26.448}";
}
);
components = (
{
name = e;
}
);
layerId = "59118767-2CA9-48AA-9373-694D24C960D8";
name = Regular;
paths = (
{
closed = 1;
nodes = (
"137 -52 OFFCURVE",
"137 -142 CURVE SMOOTH",
"137 -199 OFFCURVE",
"173 -244 OFFCURVE",
"237 -244 CURVE SMOOTH",
"289 -244 OFFCURVE",
"342 -215 OFFCURVE",
"363 -170 CURVE SMOOTH",
"368 -159 OFFCURVE",
"370 -150 OFFCURVE",
"370 -142 CURVE SMOOTH",
"370 -130 OFFCURVE",
"365 -114 OFFCURVE",
"349 -114 CURVE SMOOTH",
"342 -114 OFFCURVE",
"335 -117 OFFCURVE",
"330 -121 CURVE SMOOTH",
"318 -131 OFFCURVE",
"294 -144 OFFCURVE",
"272 -144 CURVE SMOOTH",
"253 -144 OFFCURVE",
"233 -134 OFFCURVE",
"233 -107 CURVE SMOOTH",
"233 -86 OFFCURVE",
"245 -58 OFFCURVE",
"265 -35 CURVE SMOOTH",
"286 -10 OFFCURVE",
"309 9 OFFCURVE",
"339 29 CURVE SMOOTH",
"341 30 OFFCURVE",
"342 33 OFFCURVE",
"342 37 CURVE SMOOTH",
"342 49 OFFCURVE",
"333 69 OFFCURVE",
"318 70 CURVE",
"226 23 OFFCURVE"
);
}
);
width = 452;
}
);
leftKerningGroup = c;
rightKerningGroup = e;
unicode = 0119;
},
{
color = 3;
glyphname = f;
lastChange = "2015-12-24 10:46:09 +0000";
layers = (
{
anchors = (
{
name = bottom;
position = "{158, 0}";
},
{
name = top;
position = "{158, 412}";
}
);
layerId = "59118767-2CA9-48AA-9373-694D24C960D8";
name = Regular;
paths = (
{
closed = 1;
nodes = (
"135 -199 OFFCURVE",
"194 -183 OFFCURVE",
"185 -110 CURVE SMOOTH",
"175 -33 OFFCURVE",
"170 40 OFFCURVE",
"170 107 CURVE SMOOTH",
"170 199 OFFCURVE",
"175 280 OFFCURVE",
"181 346 CURVE",
"184 398 LINE",
"198 508 OFFCURVE",
"218 588 OFFCURVE",
"306 589 CURVE SMOOTH",
"321 589 OFFCURVE",
"341 586 OFFCURVE",
"357 581 CURVE SMOOTH",
"372 577 OFFCURVE",
"385 570 OFFCURVE",
"395 570 CURVE SMOOTH",
"413 570 OFFCURVE",
"428 588 OFFCURVE",
"428 614 CURVE SMOOTH",
"428 669 OFFCURVE",
"370 708 OFFCURVE",
"307 708 CURVE SMOOTH",
"250 708 OFFCURVE",
"190 676 OFFCURVE",
"158 623 CURVE SMOOTH",
"117 555 OFFCURVE",
"109 447 OFFCURVE",
"103 336 CURVE SMOOTH",
"97 233 OFFCURVE",
"62 -91 OFFCURVE",
"61 -154 CURVE SMOOTH",
"60 -190 OFFCURVE",
"75 -200 OFFCURVE",
"101 -200 CURVE SMOOTH"
);
},
{
closed = 1;
nodes = (
"82 318 OFFCURVE",
"111 321 OFFCURVE",
"136 321 CURVE",
"139 418 LINE",
"104 413 OFFCURVE",
"71 407 OFFCURVE",
"50 399 CURVE SMOOTH",
"31 392 OFFCURVE",
"27 378 OFFCURVE",
"27 355 CURVE SMOOTH",
"27 328 OFFCURVE",
"38 312 OFFCURVE",
"50 314 CURVE SMOOTH"
);
},
{
closed = 1;
nodes = (
"310 309 OFFCURVE",
"328 359 OFFCURVE",
"328 387 CURVE SMOOTH",
"327 417 OFFCURVE",
"308 425 OFFCURVE",
"277 425 CURVE SMOOTH",
"252 424 OFFCURVE",
"210 422 OFFCURVE",
"178 418 CURVE",
"156 398 OFFCURVE",
"146 322 OFFCURVE",
"171 322 CURVE SMOOTH",
"244 322 OFFCURVE",
"274 309 OFFCURVE",
"289 309 CURVE SMOOTH"
);
}
);
width = 319;
}
);
note = f;
unicode = 0066;
},
{
color = 3;
glyphname = g;
lastChange = "2015-12-24 10:46:09 +0000";
layers = (
{
anchors = (
{
name = bottom;
position = "{232, 0}";
},
{
name = top;
position = "{262, 412}";
}
);
guideLines = (
{
angle = 266.272;
position = "{336, -376}";
}
);
layerId = "59118767-2CA9-48AA-9373-694D24C960D8";
name = Regular;
paths = (
{
closed = 1;
nodes = (
"445 409 OFFCURVE",
"358 426 OFFCURVE",
"288 426 CURVE SMOOTH",
"129 426 OFFCURVE",
"50 329 OFFCURVE",
"50 228 CURVE SMOOTH",
"50 164 OFFCURVE",
"84 110 OFFCURVE",
"152 94 CURVE",
"153 120 LINE",
"92 99 OFFCURVE",
"59 70 OFFCURVE",
"59 28 CURVE SMOOTH",
"59 -6 OFFCURVE",
"81 -27 OFFCURVE",
"127 -43 CURVE SMOOTH",
"200 -70 OFFCURVE",
"351 -57 OFFCURVE",
"351 -121 CURVE SMOOTH",
"351 -165 OFFCURVE",
"279 -181 OFFCURVE",
"221 -181 CURVE SMOOTH",
"158 -181 OFFCURVE",
"107 -162 OFFCURVE",
"107 -124 CURVE SMOOTH",
"107 -111 OFFCURVE",
"113 -99 OFFCURVE",
"113 -89 CURVE SMOOTH",
"113 -80 OFFCURVE",
"106 -76 OFFCURVE",
"91 -76 CURVE SMOOTH",
"40 -76 OFFCURVE",
"5 -122 OFFCURVE",
"5 -172 CURVE SMOOTH",
"5 -241 OFFCURVE",
"71 -288 OFFCURVE",
"175 -288 CURVE SMOOTH",
"312 -288 OFFCURVE",
"430 -212 OFFCURVE",
"430 -94 CURVE SMOOTH",
"430 8 OFFCURVE",
"341 31 OFFCURVE",
"214 43 CURVE SMOOTH",
"192 45 OFFCURVE",
"169 50 OFFCURVE",
"169 65 CURVE SMOOTH",
"169 71 OFFCURVE",
"172 77 OFFCURVE",
"184 81 CURVE SMOOTH",
"192 83 OFFCURVE",
"205 85 OFFCURVE",
"226 88 CURVE SMOOTH",
"332 99 OFFCURVE",
"390 175 OFFCURVE",
"390 257 CURVE SMOOTH",
"390 287 OFFCURVE",
"382 316 OFFCURVE",
"378 331 CURVE",
"357 313 LINE",
"371 311 OFFCURVE",
"404 299 OFFCURVE",
"420 299 CURVE SMOOTH",
"440 299 OFFCURVE",
"445 325 OFFCURVE",
"445 343 CURVE SMOOTH"
);
},
{
closed = 1;
nodes = (
"164 178 OFFCURVE",
"130 203 OFFCURVE",
"130 246 CURVE SMOOTH",
"130 295 OFFCURVE",
"174 324 OFFCURVE",
"248 324 CURVE SMOOTH",
"267 324 OFFCURVE",
"289 322 OFFCURVE",
"310 316 CURVE",
"314 304 OFFCURVE",
"317 288 OFFCURVE",
"317 271 CURVE SMOOTH",
"317 217 OFFCURVE",
"278 178 OFFCURVE",
"215 178 CURVE SMOOTH"
);
}
);
width = 464;
}
);
leftKerningGroup = g;
note = g;
rightKerningGroup = g;
unicode = 0067;
},
{
color = 3;
glyphname = h;
lastChange = "2015-12-24 10:46:09 +0000";
layers = (
{
anchors = (
{
name = bottom;
position = "{269, 0}";
},
{
name = center;
position = "{269, 206}";
},
{
name = top;
position = "{269, 412}";
}
);
guideLines = (
{
position = "{-43, 419}";
}
);
layerId = "59118767-2CA9-48AA-9373-694D24C960D8";
name = Regular;
paths = (
{
closed = 1;
nodes = (
"173 647 OFFCURVE",
"158 708 OFFCURVE",
"108 708 CURVE SMOOTH",
"74 708 OFFCURVE",
"36 677 OFFCURVE",
"36 651 CURVE SMOOTH",
"36 629 OFFCURVE",
"61 602 OFFCURVE",
"72 552 CURVE SMOOTH",
"83 504 OFFCURVE",
"86 421 OFFCURVE",
"86 356 CURVE SMOOTH",
"86 240 OFFCURVE",
"70 125 OFFCURVE",
"49 14 CURVE SMOOTH",
"46 -2 OFFCURVE",
"64 -11 OFFCURVE",
"79 -11 CURVE SMOOTH",
"128 -11 OFFCURVE",
"160 26 OFFCURVE",
"160 77 CURVE SMOOTH",
"160 93 OFFCURVE",
"159 167 OFFCURVE",
"159 210 CURVE",
"139 219 LINE",
"151 274 OFFCURVE",
"173 384 OFFCURVE",
"173 527 CURVE SMOOTH"
);
},
{
closed = 1;
nodes = (
"451 115 OFFCURVE",
"440 132 OFFCURVE",
"440 164 CURVE SMOOTH",
"440 214 OFFCURVE",
"467 254 OFFCURVE",
"467 309 CURVE SMOOTH",
"467 376 OFFCURVE",
"427 426 OFFCURVE",
"354 426 CURVE SMOOTH",
"203 426 OFFCURVE",
"132 216 OFFCURVE",
"101 69 CURVE",
"101 42 OFFCURVE",
"108 32 OFFCURVE",
"118 32 CURVE SMOOTH",
"125 32 OFFCURVE",
"140 39 OFFCURVE",
"144 54 CURVE",
"169 161 OFFCURVE",
"225 310 OFFCURVE",
"325 310 CURVE SMOOTH",
"356 310 OFFCURVE",
"375 296 OFFCURVE",
"375 263 CURVE SMOOTH",
"375 223 OFFCURVE",
"346 155 OFFCURVE",
"346 95 CURVE SMOOTH",
"346 33 OFFCURVE",
"378 -10 OFFCURVE",
"433 -10 CURVE SMOOTH",
"497 -10 OFFCURVE",
"511 46 OFFCURVE",
"511 64 CURVE SMOOTH",
"511 87 OFFCURVE",
"492 78 OFFCURVE",
"466 101 CURVE SMOOTH"
);
}
);
width = 538;
}
);
leftKerningGroup = b;
note = h;
rightKerningGroup = n;
rightMetricsKey = n;
unicode = 0068;
},
{
color = 3;
glyphname = idotless;
lastChange = "2015-12-24 10:46:09 +0000";
layers = (
{
anchors = (
{
name = bottom;
position = "{129, 0}";
},
{
name = ogonek;
position = "{232, 10}";
},
{
name = top;
position = "{124, 412}";
}
);
layerId = "59118767-2CA9-48AA-9373-694D24C960D8";
name = Regular;
paths = (
{
closed = 1;
nodes = (
"171 105 OFFCURVE",
"162 116 OFFCURVE",
"162 142 CURVE SMOOTH",
"162 185 OFFCURVE",
"186 257 OFFCURVE",
"186 333 CURVE SMOOTH",
"186 377 OFFCURVE",
"179 424 OFFCURVE",
"128 424 CURVE SMOOTH",
"79 424 OFFCURVE",
"32 381 OFFCURVE",
"32 352 CURVE SMOOTH",
"32 334 OFFCURVE",
"49 325 OFFCURVE",
"66 317 CURVE SMOOTH",
"90 306 OFFCURVE",
"94 280 OFFCURVE",
"94 255 CURVE SMOOTH",
"94 184 OFFCURVE",
"61 133 OFFCURVE",
"61 67 CURVE SMOOTH",
"61 10 OFFCURVE",
"86 -10 OFFCURVE",
"128 -10 CURVE SMOOTH",
"197 -10 OFFCURVE",
"220 45 OFFCURVE",
"220 62 CURVE SMOOTH",
"220 80 OFFCURVE",
"199 80 OFFCURVE",
"180 97 CURVE SMOOTH"
);
}
);
width = 258;
}
);
leftKerningGroup = i;
rightKerningGroup = i;
unicode = 0131;
},
{
glyphname = iacute;
lastChange = "2015-12-24 10:46:09 +0000";
layers = (
{
anchors = (
{
name = _top;
position = "{124, 412}";
}
);
components = (
{
name = idotless;
}
);
layerId = "59118767-2CA9-48AA-9373-694D24C960D8";
name = Regular;
paths = (
{
closed = 1;
nodes = (
"209 539 OFFCURVE",
"159 508 OFFCURVE",
"109 481 CURVE SMOOTH",
"102 477 OFFCURVE",
"95 475 OFFCURVE",
"89 475 CURVE SMOOTH",
"75 475 OFFCURVE",
"65 484 OFFCURVE",
"65 498 CURVE SMOOTH",
"65 505 OFFCURVE",
"68 514 OFFCURVE",
"73 521 CURVE SMOOTH",
"101 567 OFFCURVE",
"132 614 OFFCURVE",
"165 647 CURVE SMOOTH",
"181 663 OFFCURVE",
"198 671 OFFCURVE",
"213 671 CURVE SMOOTH",
"235 671 OFFCURVE",
"266 647 OFFCURVE",
"266 618 CURVE SMOOTH",
"266 605 OFFCURVE",
"259 588 OFFCURVE",
"245 574 CURVE SMOOTH"
);
}
);
width = 258;
}
);
leftKerningGroup = i;
rightKerningGroup = i;
unicode = 00ED;
},
{
glyphname = icircumflex;
lastChange = "2015-12-24 10:46:09 +0000";
layers = (
{
anchors = (
{
name = _top;
position = "{124, 412}";
}
);
components = (
{
name = idotless;
}
);
layerId = "59118767-2CA9-48AA-9373-694D24C960D8";
name = Regular;
paths = (
{
closed = 1;
nodes = (
"164 668 OFFCURVE",
"149 675 OFFCURVE",
"133 675 CURVE SMOOTH",
"120 675 OFFCURVE",
"104 670 OFFCURVE",
"86 650 CURVE SMOOTH",
"71 633 OFFCURVE",
"25 573 OFFCURVE",
"6 536 CURVE SMOOTH",
"0 524 OFFCURVE",
"-3 513 OFFCURVE",
"-3 504 CURVE SMOOTH",
"-3 491 OFFCURVE",
"5 480 OFFCURVE",
"15 480 CURVE SMOOTH",
"20 480 OFFCURVE",
"25 482 OFFCURVE",
"33 487 CURVE SMOOTH",
"54 501 OFFCURVE",
"111 547 OFFCURVE",
"147 579 CURVE",
"113 580 LINE",
"130 562 OFFCURVE",
"196 501 OFFCURVE",
"216 487 CURVE SMOOTH",
"223 482 OFFCURVE",
"229 481 OFFCURVE",
"233 481 CURVE SMOOTH",
"245 481 OFFCURVE",
"255 493 OFFCURVE",
"255 507 CURVE SMOOTH",
"255 514 OFFCURVE",
"253 524 OFFCURVE",
"248 534 CURVE SMOOTH",
"232 575 OFFCURVE",
"195 632 OFFCURVE",
"179 651 CURVE SMOOTH"
);
}
);
width = 258;
}
);
leftKerningGroup = i;
rightKerningGroup = i;
unicode = 00EE;
},
{
glyphname = igrave;
lastChange = "2015-12-24 10:46:09 +0000";
layers = (
{
anchors = (
{
name = _top;
position = "{124, 412}";
}
);
components = (
{
name = idotless;
}
);
layerId = "59118767-2CA9-48AA-9373-694D24C960D8";
name = Regular;
paths = (
{
closed = 1;
nodes = (
"19 588 OFFCURVE",
"12 605 OFFCURVE",
"12 618 CURVE SMOOTH",
"12 647 OFFCURVE",
"33 671 OFFCURVE",
"63 671 CURVE SMOOTH",
"76 671 OFFCURVE",
"93 667 OFFCURVE",
"113 642 CURVE SMOOTH",
"137 613 OFFCURVE",
"163 567 OFFCURVE",
"186 521 CURVE SMOOTH",
"190 514 OFFCURVE",
"193 505 OFFCURVE",
"193 498 CURVE SMOOTH",
"193 484 OFFCURVE",
"184 475 OFFCURVE",
"171 475 CURVE SMOOTH",
"166 475 OFFCURVE",
"160 477 OFFCURVE",
"154 481 CURVE SMOOTH",
"108 508 OFFCURVE",
"64 539 OFFCURVE",
"32 574 CURVE SMOOTH"
);
}
);
width = 258;
}
);
leftKerningGroup = i;
rightKerningGroup = i;
unicode = 00EC;
},
{
glyphname = imacron;
lastChange = "2015-12-24 10:46:09 +0000";
layers = (
{
anchors = (
{
name = _top;
position = "{124, 412}";
}
);
components = (
{
name = idotless;
}
);
layerId = "59118767-2CA9-48AA-9373-694D24C960D8";
name = Regular;
paths = (
{
closed = 1;
nodes = (
"136 607 OFFCURVE",
"53 603 OFFCURVE",
"28 594 CURVE SMOOTH",
"9 587 OFFCURVE",
"5 567 OFFCURVE",
"5 547 CURVE SMOOTH",
"5 525 OFFCURVE",
"15 511 OFFCURVE",
"27 511 CURVE SMOOTH",
"53 511 OFFCURVE",
"90 515 OFFCURVE",
"118 515 CURVE SMOOTH",
"157 515 OFFCURVE",
"185 511 OFFCURVE",
"214 511 CURVE SMOOTH",
"234 511 OFFCURVE",
"243 545 OFFCURVE",
"243 575 CURVE SMOOTH",
"243 603 OFFCURVE",
"225 607 OFFCURVE",
"194 607 CURVE SMOOTH"
);
}
);
width = 258;
}
);
leftKerningGroup = i;
rightKerningGroup = i;
unicode = 012B;
},
{
glyphname = iogonek;
lastChange = "2015-12-24 10:46:09 +0000";
layers = (
{
anchors = (
{
name = _ogonek;
position = "{202.998, 30.109}";
}
);
components = (
{
name = idotless;
},
{
name = dotaccent;
transform = "{1, 0, 0, 1, -76, 0}";
}
);
layerId = "59118767-2CA9-48AA-9373-694D24C960D8";
name = Regular;
paths = (
{
closed = 1;
nodes = (
"-4 -41 OFFCURVE",
"4 -137 CURVE SMOOTH",
"9 -194 OFFCURVE",
"46 -233 OFFCURVE",
"112 -227 CURVE SMOOTH",
"153 -223 OFFCURVE",
"193 -203 OFFCURVE",
"214 -170 CURVE SMOOTH",
"222 -155 OFFCURVE",
"224 -144 OFFCURVE",
"223 -135 CURVE SMOOTH",
"222 -127 OFFCURVE",
"217 -113 OFFCURVE",
"200 -115 CURVE SMOOTH",
"196 -115 OFFCURVE",
"191 -116 OFFCURVE",
"187 -120 CURVE SMOOTH",
"170 -130 OFFCURVE",
"153 -134 OFFCURVE",
"142 -135 CURVE SMOOTH",
"121 -137 OFFCURVE",
"100 -128 OFFCURVE",
"98 -104 CURVE SMOOTH",
"96 -81 OFFCURVE",
"111 -54 OFFCURVE",
"134 -32 CURVE SMOOTH",
"150 -16 OFFCURVE",
"162 -8 OFFCURVE",
"181 4 CURVE",
"198 24 OFFCURVE",
"204 46 OFFCURVE",
"191 56 CURVE",
"81 21 OFFCURVE"
);
}
);
width = 258;
}
);
leftKerningGroup = i;
rightKerningGroup = i;
unicode = 012F;
},
{
color = 3;
glyphname = jdotless;
lastChange = "2015-12-24 10:46:09 +0000";
layers = (
{
layerId = "59118767-2CA9-48AA-9373-694D24C960D8";
name = Regular;
paths = (
{
closed = 1;
nodes = (
"49 -288 OFFCURVE",
"104 -211 OFFCURVE",
"141 -85 CURVE SMOOTH",
"176 32 OFFCURVE",
"186 167 OFFCURVE",
"189 316 CURVE SMOOTH",
"190 369 OFFCURVE",
"185 422 OFFCURVE",
"126 422 CURVE SMOOTH",
"73 422 OFFCURVE",
"27 380 OFFCURVE",
"26 350 CURVE SMOOTH",
"26 326 OFFCURVE",
"54 324 OFFCURVE",
"69 310 CURVE SMOOTH",
"89 292 OFFCURVE",
"90 241 OFFCURVE",
"90 172 CURVE SMOOTH",
"90 84 OFFCURVE",
"87 11 OFFCURVE",
"70 -77 CURVE SMOOTH",
"59 -130 OFFCURVE",
"39 -168 OFFCURVE",
"-12 -168 CURVE SMOOTH",
"-36 -168 OFFCURVE",
"-51 -160 OFFCURVE",
"-64 -148 CURVE SMOOTH",
"-72 -141 OFFCURVE",
"-78 -138 OFFCURVE",
"-88 -138 CURVE SMOOTH",
"-111 -139 OFFCURVE",
"-138 -163 OFFCURVE",
"-138 -204 CURVE SMOOTH",
"-138 -257 OFFCURVE",
"-92 -288 OFFCURVE",
"-37 -288 CURVE SMOOTH"
);
}
);
width = 256;
}
);
leftKerningGroup = j;
rightKerningGroup = j;
unicode = 0237;
},
{
color = 3;
glyphname = k;
lastChange = "2015-12-24 10:46:09 +0000";
layers = (
{
anchors = (
{
name = bottom;
position = "{245, 0}";
},
{
name = top;
position = "{259, 412}";
}
);
layerId = "59118767-2CA9-48AA-9373-694D24C960D8";
name = Regular;
paths = (
{
closed = 1;
nodes = (
"173 647 OFFCURVE",
"158 708 OFFCURVE",
"108 708 CURVE SMOOTH",
"74 708 OFFCURVE",
"36 677 OFFCURVE",
"36 651 CURVE SMOOTH",
"36 629 OFFCURVE",
"61 602 OFFCURVE",
"72 552 CURVE SMOOTH",
"83 504 OFFCURVE",
"86 421 OFFCURVE",
"86 356 CURVE SMOOTH",
"86 240 OFFCURVE",
"70 125 OFFCURVE",
"49 14 CURVE SMOOTH",
"46 -2 OFFCURVE",
"64 -11 OFFCURVE",
"79 -11 CURVE SMOOTH",
"128 -11 OFFCURVE",
"160 26 OFFCURVE",
"160 77 CURVE SMOOTH",
"160 88 OFFCURVE",
"160 124 OFFCURVE",
"160 160 CURVE SMOOTH",
"160 210 LINE",
"139 219 LINE",
"151 274 OFFCURVE",
"173 384 OFFCURVE",
"173 527 CURVE SMOOTH"
);
},
{
closed = 1;
nodes = (
"147 68 LINE",
"156 114 OFFCURVE",
"174 169 OFFCURVE",
"206 224 CURVE SMOOTH",
"229 263 OFFCURVE",
"275 316 OFFCURVE",
"318 316 CURVE SMOOTH",
"339 316 OFFCURVE",
"350 303 OFFCURVE",
"350 282 CURVE SMOOTH",
"350 244 OFFCURVE",
"313 219 OFFCURVE",
"264 214 CURVE SMOOTH",
"242 212 OFFCURVE",
"231 201 OFFCURVE",
"237 173 CURVE SMOOTH",
"255 87 OFFCURVE",
"294 -14 OFFCURVE",
"392 -14 CURVE SMOOTH",
"464 -14 OFFCURVE",
"477 40 OFFCURVE",
"477 74 CURVE SMOOTH",
"477 95 OFFCURVE",
"472 99 OFFCURVE",
"463 99 CURVE SMOOTH",
"458 99 OFFCURVE",
"451 98 OFFCURVE",
"443 98 CURVE SMOOTH",
"385 98 OFFCURVE",
"349 139 OFFCURVE",
"335 199 CURVE",
"308 165 LINE",
"399 197 OFFCURVE",
"465 253 OFFCURVE",
"465 326 CURVE SMOOTH",
"465 380 OFFCURVE",
"427 425 OFFCURVE",
"362 425 CURVE SMOOTH",
"247 425 OFFCURVE",
"163 286 OFFCURVE",
"128 176 CURVE"
);
}
);
width = 521;
}
);
leftKerningGroup = b;
leftMetricsKey = h;
note = k;
rightKerningGroup = k;
unicode = 006B;
},
{
color = 3;
glyphname = l;
lastChange = "2015-12-24 10:46:09 +0000";
layers = (
{
anchors = (
{
name = bottom;
position = "{118, 0}";
},
{
name = center;
position = "{118, 206}";
},
{
name = top;
position = "{68, 690}";
},
{
name = topright;
position = "{266, 412}";
}
);
layerId = "59118767-2CA9-48AA-9373-694D24C960D8";
name = Regular;
paths = (
{
closed = 1;
nodes = (
"158 106 OFFCURVE",
"144 124 OFFCURVE",
"144 168 CURVE SMOOTH",
"144 241 OFFCURVE",
"175 337 OFFCURVE",
"175 521 CURVE SMOOTH",
"175 629 OFFCURVE",
"167 708 OFFCURVE",
"111 708 CURVE SMOOTH",
"78 708 OFFCURVE",
"36 680 OFFCURVE",
"36 650 CURVE SMOOTH",
"36 637 OFFCURVE",
"60 602 OFFCURVE",
"70 551 CURVE SMOOTH",
"79 507 OFFCURVE",
"83 419 OFFCURVE",
"83 371 CURVE SMOOTH",
"83 263 OFFCURVE",
"57 126 OFFCURVE",
"57 63 CURVE SMOOTH",
"57 9 OFFCURVE",
"76 -10 OFFCURVE",
"117 -10 CURVE SMOOTH",
"188 -10 OFFCURVE",
"209 49 OFFCURVE",
"209 63 CURVE SMOOTH",
"209 80 OFFCURVE",
"188 81 OFFCURVE",
"170 97 CURVE SMOOTH"
);
}
);
width = 237;
}
);
leftKerningGroup = b;
leftMetricsKey = h;
note = l;
rightKerningGroup = d;
unicode = 006C;
},
{
glyphname = ldot;
lastChange = "2015-12-24 10:46:09 +0000";
layers = (
{
components = (
{
name = l;
}
);
layerId = "59118767-2CA9-48AA-9373-694D24C960D8";
name = Regular;
paths = (
{
closed = 1;
nodes = (
"341 238 OFFCURVE",
"369 269 OFFCURVE",
"369 310 CURVE SMOOTH",
"369 349 OFFCURVE",
"346 371 OFFCURVE",
"307 371 CURVE SMOOTH",
"264 371 OFFCURVE",
"235 342 OFFCURVE",
"235 299 CURVE SMOOTH",
"235 260 OFFCURVE",
"258 238 OFFCURVE",
"297 238 CURVE SMOOTH"
);
}
);
width = 365;
}
);
leftKerningGroup = b;
unicode = 0140;
},
{
glyphname = lslash;
lastChange = "2015-12-24 10:46:09 +0000";
layers = (
{
components = (
{
name = l;
transform = "{1, 0, 0, 1, 15, 0}";
}
);
layerId = "59118767-2CA9-48AA-9373-694D24C960D8";
name = Regular;
paths = (
{
closed = 1;
nodes = (
"196 451 OFFCURVE",
"152 418 OFFCURVE",
"119 395 CURVE SMOOTH",
"83 370 OFFCURVE",
"41 344 OFFCURVE",
"31 337 CURVE SMOOTH",
"21 330 OFFCURVE",
"15 321 OFFCURVE",
"15 308 CURVE SMOOTH",
"15 296 OFFCURVE",
"19 267 OFFCURVE",
"39 267 CURVE SMOOTH",
"52 267 OFFCURVE",
"71 280 OFFCURVE",
"103 303 CURVE SMOOTH",
"115 312 OFFCURVE",
"129 322 OFFCURVE",
"145 333 CURVE SMOOTH",
"192 365 OFFCURVE",
"259 404 OFFCURVE",
"281 419 CURVE SMOOTH",
"293 427 OFFCURVE",
"298 438 OFFCURVE",
"298 452 CURVE SMOOTH",
"298 471 OFFCURVE",
"289 494 OFFCURVE",
"270 494 CURVE SMOOTH",
"260 494 OFFCURVE",
"248 488 OFFCURVE",
"235 479 CURVE SMOOTH"
);
}
);
width = 263;
}
);
leftKerningGroup = b;
unicode = 0142;
},
{
color = 3;
glyphname = m;
lastChange = "2015-12-24 10:46:09 +0000";
layers = (
{
anchors = (
{
name = bottom;
position = "{399, 0}";
},
{
name = top;
position = "{426, 412}";
}
);
components = (
{
name = _part.shortStem;
transform = "{1, 0, 0, 1, 11, 0}";
}
);
layerId = "59118767-2CA9-48AA-9373-694D24C960D8";
name = Regular;
paths = (
{
closed = 1;
nodes = (
"409 -11 OFFCURVE",
"430 6 OFFCURVE",
"442 33 CURVE SMOOTH",
"451 53 OFFCURVE",
"454 84 OFFCURVE",
"454 111 CURVE SMOOTH",
"454 151 OFFCURVE",
"451 204 OFFCURVE",
"452 237 CURVE",
"438 240 LINE",
"442 266 OFFCURVE",
"444 289 OFFCURVE",
"444 308 CURVE SMOOTH",
"444 380 OFFCURVE",
"405 425 OFFCURVE",
"343 425 CURVE SMOOTH",
"207 425 OFFCURVE",
"151 213 OFFCURVE",
"126 69 CURVE",
"127 42 OFFCURVE",
"134 33 OFFCURVE",
"143 33 CURVE SMOOTH",
"150 33 OFFCURVE",
"166 39 OFFCURVE",
"169 54 CURVE SMOOTH",
"183 130 OFFCURVE",
"244 308 OFFCURVE",
"325 308 CURVE SMOOTH",
"353 308 OFFCURVE",
"367 286 OFFCURVE",
"367 220 CURVE SMOOTH",
"367 127 OFFCURVE",
"342 16 OFFCURVE",
"342 8 CURVE SMOOTH",
"342 -6 OFFCURVE",
"358 -11 OFFCURVE",
"374 -11 CURVE SMOOTH"
);
},
{
closed = 1;
nodes = (
"712 115 OFFCURVE",
"702 132 OFFCURVE",
"702 164 CURVE SMOOTH",
"702 214 OFFCURVE",
"728 254 OFFCURVE",
"728 309 CURVE SMOOTH",
"728 376 OFFCURVE",
"689 426 OFFCURVE",
"622 426 CURVE SMOOTH",
"475 426 OFFCURVE",
"407 216 OFFCURVE",
"377 69 CURVE",
"377 42 OFFCURVE",
"384 32 OFFCURVE",
"394 32 CURVE SMOOTH",
"400 32 OFFCURVE",
"417 39 OFFCURVE",
"421 54 CURVE",
"445 161 OFFCURVE",
"496 310 OFFCURVE",
"594 310 CURVE SMOOTH",
"620 310 OFFCURVE",
"638 296 OFFCURVE",
"638 263 CURVE SMOOTH",
"638 223 OFFCURVE",
"610 155 OFFCURVE",
"610 95 CURVE SMOOTH",
"610 33 OFFCURVE",
"641 -10 OFFCURVE",
"695 -10 CURVE SMOOTH",
"757 -10 OFFCURVE",
"771 46 OFFCURVE",
"771 64 CURVE SMOOTH",
"771 87 OFFCURVE",
"752 78 OFFCURVE",
"727 101 CURVE SMOOTH"
);
}
);
width = 798;
}
);
leftKerningGroup = n;
leftMetricsKey = n;
note = m;
rightKerningGroup = n;
rightMetricsKey = n;
unicode = 006D;
},
{
color = 3;
glyphname = n;
lastChange = "2015-12-24 10:46:09 +0000";
layers = (
{
anchors = (
{
name = bottom;
position = "{271, 0}";
},
{
name = top;
position = "{288, 412}";
}
);
components = (
{
name = _part.shortStem;
transform = "{1, 0, 0, 1, 11, 0}";
}
);
guideLines = (
{
position = "{465, 423}";
},
{
position = "{204, 54}";
}
);
layerId = "59118767-2CA9-48AA-9373-694D24C960D8";
name = Regular;
paths = (
{
closed = 1;
nodes = (
"471 115 OFFCURVE",
"460 132 OFFCURVE",
"460 164 CURVE SMOOTH",
"460 214 OFFCURVE",
"487 254 OFFCURVE",
"487 309 CURVE SMOOTH",
"487 376 OFFCURVE",
"447 426 OFFCURVE",
"374 426 CURVE SMOOTH",
"223 426 OFFCURVE",
"152 216 OFFCURVE",
"121 69 CURVE",
"121 42 OFFCURVE",
"128 32 OFFCURVE",
"138 32 CURVE SMOOTH",
"145 32 OFFCURVE",
"160 39 OFFCURVE",
"164 54 CURVE",
"189 161 OFFCURVE",
"245 310 OFFCURVE",
"345 310 CURVE SMOOTH",
"376 310 OFFCURVE",
"395 296 OFFCURVE",
"395 263 CURVE SMOOTH",
"395 223 OFFCURVE",
"366 155 OFFCURVE",
"366 95 CURVE SMOOTH",
"366 33 OFFCURVE",
"398 -10 OFFCURVE",
"453 -10 CURVE SMOOTH",
"517 -10 OFFCURVE",
"531 46 OFFCURVE",
"531 64 CURVE SMOOTH",
"531 87 OFFCURVE",
"512 78 OFFCURVE",
"486 101 CURVE SMOOTH"
);
}
);
width = 558;
}
);
leftKerningGroup = n;
note = n;
rightKerningGroup = n;
unicode = 006E;
},
{
color = 3;
glyphname = o;
lastChange = "2015-12-24 10:46:09 +0000";
layers = (
{
anchors = (
{
name = bottom;
position = "{236, 0}";
},
{
name = center;
position = "{236, 206}";
},
{
name = ogonek;
position = "{425, 10}";
},
{
name = top;
position = "{247, 412}";
},
{
name = topright;
position = "{452, 412}";
}
);
guideLines = (
{
position = "{76, 419}";
}
);
layerId = "59118767-2CA9-48AA-9373-694D24C960D8";
leftMetricsKey = "=34";
rightMetricsKey = "=39";
name = Regular;
paths = (
{
closed = 1;
nodes = (
"61 261 OFFCURVE",
"78 270 OFFCURVE",
"102 283 CURVE",
"138 288 LINE",
"164 302 OFFCURVE",
"194 317 OFFCURVE",
"239 317 CURVE SMOOTH",
"302 317 OFFCURVE",
"359 287 OFFCURVE",
"359 213 CURVE SMOOTH",
"359 141 OFFCURVE",
"305 93 OFFCURVE",
"235 93 CURVE SMOOTH",
"176 93 OFFCURVE",
"128 128 OFFCURVE",
"128 198 CURVE SMOOTH",
"128 252 OFFCURVE",
"157 292 OFFCURVE",
"184 325 CURVE",
"112 312 LINE",
"69 268 OFFCURVE",
"45 204 OFFCURVE",
"45 141 CURVE SMOOTH",
"45 39 OFFCURVE",
"107 -14 OFFCURVE",
"203 -14 CURVE SMOOTH",
"340 -14 OFFCURVE",
"433 96 OFFCURVE",
"433 236 CURVE SMOOTH",
"433 356 OFFCURVE",
"364 426 OFFCURVE",
"245 426 CURVE SMOOTH",
"157 426 OFFCURVE",
"93 388 OFFCURVE",
"64 363 CURVE SMOOTH",
"51 352 OFFCURVE",
"34 334 OFFCURVE",
"34 303 CURVE SMOOTH",
"34 285 OFFCURVE",
"40 261 OFFCURVE",
"56 261 CURVE SMOOTH"
);
}
);
width = 472;
}
);
leftKerningGroup = o;
note = o;
rightKerningGroup = o;
unicode = 006F;
},
{
glyphname = oslash;
lastChange = "2015-12-24 10:46:09 +0000";
layers = (
{
components = (
{
name = o;
transform = "{1, 0, 0, 1, 4, 0}";
}
);
layerId = "59118767-2CA9-48AA-9373-694D24C960D8";
name = Regular;
paths = (
{
closed = 1;
nodes = (
"112 -47 OFFCURVE",
"117 -21 OFFCURVE",
"136 7 CURVE SMOOTH",
"158 38 OFFCURVE",
"194 83 OFFCURVE",
"275 187 CURVE SMOOTH",
"324 250 OFFCURVE",
"398 333 OFFCURVE",
"418 360 CURVE SMOOTH",
"440 392 OFFCURVE",
"452 413 OFFCURVE",
"452 428 CURVE SMOOTH",
"452 452 OFFCURVE",
"419 465 OFFCURVE",
"396 465 CURVE SMOOTH",
"386 465 OFFCURVE",
"378 463 OFFCURVE",
"375 459 CURVE SMOOTH",
"373 456 OFFCURVE",
"371 446 OFFCURVE",
"366 434 CURVE SMOOTH",
"360 419 OFFCURVE",
"349 399 OFFCURVE",
"332 375 CURVE SMOOTH",
"302 331 OFFCURVE",
"251 264 OFFCURVE",
"206 208 CURVE SMOOTH",
"108 87 OFFCURVE",
"68 47 OFFCURVE",
"42 10 CURVE SMOOTH",
"34 -2 OFFCURVE",
"30 -11 OFFCURVE",
"30 -19 CURVE SMOOTH",
"30 -31 OFFCURVE",
"38 -41 OFFCURVE",
"53 -51 CURVE SMOOTH",
"63 -59 OFFCURVE",
"77 -63 OFFCURVE",
"88 -63 CURVE SMOOTH",
"96 -63 OFFCURVE",
"103 -61 OFFCURVE",
"106 -56 CURVE SMOOTH"
);
}
);
width = 482;
}
);
leftKerningGroup = o;
rightKerningGroup = o;
unicode = 00F8;
},
{
glyphname = oe;
lastChange = "2015-12-24 10:46:09 +0000";
layers = (
{
components = (
{
disableAlignment = 1;
name = o;
transform = "{1, 0, 0, 1, -20, 0}";
}
);
layerId = "59118767-2CA9-48AA-9373-694D24C960D8";
name = Regular;
paths = (
{
closed = 1;
nodes = (
"460 425 OFFCURVE",
"383 336 OFFCURVE",
"354 229 CURVE",
"339 158 LINE",
"334 51 OFFCURVE",
"393 -14 OFFCURVE",
"500 -14 CURVE SMOOTH",
"561 -14 OFFCURVE",
"618 7 OFFCURVE",
"666 53 CURVE SMOOTH",
"689 75 OFFCURVE",
"705 97 OFFCURVE",
"705 114 CURVE SMOOTH",
"705 127 OFFCURVE",
"694 137 OFFCURVE",
"681 137 CURVE SMOOTH",
"671 137 OFFCURVE",
"663 132 OFFCURVE",
"654 125 CURVE SMOOTH",
"624 100 OFFCURVE",
"578 84 OFFCURVE",
"539 84 CURVE SMOOTH",
"467 84 OFFCURVE",
"421 132 OFFCURVE",
"424 200 CURVE SMOOTH",
"427 279 OFFCURVE",
"475 328 OFFCURVE",
"542 328 CURVE SMOOTH",
"581 328 OFFCURVE",
"603 311 OFFCURVE",
"603 286 CURVE SMOOTH",
"603 253 OFFCURVE",
"564 231 OFFCURVE",
"516 231 CURVE SMOOTH",
"482 231 OFFCURVE",
"442 242 OFFCURVE",
"424 256 CURVE SMOOTH",
"409 267 OFFCURVE",
"403 232 OFFCURVE",
"405 209 CURVE",
"422 184 OFFCURVE",
"469 162 OFFCURVE",
"525 162 CURVE SMOOTH",
"619 162 OFFCURVE",
"709 224 OFFCURVE",
"709 312 CURVE SMOOTH",
"709 384 OFFCURVE",
"650 425 OFFCURVE",
"573 425 CURVE SMOOTH"
);
}
);
width = 730;
}
);
leftKerningGroup = o;
leftMetricsKey = "=o-20";
rightKerningGroup = e;
rightMetricsKey = "=e-20";
unicode = 0153;
},
{
color = 3;
glyphname = p;
lastChange = "2015-12-24 10:46:09 +0000";
layers = (
{
anchors = (
{
name = bottom;
position = "{269, 0}";
},
{
name = top;
position = "{269, 412}";
}
);
guideLines = (
{
position = "{202, 281}";
}
);
layerId = "59118767-2CA9-48AA-9373-694D24C960D8";
name = Regular;
paths = (
{
closed = 1;
nodes = (
"404 -14 OFFCURVE",
"497 128 OFFCURVE",
"497 270 CURVE SMOOTH",
"497 366 OFFCURVE",
"446 426 OFFCURVE",
"362 426 CURVE SMOOTH",
"269 426 OFFCURVE",
"196 352 OFFCURVE",
"159 259 CURVE SMOOTH",
"136 206 OFFCURVE",
"108 132 OFFCURVE",
"108 102 CURVE",
"134 42 OFFCURVE",
"182 -14 OFFCURVE",
"267 -14 CURVE SMOOTH"
);
},
{
closed = 1;
nodes = (
"236 99 OFFCURVE",
"183 128 OFFCURVE",
"146 181 CURVE",
"163 101 LINE",
"182 201 OFFCURVE",
"237 313 OFFCURVE",
"330 313 CURVE SMOOTH",
"381 313 OFFCURVE",
"415 279 OFFCURVE",
"415 223 CURVE SMOOTH",
"415 157 OFFCURVE",
"370 99 OFFCURVE",
"291 99 CURVE SMOOTH"
);
},
{
closed = 1;
nodes = (
"168 259 OFFCURVE",
"175 300 OFFCURVE",
"175 335 CURVE SMOOTH",
"175 387 OFFCURVE",
"159 424 OFFCURVE",
"112 424 CURVE SMOOTH",
"57 424 OFFCURVE",
"20 376 OFFCURVE",
"20 348 CURVE SMOOTH",
"20 323 OFFCURVE",
"50 327 OFFCURVE",
"68 310 CURVE SMOOTH",
"87 292 OFFCURVE",
"94 249 OFFCURVE",
"91 189 CURVE SMOOTH",
"86 66 OFFCURVE",
"39 -121 OFFCURVE",
"39 -208 CURVE SMOOTH",
"39 -268 OFFCURVE",
"64 -288 OFFCURVE",
"102 -288 CURVE SMOOTH",
"175 -288 OFFCURVE",
"196 -229 OFFCURVE",
"196 -215 CURVE SMOOTH",
"196 -196 OFFCURVE",
"175 -199 OFFCURVE",
"160 -181 CURVE SMOOTH",
"147 -165 OFFCURVE",
"141 -146 OFFCURVE",
"141 -108 CURVE SMOOTH",
"141 -43 OFFCURVE",
"152 34 OFFCURVE",
"157 62 CURVE SMOOTH",
"163 95 OFFCURVE",
"174 162 OFFCURVE",
"175 214 CURVE",
"159 219 LINE"
);
}
);
width = 536;
}
);
leftMetricsKey = n;
note = p;
rightKerningGroup = o;
rightMetricsKey = o;
unicode = 0070;
},
{
glyphname = thorn;
lastChange = "2015-12-24 10:46:09 +0000";
layers = (
{
layerId = "59118767-2CA9-48AA-9373-694D24C960D8";
name = Regular;
paths = (
{
closed = 1;
nodes = (
"381 -14 OFFCURVE",
"474 128 OFFCURVE",
"474 270 CURVE SMOOTH",
"474 366 OFFCURVE",
"423 426 OFFCURVE",
"339 426 CURVE SMOOTH",
"246 426 OFFCURVE",
"173 352 OFFCURVE",
"136 259 CURVE SMOOTH",
"113 206 OFFCURVE",
"85 132 OFFCURVE",
"85 102 CURVE",
"111 42 OFFCURVE",
"159 -14 OFFCURVE",
"244 -14 CURVE SMOOTH"
);
},
{
closed = 1;
nodes = (
"213 99 OFFCURVE",
"160 128 OFFCURVE",
"123 181 CURVE",
"140 101 LINE",
"159 201 OFFCURVE",
"214 313 OFFCURVE",
"307 313 CURVE SMOOTH",
"358 313 OFFCURVE",
"392 279 OFFCURVE",
"392 223 CURVE SMOOTH",
"392 157 OFFCURVE",
"347 99 OFFCURVE",
"268 99 CURVE SMOOTH"
);
},
{
closed = 1;
nodes = (
"124 -165 OFFCURVE",
"118 -146 OFFCURVE",
"118 -108 CURVE SMOOTH",
"118 -43 OFFCURVE",
"129 34 OFFCURVE",
"134 62 CURVE SMOOTH",
"140 95 OFFCURVE",
"151 162 OFFCURVE",
"152 214 CURVE",
"139 218 LINE",
"153 281 OFFCURVE",
"174 377 OFFCURVE",
"174 521 CURVE SMOOTH",
"174 629 OFFCURVE",
"166 708 OFFCURVE",
"110 708 CURVE SMOOTH",
"77 708 OFFCURVE",
"35 680 OFFCURVE",
"35 650 CURVE SMOOTH",
"35 637 OFFCURVE",
"59 602 OFFCURVE",
"69 551 CURVE SMOOTH",
"78 507 OFFCURVE",
"82 419 OFFCURVE",
"82 371 CURVE SMOOTH",
"82 288 OFFCURVE",
"69 187 OFFCURVE",
"59 117 CURVE SMOOTH",
"49 51 OFFCURVE",
"37 -22 OFFCURVE",
"28 -86 CURVE SMOOTH",
"21 -134 OFFCURVE",
"16 -177 OFFCURVE",
"16 -208 CURVE SMOOTH",
"16 -268 OFFCURVE",
"41 -288 OFFCURVE",
"79 -288 CURVE SMOOTH",
"152 -288 OFFCURVE",
"173 -229 OFFCURVE",
"173 -215 CURVE SMOOTH",
"173 -196 OFFCURVE",
"152 -199 OFFCURVE",
"137 -181 CURVE SMOOTH"
);
}
);
width = 513;
}
);
leftKerningGroup = b;
rightMetricsKey = o;
unicode = 00FE;
},
{
color = 3;
glyphname = q;
lastChange = "2015-12-24 10:46:09 +0000";
layers = (
{
anchors = (
{
name = bottom;
position = "{244, 0}";
},
{
name = top;
position = "{244, 412}";
}
);
layerId = "59118767-2CA9-48AA-9373-694D24C960D8";
name = Regular;
paths = (
{
closed = 1;
nodes = (
"384 -165 OFFCURVE",
"379 -146 OFFCURVE",
"379 -106 CURVE SMOOTH",
"379 -43 OFFCURVE",
"387 34 OFFCURVE",
"400 100 CURVE SMOOTH",
"412 159 OFFCURVE",
"434 272 OFFCURVE",
"434 327 CURVE SMOOTH",
"434 355 OFFCURVE",
"432 368 OFFCURVE",
"412 384 CURVE SMOOTH",
"380 410 OFFCURVE",
"334 426 OFFCURVE",
"283 426 CURVE SMOOTH",
"119 426 OFFCURVE",
"34 284 OFFCURVE",
"34 145 CURVE SMOOTH",
"34 46 OFFCURVE",
"85 -14 OFFCURVE",
"169 -14 CURVE SMOOTH",
"235 -14 OFFCURVE",
"283 23 OFFCURVE",
"322 78 CURVE",
"298 -33 OFFCURVE",
"274 -145 OFFCURVE",
"275 -208 CURVE SMOOTH",
"276 -270 OFFCURVE",
"300 -288 OFFCURVE",
"339 -288 CURVE SMOOTH",
"411 -288 OFFCURVE",
"432 -229 OFFCURVE",
"432 -215 CURVE SMOOTH",
"432 -196 OFFCURVE",
"411 -199 OFFCURVE",
"396 -180 CURVE SMOOTH"
);
},
{
closed = 1;
nodes = (
"153 98 OFFCURVE",
"116 137 OFFCURVE",
"116 195 CURVE SMOOTH",
"116 261 OFFCURVE",
"162 313 OFFCURVE",
"243 313 CURVE SMOOTH",
"300 313 OFFCURVE",
"350 289 OFFCURVE",
"365 278 CURVE",
"352 309 LINE",
"355 255 OFFCURVE",
"336 203 OFFCURVE",
"311 167 CURVE SMOOTH",
"281 124 OFFCURVE",
"240 98 OFFCURVE",
"201 98 CURVE SMOOTH"
);
}
);
width = 483;
}
);
leftKerningGroup = c;
leftMetricsKey = o;
note = q;
unicode = 0071;
},
{
color = 3;
glyphname = r;
lastChange = "2015-12-24 10:46:09 +0000";
layers = (
{
anchors = (
{
name = bottom;
position = "{115, 0}";
},
{
name = top;
position = "{193, 412}";
}
);
components = (
{
name = _part.shortStem;
transform = "{1, 0, 0, 1, 15, 0}";
}
);
layerId = "59118767-2CA9-48AA-9373-694D24C960D8";
name = Regular;
paths = (
{
closed = 1;
nodes = (
"330 296 OFFCURVE",
"360 335 OFFCURVE",
"360 373 CURVE SMOOTH",
"360 410 OFFCURVE",
"332 426 OFFCURVE",
"295 426 CURVE SMOOTH",
"205 426 OFFCURVE",
"168 333 OFFCURVE",
"142 214 CURVE SMOOTH",
"138 194 OFFCURVE",
"179 109 OFFCURVE",
"179 164 CURVE SMOOTH",
"179 261 OFFCURVE",
"216 319 OFFCURVE",
"257 319 CURVE SMOOTH",
"270 319 OFFCURVE",
"282 313 OFFCURVE",
"291 302 CURVE SMOOTH",
"295 297 OFFCURVE",
"301 296 OFFCURVE",
"306 296 CURVE SMOOTH"
);
}
);
width = 364;
}
);
leftKerningGroup = r;
leftMetricsKey = "=n+4";
note = r;
rightKerningGroup = r;
unicode = 0072;
},
{
color = 3;
glyphname = s;
lastChange = "2015-12-24 10:46:09 +0000";
layers = (
{
anchors = (
{
name = bottom;
position = "{180, -2}";
},
{
name = top;
position = "{232, 412}";
}
);
guideLines = (
{
position = "{31, 419}";
}
);
layerId = "59118767-2CA9-48AA-9373-694D24C960D8";
name = Regular;
paths = (
{
closed = 1;
nodes = (
"294 -14 OFFCURVE",
"365 74 OFFCURVE",
"365 154 CURVE SMOOTH",
"365 222 OFFCURVE",
"314 243 OFFCURVE",
"233 254 CURVE SMOOTH",
"189 259 OFFCURVE",
"131 267 OFFCURVE",
"131 295 CURVE SMOOTH",
"131 315 OFFCURVE",
"159 328 OFFCURVE",
"201 328 CURVE SMOOTH",
"229 328 OFFCURVE",
"258 322 OFFCURVE",
"282 302 CURVE SMOOTH",
"291 294 OFFCURVE",
"295 291 OFFCURVE",
"302 291 CURVE SMOOTH",
"325 291 OFFCURVE",
"374 323 OFFCURVE",
"374 360 CURVE SMOOTH",
"374 403 OFFCURVE",
"306 426 OFFCURVE",
"242 426 CURVE SMOOTH",
"118 426 OFFCURVE",
"52 344 OFFCURVE",
"52 268 CURVE SMOOTH",
"52 188 OFFCURVE",
"123 176 OFFCURVE",
"193 165 CURVE SMOOTH",
"259 155 OFFCURVE",
"285 150 OFFCURVE",
"285 130 CURVE SMOOTH",
"285 105 OFFCURVE",
"241 91 OFFCURVE",
"193 91 CURVE SMOOTH",
"149 91 OFFCURVE",
"108 104 OFFCURVE",
"83 119 CURVE SMOOTH",
"77 122 OFFCURVE",
"71 124 OFFCURVE",
"64 124 CURVE SMOOTH",
"40 124 OFFCURVE",
"30 101 OFFCURVE",
"30 80 CURVE SMOOTH",
"30 22 OFFCURVE",
"100 -14 OFFCURVE",
"177 -14 CURVE SMOOTH"
);
}
);
width = 415;
}
);
leftKerningGroup = s;
note = s;
rightKerningGroup = s;
unicode = 0073;
},
{
glyphname = germandbls;
lastChange = "2015-12-24 10:46:09 +0000";
layers = (
{
layerId = "59118767-2CA9-48AA-9373-694D24C960D8";
name = Regular;
paths = (
{
closed = 1;
nodes = (
"364 355 OFFCURVE",
"359 359 OFFCURVE",
"359 369 CURVE SMOOTH",
"359 377 OFFCURVE",
"362 385 OFFCURVE",
"368 394 CURVE SMOOTH",
"403 448 OFFCURVE",
"441 507 OFFCURVE",
"441 569 CURVE SMOOTH",
"441 650 OFFCURVE",
"384 708 OFFCURVE",
"295 708 CURVE SMOOTH",
"181 708 OFFCURVE",
"117 611 OFFCURVE",
"87 469 CURVE SMOOTH",
"63 354 OFFCURVE",
"35 93 OFFCURVE",
"35 -65 CURVE SMOOTH",
"35 -127 OFFCURVE",
"58 -147 OFFCURVE",
"101 -147 CURVE SMOOTH",
"171 -147 OFFCURVE",
"192 -93 OFFCURVE",
"192 -75 CURVE SMOOTH",
"192 -57 OFFCURVE",
"170 -58 OFFCURVE",
"157 -38 CURVE SMOOTH",
"146 -21 OFFCURVE",
"141 19 OFFCURVE",
"141 137 CURVE SMOOTH",
"141 255 OFFCURVE",
"146 402 OFFCURVE",
"173 502 CURVE SMOOTH",
"187 555 OFFCURVE",
"207 600 OFFCURVE",
"264 600 CURVE SMOOTH",
"315 600 OFFCURVE",
"338 567 OFFCURVE",
"338 524 CURVE SMOOTH",
"338 469 OFFCURVE",
"299 404 OFFCURVE",
"265 357 CURVE SMOOTH",
"254 342 OFFCURVE",
"245 328 OFFCURVE",
"245 307 CURVE SMOOTH",
"245 288 OFFCURVE",
"252 274 OFFCURVE",
"276 262 CURVE SMOOTH",
"320 243 OFFCURVE",
"375 219 OFFCURVE",
"402 199 CURVE SMOOTH",
"418 187 OFFCURVE",
"429 173 OFFCURVE",
"429 154 CURVE SMOOTH",
"429 121 OFFCURVE",
"397 102 OFFCURVE",
"350 102 CURVE SMOOTH",
"301 102 OFFCURVE",
"279 120 OFFCURVE",
"264 132 CURVE SMOOTH",
"258 137 OFFCURVE",
"251 140 OFFCURVE",
"244 140 CURVE SMOOTH",
"218 140 OFFCURVE",
"193 97 OFFCURVE",
"193 59 CURVE SMOOTH",
"193 26 OFFCURVE",
"211 -8 OFFCURVE",
"288 -8 CURVE SMOOTH",
"416 -8 OFFCURVE",
"515 88 OFFCURVE",
"515 195 CURVE SMOOTH",
"515 274 OFFCURVE",
"462 305 OFFCURVE",
"375 349 CURVE SMOOTH"
);
}
);
width = 550;
}
);
unicode = 00DF;
},
{
color = 3;
glyphname = t;
lastChange = "2015-12-24 10:46:09 +0000";
layers = (
{
anchors = (
{
name = bottom;
position = "{175, -1}";
},
{
name = center;
position = "{171, 206}";
},
{
name = top;
position = "{171, 412}";
},
{
name = topright;
position = "{298, 410}";
}
);
layerId = "59118767-2CA9-48AA-9373-694D24C960D8";
name = Regular;
paths = (
{
closed = 1;
nodes = (
"200 403 LINE",
"206 424 OFFCURVE",
"209 443 OFFCURVE",
"209 460 CURVE SMOOTH",
"209 489 OFFCURVE",
"201 501 OFFCURVE",
"185 501 CURVE SMOOTH",
"138 501 OFFCURVE",
"26 381 OFFCURVE",
"26 329 CURVE SMOOTH",
"26 315 OFFCURVE",
"35 310 OFFCURVE",
"49 310 CURVE SMOOTH",
"61 310 OFFCURVE",
"77 313 OFFCURVE",
"93 317 CURVE",
"88 263 OFFCURVE",
"73 202 OFFCURVE",
"73 138 CURVE SMOOTH",
"73 48 OFFCURVE",
"106 -14 OFFCURVE",
"192 -14 CURVE SMOOTH",
"259 -14 OFFCURVE",
"314 23 OFFCURVE",
"314 71 CURVE SMOOTH",
"314 80 OFFCURVE",
"312 88 OFFCURVE",
"304 92 CURVE SMOOTH",
"291 98 OFFCURVE",
"240 89 OFFCURVE",
"205 109 CURVE SMOOTH",
"176 125 OFFCURVE",
"164 157 OFFCURVE",
"164 200 CURVE SMOOTH",
"164 239 OFFCURVE",
"174 294 OFFCURVE",
"185 342 CURVE"
);
},
{
closed = 1;
nodes = (
"156 326 LINE",
"240 329 OFFCURVE",
"278 312 OFFCURVE",
"295 312 CURVE SMOOTH",
"314 312 OFFCURVE",
"333 354 OFFCURVE",
"333 385 CURVE SMOOTH",
"333 419 OFFCURVE",
"316 428 OFFCURVE",
"283 428 CURVE SMOOTH",
"258 428 OFFCURVE",
"223 422 OFFCURVE",
"191 416 CURVE"
);
}
);
width = 349;
}
);
leftKerningGroup = t;
note = t;
rightKerningGroup = t;
unicode = 0074;
},
{
color = 3;
glyphname = u;
lastChange = "2015-12-24 10:46:09 +0000";
layers = (
{
anchors = (
{
name = bottom;
position = "{269, 0}";
},
{
name = ogonek;
position = "{476, 2}";
},
{
name = top;
position = "{277, 412}";
},
{
name = topright;
position = "{517, 412}";
}
);
layerId = "59118767-2CA9-48AA-9373-694D24C960D8";
name = Regular;
paths = (
{
closed = 1;
nodes = (
"442 127 OFFCURVE",
"439 161 OFFCURVE",
"439 189 CURVE SMOOTH",
"439 231 OFFCURVE",
"445 271 OFFCURVE",
"452 305 CURVE SMOOTH",
"462 350 OFFCURVE",
"474 384 OFFCURVE",
"474 399 CURVE SMOOTH",
"474 415 OFFCURVE",
"461 421 OFFCURVE",
"440 421 CURVE SMOOTH",
"381 421 OFFCURVE",
"361 376 OFFCURVE",
"361 315 CURVE SMOOTH",
"361 300 OFFCURVE",
"364 265 OFFCURVE",
"364 248 CURVE",
"363 199 LINE",
"371 192 LINE",
"366 162 OFFCURVE",
"361 130 OFFCURVE",
"361 98 CURVE SMOOTH",
"361 16 OFFCURVE",
"393 -9 OFFCURVE",
"439 -9 CURVE SMOOTH",
"504 -9 OFFCURVE",
"519 43 OFFCURVE",
"519 66 CURVE SMOOTH",
"519 96 OFFCURVE",
"493 81 OFFCURVE",
"466 105 CURVE SMOOTH"
);
},
{
closed = 1;
nodes = (
"173 101 OFFCURVE",
"153 116 OFFCURVE",
"153 154 CURVE SMOOTH",
"153 196 OFFCURVE",
"178 250 OFFCURVE",
"178 324 CURVE SMOOTH",
"178 375 OFFCURVE",
"167 421 OFFCURVE",
"119 421 CURVE SMOOTH",
"72 421 OFFCURVE",
"28 377 OFFCURVE",
"28 348 CURVE SMOOTH",
"28 332 OFFCURVE",
"43 324 OFFCURVE",
"55 318 CURVE SMOOTH",
"80 305 OFFCURVE",
"83 279 OFFCURVE",
"83 260 CURVE SMOOTH",
"83 209 OFFCURVE",
"60 162 OFFCURVE",
"60 102 CURVE SMOOTH",
"60 34 OFFCURVE",
"95 -14 OFFCURVE",
"170 -14 CURVE SMOOTH",
"259 -14 OFFCURVE",
"323 52 OFFCURVE",
"363 155 CURVE",
"376 151 LINE",
"378 363 LINE",
"364 286 OFFCURVE",
"313 101 OFFCURVE",
"204 101 CURVE SMOOTH"
);
}
);
width = 539;
}
);
leftKerningGroup = u;
note = u;
rightKerningGroup = u;
unicode = 0075;
},
{
color = 3;
glyphname = v;
lastChange = "2015-12-24 10:46:09 +0000";
layers = (
{
anchors = (
{
name = bottom;
position = "{227, 0}";
},
{
name = top;
position = "{227, 412}";
}
);
layerId = "59118767-2CA9-48AA-9373-694D24C960D8";
name = Regular;
paths = (
{
closed = 1;
nodes = (
"352 423 OFFCURVE",
"289 390 OFFCURVE",
"289 354 CURVE SMOOTH",
"289 341 OFFCURVE",
"296 332 OFFCURVE",
"312 315 CURVE SMOOTH",
"329 297 OFFCURVE",
"336 268 OFFCURVE",
"336 244 CURVE SMOOTH",
"336 160 OFFCURVE",
"249 104 OFFCURVE",
"205 104 CURVE SMOOTH",
"187 104 OFFCURVE",
"182 113 OFFCURVE",
"182 128 CURVE SMOOTH",
"182 145 OFFCURVE",
"183 171 OFFCURVE",
"183 194 CURVE SMOOTH",
"183 301 OFFCURVE",
"162 422 OFFCURVE",
"78 422 CURVE SMOOTH",
"38 422 OFFCURVE",
"1 395 OFFCURVE",
"1 339 CURVE SMOOTH",
"1 320 OFFCURVE",
"5 313 OFFCURVE",
"21 311 CURVE SMOOTH",
"44 308 OFFCURVE",
"54 301 OFFCURVE",
"64 286 CURVE SMOOTH",
"77 265 OFFCURVE",
"88 231 OFFCURVE",
"95 197 CURVE SMOOTH",
"104 155 OFFCURVE",
"111 107 OFFCURVE",
"114 67 CURVE SMOOTH",
"119 4 OFFCURVE",
"149 -15 OFFCURVE",
"186 -15 CURVE SMOOTH",
"310 -15 OFFCURVE",
"434 189 OFFCURVE",
"434 343 CURVE SMOOTH",
"434 382 OFFCURVE",
"427 423 OFFCURVE",
"387 423 CURVE SMOOTH"
);
}
);
width = 466;
}
);
leftKerningGroup = v;
note = v;
rightKerningGroup = v;
unicode = 0076;
},
{
color = 3;
glyphname = w;
lastChange = "2015-12-24 10:46:09 +0000";
layers = (
{
anchors = (
{
name = bottom;
position = "{347, 0}";
},
{
name = top;
position = "{347, 412}";
}
);
layerId = "59118767-2CA9-48AA-9373-694D24C960D8";
name = Regular;
paths = (
{
closed = 1;
nodes = (
"591 423 OFFCURVE",
"528 390 OFFCURVE",
"528 353 CURVE SMOOTH",
"528 340 OFFCURVE",
"535 332 OFFCURVE",
"547 319 CURVE SMOOTH",
"568 297 OFFCURVE",
"575 273 OFFCURVE",
"575 245 CURVE SMOOTH",
"575 166 OFFCURVE",
"520 103 OFFCURVE",
"441 103 CURVE SMOOTH",
"420 103 OFFCURVE",
"410 109 OFFCURVE",
"410 134 CURVE SMOOTH",
"410 184 OFFCURVE",
"425 197 OFFCURVE",
"425 279 CURVE SMOOTH",
"425 307 OFFCURVE",
"422 328 OFFCURVE",
"417 346 CURVE SMOOTH",
"410 372 OFFCURVE",
"401 379 OFFCURVE",
"383 379 CURVE SMOOTH",
"356 379 OFFCURVE",
"297 363 OFFCURVE",
"297 324 CURVE SMOOTH",
"297 314 OFFCURVE",
"301 308 OFFCURVE",
"307 301 CURVE SMOOTH",
"324 281 OFFCURVE",
"334 263 OFFCURVE",
"334 230 CURVE SMOOTH",
"334 136 OFFCURVE",
"248 103 OFFCURVE",
"202 103 CURVE SMOOTH",
"180 103 OFFCURVE",
"177 114 OFFCURVE",
"177 127 CURVE SMOOTH",
"177 144 OFFCURVE",
"178 171 OFFCURVE",
"178 187 CURVE SMOOTH",
"178 301 OFFCURVE",
"158 422 OFFCURVE",
"76 422 CURVE SMOOTH",
"37 422 OFFCURVE",
"1 395 OFFCURVE",
"1 339 CURVE SMOOTH",
"1 320 OFFCURVE",
"5 313 OFFCURVE",
"20 311 CURVE SMOOTH",
"43 308 OFFCURVE",
"53 301 OFFCURVE",
"62 286 CURVE SMOOTH",
"75 265 OFFCURVE",
"84 231 OFFCURVE",
"91 197 CURVE SMOOTH",
"99 155 OFFCURVE",
"106 107 OFFCURVE",
"109 67 CURVE SMOOTH",
"114 4 OFFCURVE",
"144 -15 OFFCURVE",
"182 -15 CURVE SMOOTH",
"242 -15 OFFCURVE",
"301 31 OFFCURVE",
"343 96 CURVE",
"339 34 OFFCURVE",
"363 -15 OFFCURVE",
"437 -15 CURVE SMOOTH",
"584 -15 OFFCURVE",
"673 189 OFFCURVE",
"673 338 CURVE SMOOTH",
"673 382 OFFCURVE",
"666 423 OFFCURVE",
"628 423 CURVE SMOOTH"
);
}
);
width = 705;
}
);
leftKerningGroup = v;
leftMetricsKey = v;
note = w;
rightKerningGroup = v;
rightMetricsKey = v;
unicode = 0077;
},
{
color = 3;
glyphname = x;
lastChange = "2015-12-24 10:46:09 +0000";
layers = (
{
anchors = (
{
name = bottom;
position = "{231, 0}";
},
{
name = top;
position = "{231, 412}";
}
);
guideLines = (
{
position = "{181, 98}";
}
);
layerId = "59118767-2CA9-48AA-9373-694D24C960D8";
name = Regular;
paths = (
{
closed = 1;
nodes = (
"235 89 OFFCURVE",
"265 -10 OFFCURVE",
"359 -10 CURVE SMOOTH",
"429 -10 OFFCURVE",
"447 41 OFFCURVE",
"447 77 CURVE SMOOTH",
"447 99 OFFCURVE",
"442 103 OFFCURVE",
"433 103 CURVE SMOOTH",
"427 103 OFFCURVE",
"421 102 OFFCURVE",
"412 102 CURVE SMOOTH",
"336 102 OFFCURVE",
"289 178 OFFCURVE",
"269 239 CURVE",
"212 175 LINE"
);
},
{
closed = 1;
nodes = (
"212 154 OFFCURVE",
"228 143 OFFCURVE",
"245 143 CURVE SMOOTH",
"265 143 OFFCURVE",
"277 158 OFFCURVE",
"275 166 CURVE SMOOTH",
"272 182 OFFCURVE",
"273 199 OFFCURVE",
"271 215 CURVE SMOOTH",
"247 327 OFFCURVE",
"185 423 OFFCURVE",
"109 423 CURVE SMOOTH",
"70 423 OFFCURVE",
"32 399 OFFCURVE",
"32 352 CURVE SMOOTH",
"32 321 OFFCURVE",
"47 308 OFFCURVE",
"56 308 CURVE SMOOTH",
"60 308 OFFCURVE",
"66 309 OFFCURVE",
"73 309 CURVE SMOOTH",
"144 309 OFFCURVE",
"188 236 OFFCURVE",
"208 158 CURVE"
);
},
{
closed = 1;
nodes = (
"0 101 OFFCURVE",
"0 57 CURVE SMOOTH",
"0 14 OFFCURVE",
"33 -10 OFFCURVE",
"79 -10 CURVE SMOOTH",
"166 -10 OFFCURVE",
"202 77 OFFCURVE",
"249 183 CURVE",
"212 243 LINE",
"183 158 OFFCURVE",
"151 101 OFFCURVE",
"111 101 CURVE SMOOTH",
"96 101 OFFCURVE",
"81 109 OFFCURVE",
"74 121 CURVE SMOOTH",
"71 127 OFFCURVE",
"66 133 OFFCURVE",
"57 133 CURVE SMOOTH",
"35 133 OFFCURVE"
);
},
{
closed = 1;
nodes = (
"308 281 OFFCURVE",
"329 310 OFFCURVE",
"369 310 CURVE SMOOTH",
"383 310 OFFCURVE",
"397 306 OFFCURVE",
"407 303 CURVE SMOOTH",
"413 301 OFFCURVE",
"419 300 OFFCURVE",
"422 300 CURVE SMOOTH",
"444 300 OFFCURVE",
"469 344 OFFCURVE",
"469 378 CURVE SMOOTH",
"469 400 OFFCURVE",
"455 423 OFFCURVE",
"418 423 CURVE SMOOTH",
"345 423 OFFCURVE",
"266 337 OFFCURVE",
"230 250 CURVE",
"263 193 LINE"
);
}
);
width = 478;
}
);
note = x;
unicode = 0078;
},
{
color = 3;
glyphname = y;
lastChange = "2015-12-24 10:46:09 +0000";
layers = (
{
anchors = (
{
name = bottom;
position = "{249, 0}";
},
{
name = top;
position = "{257, 412}";
}
);
layerId = "59118767-2CA9-48AA-9373-694D24C960D8";
name = Regular;
paths = (
{
closed = 1;
nodes = (
"382 423 OFFCURVE",
"321 387 OFFCURVE",
"321 353 CURVE SMOOTH",
"321 340 OFFCURVE",
"329 331 OFFCURVE",
"344 315 CURVE SMOOTH",
"360 298 OFFCURVE",
"367 276 OFFCURVE",
"367 248 CURVE SMOOTH",
"367 175 OFFCURVE",
"300 103 OFFCURVE",
"234 103 CURVE SMOOTH",
"217 103 OFFCURVE",
"209 109 OFFCURVE",
"208 126 CURVE SMOOTH",
"203 191 OFFCURVE",
"191 272 OFFCURVE",
"180 309 CURVE SMOOTH",
"161 372 OFFCURVE",
"143 422 OFFCURVE",
"86 422 CURVE SMOOTH",
"40 422 OFFCURVE",
"9 389 OFFCURVE",
"9 339 CURVE SMOOTH",
"9 320 OFFCURVE",
"13 313 OFFCURVE",
"29 311 CURVE SMOOTH",
"52 308 OFFCURVE",
"62 301 OFFCURVE",
"72 286 CURVE SMOOTH",
"85 266 OFFCURVE",
"103 229 OFFCURVE",
"114 188 CURVE SMOOTH",
"126 144 OFFCURVE",
"135 95 OFFCURVE",
"139 61 CURVE SMOOTH",
"146 2 OFFCURVE",
"178 -16 OFFCURVE",
"207 -16 CURVE SMOOTH",
"238 -16 OFFCURVE",
"274 4 OFFCURVE",
"323 56 CURVE",
"299 44 LINE",
"263 -29 OFFCURVE",
"219 -90 OFFCURVE",
"195 -119 CURVE SMOOTH",
"169 -151 OFFCURVE",
"136 -177 OFFCURVE",
"103 -177 CURVE SMOOTH",
"78 -177 OFFCURVE",
"65 -162 OFFCURVE",
"54 -144 CURVE SMOOTH",
"50 -137 OFFCURVE",
"45 -130 OFFCURVE",
"28 -130 CURVE SMOOTH",
"-8 -130 OFFCURVE",
"-35 -162 OFFCURVE",
"-35 -203 CURVE SMOOTH",
"-35 -254 OFFCURVE",
"11 -288 OFFCURVE",
"69 -288 CURVE SMOOTH",
"134 -288 OFFCURVE",
"195 -248 OFFCURVE",
"244 -188 CURVE SMOOTH",
"358 -51 OFFCURVE",
"450 198 OFFCURVE",
"466 328 CURVE SMOOTH",
"472 375 OFFCURVE",
"460 423 OFFCURVE",
"419 423 CURVE SMOOTH"
);
}
);
width = 503;
}
);
leftKerningGroup = y;
note = y;
rightKerningGroup = y;
unicode = 0079;
},
{
color = 3;
glyphname = z;
lastChange = "2015-12-24 10:46:09 +0000";
layers = (
{
anchors = (
{
name = bottom;
position = "{220, 0}";
},
{
name = top;
position = "{230, 412}";
}
);
layerId = "59118767-2CA9-48AA-9373-694D24C960D8";
name = Regular;
paths = (
{
closed = 1;
nodes = (
"367 124 OFFCURVE",
"354 114 OFFCURVE",
"334 107 CURVE SMOOTH",
"310 99 OFFCURVE",
"274 93 OFFCURVE",
"219 93 CURVE SMOOTH",
"199 93 OFFCURVE",
"181 94 OFFCURVE",
"163 95 CURVE SMOOTH",
"152 96 OFFCURVE",
"147 101 OFFCURVE",
"147 107 CURVE SMOOTH",
"147 112 OFFCURVE",
"150 117 OFFCURVE",
"157 122 CURVE SMOOTH",
"196 148 OFFCURVE",
"236 172 OFFCURVE",
"274 193 CURVE SMOOTH",
"342 232 OFFCURVE",
"409 275 OFFCURVE",
"409 329 CURVE SMOOTH",
"409 355 OFFCURVE",
"396 383 OFFCURVE",
"374 398 CURVE SMOOTH",
"340 420 OFFCURVE",
"286 424 OFFCURVE",
"225 424 CURVE SMOOTH",
"156 424 OFFCURVE",
"41 413 OFFCURVE",
"41 336 CURVE SMOOTH",
"41 294 OFFCURVE",
"72 273 OFFCURVE",
"91 273 CURVE SMOOTH",
"105 273 OFFCURVE",
"108 289 OFFCURVE",
"125 300 CURVE SMOOTH",
"149 316 OFFCURVE",
"174 321 OFFCURVE",
"212 321 CURVE SMOOTH",
"247 321 OFFCURVE",
"277 317 OFFCURVE",
"276 298 CURVE SMOOTH",
"275 274 OFFCURVE",
"111 178 OFFCURVE",
"57 132 CURVE SMOOTH",
"31 110 OFFCURVE",
"21 89 OFFCURVE",
"21 68 CURVE SMOOTH",
"21 52 OFFCURVE",
"28 34 OFFCURVE",
"35 25 CURVE SMOOTH",
"57 -4 OFFCURVE",
"125 -11 OFFCURVE",
"211 -11 CURVE SMOOTH",
"308 -11 OFFCURVE",
"411 1 OFFCURVE",
"411 73 CURVE SMOOTH",
"411 108 OFFCURVE",
"389 124 OFFCURVE",
"377 124 CURVE SMOOTH"
);
}
);
width = 452;
}
);
leftKerningGroup = z;
note = z;
rightKerningGroup = z;
unicode = 007A;
},
{
glyphname = fi;
lastChange = "2015-12-24 10:46:09 +0000";
layers = (
{
layerId = "59118767-2CA9-48AA-9373-694D24C960D8";
name = Regular;
paths = (
{
closed = 1;
nodes = (
"147 -198 OFFCURVE",
"186 -177 OFFCURVE",
"186 -126 CURVE SMOOTH",
"186 -107 OFFCURVE",
"181 -83 OFFCURVE",
"178 -50 CURVE SMOOTH",
"173 5 OFFCURVE",
"171 58 OFFCURVE",
"170 107 CURVE SMOOTH",
"169 199 OFFCURVE",
"175 280 OFFCURVE",
"181 346 CURVE",
"184 398 LINE",
"198 508 OFFCURVE",
"221 589 OFFCURVE",
"313 589 CURVE SMOOTH",
"351 589 OFFCURVE",
"380 577 OFFCURVE",
"398 568 CURVE SMOOTH",
"407 564 OFFCURVE",
"416 561 OFFCURVE",
"424 561 CURVE SMOOTH",
"443 561 OFFCURVE",
"458 583 OFFCURVE",
"458 609 CURVE SMOOTH",
"458 664 OFFCURVE",
"392 708 OFFCURVE",
"314 708 CURVE SMOOTH",
"252 708 OFFCURVE",
"192 679 OFFCURVE",
"158 623 CURVE SMOOTH",
"117 555 OFFCURVE",
"109 447 OFFCURVE",
"103 336 CURVE SMOOTH",
"97 233 OFFCURVE",
"62 -91 OFFCURVE",
"61 -154 CURVE SMOOTH",
"61 -190 OFFCURVE",
"75 -200 OFFCURVE",
"101 -200 CURVE SMOOTH"
);
},
{
closed = 1;
nodes = (
"82 318 OFFCURVE",
"111 321 OFFCURVE",
"136 321 CURVE",
"139 418 LINE",
"104 413 OFFCURVE",
"71 407 OFFCURVE",
"50 399 CURVE SMOOTH",
"31 392 OFFCURVE",
"27 378 OFFCURVE",
"27 355 CURVE SMOOTH",
"27 328 OFFCURVE",
"38 312 OFFCURVE",
"50 314 CURVE SMOOTH"
);
},
{
closed = 1;
nodes = (
"439 105 OFFCURVE",
"430 116 OFFCURVE",
"430 142 CURVE SMOOTH",
"430 185 OFFCURVE",
"454 254 OFFCURVE",
"454 330 CURVE SMOOTH",
"454 374 OFFCURVE",
"447 416 OFFCURVE",
"394 421 CURVE SMOOTH",
"355 425 OFFCURVE",
"235 423 OFFCURVE",
"158 418 CURVE",
"136 398 OFFCURVE",
"126 320 OFFCURVE",
"151 322 CURVE SMOOTH",
"198 326 OFFCURVE",
"301 325 OFFCURVE",
"337 313 CURVE SMOOTH",
"360 305 OFFCURVE",
"362 276 OFFCURVE",
"362 252 CURVE SMOOTH",
"362 181 OFFCURVE",
"329 133 OFFCURVE",
"329 67 CURVE SMOOTH",
"329 10 OFFCURVE",
"354 -10 OFFCURVE",
"396 -10 CURVE SMOOTH",
"465 -10 OFFCURVE",
"488 45 OFFCURVE",
"488 62 CURVE SMOOTH",
"488 80 OFFCURVE",
"467 80 OFFCURVE",
"448 97 CURVE SMOOTH"
);
}
);
width = 526;
}
);
leftMetricsKey = f;
rightMetricsKey = i;
unicode = FB01;
},
{
glyphname = fl;
lastChange = "2015-12-24 10:46:09 +0000";
layers = (
{
layerId = "59118767-2CA9-48AA-9373-694D24C960D8";
name = Regular;
paths = (
{
closed = 1;
nodes = (
"82 318 OFFCURVE",
"111 321 OFFCURVE",
"136 321 CURVE",
"139 418 LINE",
"104 413 OFFCURVE",
"71 407 OFFCURVE",
"50 399 CURVE SMOOTH",
"31 392 OFFCURVE",
"27 378 OFFCURVE",
"27 355 CURVE SMOOTH",
"27 328 OFFCURVE",
"38 312 OFFCURVE",
"50 314 CURVE SMOOTH"
);
},
{
closed = 1;
nodes = (
"310 309 OFFCURVE",
"328 359 OFFCURVE",
"328 387 CURVE SMOOTH",
"327 417 OFFCURVE",
"308 425 OFFCURVE",
"277 425 CURVE SMOOTH",
"252 424 OFFCURVE",
"210 422 OFFCURVE",
"178 418 CURVE",
"165 406 OFFCURVE",
"156 375 OFFCURVE",
"156 352 CURVE SMOOTH",
"156 335 OFFCURVE",
"161 322 OFFCURVE",
"171 322 CURVE SMOOTH",
"244 322 OFFCURVE",
"274 309 OFFCURVE",
"289 309 CURVE SMOOTH"
);
},
{
closed = 1;
nodes = (
"461 106 OFFCURVE",
"447 124 OFFCURVE",
"447 168 CURVE SMOOTH",
"447 235 OFFCURVE",
"482 322 OFFCURVE",
"482 523 CURVE SMOOTH",
"482 644 OFFCURVE",
"453 708 OFFCURVE",
"340 708 CURVE SMOOTH",
"274 708 OFFCURVE",
"194 683 OFFCURVE",
"155 619 CURVE SMOOTH",
"117 555 OFFCURVE",
"109 447 OFFCURVE",
"103 336 CURVE SMOOTH",
"97 231 OFFCURVE",
"61 -106 OFFCURVE",
"61 -158 CURVE SMOOTH",
"62 -191 OFFCURVE",
"76 -200 OFFCURVE",
"101 -200 CURVE SMOOTH",
"144 -198 OFFCURVE",
"186 -176 OFFCURVE",
"186 -130 CURVE SMOOTH",
"186 -110 OFFCURVE",
"183 -82 OFFCURVE",
"179 -52 CURVE SMOOTH",
"173 -2 OFFCURVE",
"171 70 OFFCURVE",
"170 107 CURVE SMOOTH",
"169 199 OFFCURVE",
"175 280 OFFCURVE",
"181 346 CURVE SMOOTH",
"184 398 LINE",
"198 508 OFFCURVE",
"218 588 OFFCURVE",
"306 589 CURVE SMOOTH",
"336 589 OFFCURVE",
"369 580 OFFCURVE",
"378 542 CURVE SMOOTH",
"385 517 OFFCURVE",
"387 463 OFFCURVE",
"387 417 CURVE SMOOTH",
"387 278 OFFCURVE",
"349 140 OFFCURVE",
"349 63 CURVE SMOOTH",
"349 9 OFFCURVE",
"379 -10 OFFCURVE",
"420 -10 CURVE SMOOTH",
"491 -10 OFFCURVE",
"512 49 OFFCURVE",
"512 63 CURVE SMOOTH",
"512 80 OFFCURVE",
"491 81 OFFCURVE",
"473 97 CURVE"
);
}
);
width = 544;
}
);
leftMetricsKey = f;
unicode = FB02;
},
{
glyphname = ordfeminine;
lastChange = "2015-12-24 10:46:09 +0000";
layers = (
{
layerId = "59118767-2CA9-48AA-9373-694D24C960D8";
name = Regular;
paths = (
{
closed = 1;
nodes = (
"280 442 OFFCURVE",
"278 466 OFFCURVE",
"278 484 CURVE SMOOTH",
"278 516 OFFCURVE",
"283 545 OFFCURVE",
"288 572 CURVE",
"240 532 LINE",
"260 544 OFFCURVE",
"287 527 OFFCURVE",
"294 527 CURVE SMOOTH",
"306 527 OFFCURVE",
"316 561 OFFCURVE",
"316 580 CURVE SMOOTH",
"316 620 OFFCURVE",
"269 640 OFFCURVE",
"214 640 CURVE SMOOTH",
"95 640 OFFCURVE",
"20 542 OFFCURVE",
"20 449 CURVE SMOOTH",
"20 385 OFFCURVE",
"57 350 OFFCURVE",
"112 350 CURVE SMOOTH",
"163 350 OFFCURVE",
"201 381 OFFCURVE",
"226 426 CURVE",
"226 424 LINE SMOOTH",
"226 382 OFFCURVE",
"244 350 OFFCURVE",
"282 350 CURVE SMOOTH",
"321 350 OFFCURVE",
"331 385 OFFCURVE",
"331 401 CURVE SMOOTH",
"331 420 OFFCURVE",
"313 410 OFFCURVE",
"296 426 CURVE SMOOTH"
);
},
{
closed = 1;
nodes = (
"108 434 OFFCURVE",
"90 453 OFFCURVE",
"90 484 CURVE SMOOTH",
"90 527 OFFCURVE",
"123 558 OFFCURVE",
"171 558 CURVE SMOOTH",
"189 558 OFFCURVE",
"207 553 OFFCURVE",
"220 547 CURVE",
"218 525 OFFCURVE",
"215 503 OFFCURVE",
"205 484 CURVE SMOOTH",
"192 455 OFFCURVE",
"168 434 OFFCURVE",
"137 434 CURVE SMOOTH"
);
}
);
width = 346;
}
);
leftKerningGroup = ordfeminine;
unicode = 00AA;
},
{
glyphname = ordmasculine;
lastChange = "2015-12-24 10:46:09 +0000";
layers = (
{
layerId = "59118767-2CA9-48AA-9373-694D24C960D8";
name = Regular;
paths = (
{
closed = 1;
nodes = (
"114 648 OFFCURVE",
"71 623 OFFCURVE",
"50 606 CURVE SMOOTH",
"41 599 OFFCURVE",
"28 586 OFFCURVE",
"28 565 CURVE SMOOTH",
"28 553 OFFCURVE",
"31 527 OFFCURVE",
"42 527 CURVE SMOOTH",
"47 527 OFFCURVE",
"80 547 OFFCURVE",
"126 571 CURVE",
"81 570 LINE",
"53 539 OFFCURVE",
"38 498 OFFCURVE",
"38 456 CURVE SMOOTH",
"38 388 OFFCURVE",
"80 352 OFFCURVE",
"145 352 CURVE SMOOTH",
"237 352 OFFCURVE",
"300 425 OFFCURVE",
"300 520 CURVE SMOOTH",
"300 601 OFFCURVE",
"253 648 OFFCURVE",
"173 648 CURVE SMOOTH"
);
},
{
closed = 1;
nodes = (
"133 436 OFFCURVE",
"107 455 OFFCURVE",
"107 496 CURVE SMOOTH",
"107 518 OFFCURVE",
"117 538 OFFCURVE",
"127 554 CURVE",
"138 558 OFFCURVE",
"153 562 OFFCURVE",
"169 562 CURVE SMOOTH",
"205 562 OFFCURVE",
"238 545 OFFCURVE",
"238 504 CURVE SMOOTH",
"238 463 OFFCURVE",
"206 436 OFFCURVE",
"167 436 CURVE SMOOTH"
);
}
);
width = 321;
}
);
leftKerningGroup = ordfeminine;
unicode = 00BA;
},
{
glyphname = pi;
lastChange = "2015-12-24 10:46:09 +0000";
layers = (
{
layerId = "59118767-2CA9-48AA-9373-694D24C960D8";
name = Regular;
paths = (
{
closed = 1;
nodes = (
"330 337 LINE",
"333 304 OFFCURVE",
"337 259 OFFCURVE",
"337 231 CURVE SMOOTH",
"337 189 OFFCURVE",
"332 155 OFFCURVE",
"332 98 CURVE SMOOTH",
"332 16 OFFCURVE",
"364 -9 OFFCURVE",
"410 -9 CURVE SMOOTH",
"475 -9 OFFCURVE",
"490 43 OFFCURVE",
"490 66 CURVE SMOOTH",
"490 96 OFFCURVE",
"464 81 OFFCURVE",
"437 105 CURVE SMOOTH",
"413 127 OFFCURVE",
"410 161 OFFCURVE",
"410 189 CURVE SMOOTH",
"410 231 OFFCURVE",
"419 297 OFFCURVE",
"431 339 CURVE"
);
},
{
closed = 1;
nodes = (
"478 417 OFFCURVE",
"444 420 OFFCURVE",
"358 420 CURVE SMOOTH",
"277 420 OFFCURVE",
"187 414 OFFCURVE",
"147 409 CURVE SMOOTH",
"89 402 OFFCURVE",
"49 388 OFFCURVE",
"28 361 CURVE SMOOTH",
"18 347 OFFCURVE",
"10 326 OFFCURVE",
"9 299 CURVE SMOOTH",
"9 284 OFFCURVE",
"23 281 OFFCURVE",
"33 281 CURVE SMOOTH",
"50 281 OFFCURVE",
"57 296 OFFCURVE",
"126 303 CURVE SMOOTH",
"173 308 OFFCURVE",
"231 309 OFFCURVE",
"271 309 CURVE SMOOTH",
"317 309 OFFCURVE",
"418 303 OFFCURVE",
"447 302 CURVE SMOOTH",
"473 302 OFFCURVE",
"487 303 OFFCURVE",
"503 322 CURVE SMOOTH",
"515 337 OFFCURVE",
"522 356 OFFCURVE",
"522 379 CURVE SMOOTH",
"522 397 OFFCURVE",
"514 410 OFFCURVE",
"495 414 CURVE SMOOTH"
);
},
{
closed = 1;
nodes = (
"102 314 LINE",
"111 302 OFFCURVE",
"116 274 OFFCURVE",
"116 241 CURVE SMOOTH",
"116 158 OFFCURVE",
"88 99 OFFCURVE",
"50 19 CURVE SMOOTH",
"41 0 OFFCURVE",
"72 -8 OFFCURVE",
"100 -8 CURVE SMOOTH",
"142 -8 OFFCURVE",
"166 24 OFFCURVE",
"177 72 CURVE SMOOTH",
"192 136 OFFCURVE",
"200 204 OFFCURVE",
"200 271 CURVE SMOOTH",
"200 301 OFFCURVE",
"199 320 OFFCURVE",
"198 330 CURVE"
);
}
);
width = 533;
}
);
unicode = 03C0;
},
{
glyphname = zero;
lastChange = "2015-12-24 10:46:09 +0000";
layers = (
{
guideLines = (
{
position = "{-199, -198}";
},
{
position = "{-199, -210}";
},
{
position = "{-197, 460}";
},
{
position = "{-197, 472}";
}
);
layerId = "59118767-2CA9-48AA-9373-694D24C960D8";
name = Regular;
paths = (
{
closed = 1;
nodes = (
"413 -14 OFFCURVE",
"510 103 OFFCURVE",
"510 255 CURVE SMOOTH",
"510 407 OFFCURVE",
"411 472 OFFCURVE",
"305 472 CURVE SMOOTH",
"160 472 OFFCURVE",
"63 356 OFFCURVE",
"63 204 CURVE SMOOTH",
"63 51 OFFCURVE",
"162 -14 OFFCURVE",
"268 -14 CURVE SMOOTH"
);
},
{
closed = 1;
nodes = (
"214 92 OFFCURVE",
"141 137 OFFCURVE",
"142 229 CURVE SMOOTH",
"143 313 OFFCURVE",
"206 367 OFFCURVE",
"283 368 CURVE SMOOTH",
"360 369 OFFCURVE",
"432 320 OFFCURVE",
"432 231 CURVE SMOOTH",
"432 144 OFFCURVE",
"367 93 OFFCURVE",
"289 92 CURVE SMOOTH"
);
}
);
width = 573;
}
);
unicode = 0030;
},
{
glyphname = one;
lastChange = "2015-12-24 10:46:09 +0000";
layers = (
{
guideLines = (
{
position = "{-7, -198}";
},
{
position = "{-7, -210}";
},
{
position = "{-5, 460}";
},
{
position = "{-5, 472}";
}
);
layerId = "59118767-2CA9-48AA-9373-694D24C960D8";
name = Regular;
paths = (
{
closed = 1;
nodes = (
"198 403 LINE",
"161 264 OFFCURVE",
"140 152 OFFCURVE",
"141 71 CURVE SMOOTH",
"142 9 OFFCURVE",
"167 -9 OFFCURVE",
"209 -9 CURVE SMOOTH",
"285 -9 OFFCURVE",
"308 46 OFFCURVE",
"308 64 CURVE SMOOTH",
"308 83 OFFCURVE",
"281 80 OFFCURVE",
"264 101 CURVE SMOOTH",
"253 114 OFFCURVE",
"245 137 OFFCURVE",
"245 177 CURVE SMOOTH",
"245 242 OFFCURVE",
"248 317 OFFCURVE",
"261 383 CURVE SMOOTH",
"264 397 OFFCURVE",
"260 389 OFFCURVE",
"264 407 CURVE"
);
},
{
closed = 1;
nodes = (
"245 177 LINE",
"245 279 OFFCURVE",
"263 372 OFFCURVE",
"283 445 CURVE SMOOTH",
"286 454 OFFCURVE",
"285 461 OFFCURVE",
"276 467 CURVE SMOOTH",
"261 478 OFFCURVE",
"242 478 OFFCURVE",
"227 466 CURVE SMOOTH",
"178 429 OFFCURVE",
"130 398 OFFCURVE",
"48 392 CURVE SMOOTH",
"34 391 OFFCURVE",
"20 381 OFFCURVE",
"20 352 CURVE SMOOTH",
"20 318 OFFCURVE",
"40 283 OFFCURVE",
"74 283 CURVE SMOOTH",
"117 283 OFFCURVE",
"193 341 OFFCURVE",
"215 374 CURVE"
);
}
);
width = 364;
}
);
note = one;
unicode = 0031;
},
{
glyphname = two;
lastChange = "2015-12-24 10:46:09 +0000";
layers = (
{
guideLines = (
{
position = "{-18, -198}";
},
{
position = "{-18, -210}";
},
{
position = "{-16, 460}";
},
{
position = "{-16, 472}";
}
);
layerId = "59118767-2CA9-48AA-9373-694D24C960D8";
name = Regular;
paths = (
{
closed = 1;
nodes = (
"348 -9 OFFCURVE",
"418 14 OFFCURVE",
"418 84 CURVE SMOOTH",
"418 123 OFFCURVE",
"397 146 OFFCURVE",
"382 146 CURVE SMOOTH",
"371 146 OFFCURVE",
"366 134 OFFCURVE",
"350 123 CURVE SMOOTH",
"331 109 OFFCURVE",
"295 96 OFFCURVE",
"234 96 CURVE SMOOTH",
"204 96 OFFCURVE",
"153 97 OFFCURVE",
"124 100 CURVE",
"127 89 LINE",
"190 114 OFFCURVE",
"272 162 OFFCURVE",
"328 229 CURVE SMOOTH",
"356 261 OFFCURVE",
"380 306 OFFCURVE",
"380 353 CURVE SMOOTH",
"380 426 OFFCURVE",
"320 472 OFFCURVE",
"232 472 CURVE SMOOTH",
"177 472 OFFCURVE",
"125 455 OFFCURVE",
"90 432 CURVE SMOOTH",
"55 410 OFFCURVE",
"44 388 OFFCURVE",
"44 364 CURVE SMOOTH",
"44 343 OFFCURVE",
"53 321 OFFCURVE",
"72 321 CURVE SMOOTH",
"89 321 OFFCURVE",
"101 334 OFFCURVE",
"134 346 CURVE SMOOTH",
"156 354 OFFCURVE",
"188 361 OFFCURVE",
"214 361 CURVE SMOOTH",
"252 361 OFFCURVE",
"277 344 OFFCURVE",
"277 316 CURVE SMOOTH",
"277 288 OFFCURVE",
"255 255 OFFCURVE",
"209 215 CURVE SMOOTH",
"165 176 OFFCURVE",
"105 144 OFFCURVE",
"43 114 CURVE",
"26 107 OFFCURVE",
"15 92 OFFCURVE",
"15 71 CURVE SMOOTH",
"15 56 OFFCURVE",
"21 38 OFFCURVE",
"27 29 CURVE SMOOTH",
"46 -1 OFFCURVE",
"114 -9 OFFCURVE",
"206 -9 CURVE SMOOTH"
);
}
);
width = 457;
}
);
note = two;
unicode = 0032;
},
{
glyphname = three;
lastChange = "2015-12-24 10:46:09 +0000";
layers = (
{
guideLines = (
{
position = "{-21, -212}";
},
{
position = "{-21, -224}";
},
{
position = "{-19, 460}";
},
{
position = "{-19, 472}";
}
);
layerId = "59118767-2CA9-48AA-9373-694D24C960D8";
name = Regular;
paths = (
{
closed = 1;
nodes = (
"56 -226 OFFCURVE",
"145 -226 CURVE SMOOTH",
"287 -226 OFFCURVE",
"399 -126 OFFCURVE",
"399 12 CURVE SMOOTH",
"399 112 OFFCURVE",
"336 171 OFFCURVE",
"234 175 CURVE",
"230 146 LINE",
"302 158 OFFCURVE",
"384 239 OFFCURVE",
"384 334 CURVE SMOOTH",
"384 416 OFFCURVE",
"324 472 OFFCURVE",
"222 472 CURVE SMOOTH",
"177 472 OFFCURVE",
"126 462 OFFCURVE",
"81 431 CURVE SMOOTH",
"49 410 OFFCURVE",
"39 388 OFFCURVE",
"38 365 CURVE SMOOTH",
"38 345 OFFCURVE",
"45 319 OFFCURVE",
"65 319 CURVE SMOOTH",
"79 319 OFFCURVE",
"94 335 OFFCURVE",
"127 347 CURVE SMOOTH",
"144 355 OFFCURVE",
"168 361 OFFCURVE",
"197 361 CURVE SMOOTH",
"242 361 OFFCURVE",
"281 344 OFFCURVE",
"281 294 CURVE SMOOTH",
"281 226 OFFCURVE",
"210 193 OFFCURVE",
"169 174 CURVE SMOOTH",
"154 167 OFFCURVE",
"147 158 OFFCURVE",
"146 143 CURVE SMOOTH",
"146 131 OFFCURVE",
"150 112 OFFCURVE",
"155 101 CURVE SMOOTH",
"161 85 OFFCURVE",
"170 81 OFFCURVE",
"181 80 CURVE SMOOTH",
"207 77 OFFCURVE",
"234 71 OFFCURVE",
"256 62 CURVE SMOOTH",
"288 49 OFFCURVE",
"321 23 OFFCURVE",
"319 -23 CURVE SMOOTH",
"317 -82 OFFCURVE",
"267 -116 OFFCURVE",
"194 -116 CURVE SMOOTH",
"125 -116 OFFCURVE",
"84 -84 OFFCURVE",
"67 -62 CURVE SMOOTH",
"55 -47 OFFCURVE",
"48 -40 OFFCURVE",
"36 -40 CURVE SMOOTH",
"17 -40 OFFCURVE",
"-16 -58 OFFCURVE",
"-16 -111 CURVE SMOOTH",
"-16 -185 OFFCURVE"
);
}
);
width = 451;
}
);
note = three;
unicode = 0033;
},
{
glyphname = four;
lastChange = "2015-12-24 10:46:09 +0000";
layers = (
{
guideLines = (
{
position = "{-27, -212}";
},
{
position = "{-27, -224}";
},
{
position = "{-25, 460}";
},
{
position = "{-25, 472}";
}
);
layerId = "59118767-2CA9-48AA-9373-694D24C960D8";
name = Regular;
paths = (
{
closed = 1;
nodes = (
"446 -7 OFFCURVE",
"476 52 OFFCURVE",
"476 85 CURVE SMOOTH",
"476 95 OFFCURVE",
"473 101 OFFCURVE",
"470 104 CURVE SMOOTH",
"464 110 OFFCURVE",
"449 111 OFFCURVE",
"424 111 CURVE SMOOTH",
"403 111 OFFCURVE",
"351 110 OFFCURVE",
"312 108 CURVE",
"374 60 LINE",
"377 100 OFFCURVE",
"382 145 OFFCURVE",
"388 185 CURVE SMOOTH",
"400 267 OFFCURVE",
"413 356 OFFCURVE",
"413 424 CURVE SMOOTH",
"413 444 OFFCURVE",
"412 463 OFFCURVE",
"399 472 CURVE SMOOTH",
"392 477 OFFCURVE",
"382 479 OFFCURVE",
"374 479 CURVE SMOOTH",
"356 479 OFFCURVE",
"331 464 OFFCURVE",
"297 439 CURVE SMOOTH",
"216 376 OFFCURVE",
"93 254 OFFCURVE",
"33 134 CURVE SMOOTH",
"19 107 OFFCURVE",
"10 84 OFFCURVE",
"10 64 CURVE SMOOTH",
"10 26 OFFCURVE",
"42 -9 OFFCURVE",
"86 -9 CURVE SMOOTH",
"115 -9 OFFCURVE",
"236 -5 OFFCURVE",
"274 -5 CURVE",
"266 -54 OFFCURVE",
"260 -108 OFFCURVE",
"260 -140 CURVE SMOOTH",
"261 -200 OFFCURVE",
"284 -218 OFFCURVE",
"324 -218 CURVE SMOOTH",
"395 -218 OFFCURVE",
"416 -164 OFFCURVE",
"416 -145 CURVE SMOOTH",
"416 -126 OFFCURVE",
"395 -129 OFFCURVE",
"379 -110 CURVE SMOOTH",
"368 -95 OFFCURVE",
"362 -76 OFFCURVE",
"362 -29 CURVE SMOOTH",
"362 -4 OFFCURVE",
"365 18 OFFCURVE",
"368 39 CURVE",
"320 -11 LINE",
"338 -6 OFFCURVE",
"352 -5 OFFCURVE",
"364 -5 CURVE SMOOTH",
"374 -5 OFFCURVE",
"407 -6 OFFCURVE",
"415 -6 CURVE SMOOTH"
);
},
{
closed = 1;
nodes = (
"165 224 OFFCURVE",
"230 279 OFFCURVE",
"280 315 CURVE SMOOTH",
"290 322 OFFCURVE",
"298 326 OFFCURVE",
"304 326 CURVE SMOOTH",
"311 326 OFFCURVE",
"314 320 OFFCURVE",
"314 309 CURVE SMOOTH",
"314 279 OFFCURVE",
"297 160 OFFCURVE",
"289 109 CURVE",
"146 100 LINE SMOOTH",
"126 99 OFFCURVE",
"113 107 OFFCURVE",
"113 123 CURVE SMOOTH",
"113 129 OFFCURVE",
"115 135 OFFCURVE",
"119 142 CURVE SMOOTH"
);
}
);
width = 512;
}
);
note = four;
unicode = 0034;
},
{
glyphname = five;
lastChange = "2015-12-24 10:46:09 +0000";
layers = (
{
guideLines = (
{
position = "{-5, -211}";
},
{
position = "{-5, -223}";
},
{
position = "{-3, 460}";
},
{
position = "{-3, 472}";
}
);
layerId = "59118767-2CA9-48AA-9373-694D24C960D8";
name = Regular;
paths = (
{
closed = 1;
nodes = (
"286 238 OFFCURVE",
"211 255 OFFCURVE",
"143 254 CURVE",
"158 360 LINE",
"180 357 OFFCURVE",
"205 355 OFFCURVE",
"229 355 CURVE SMOOTH",
"244 355 OFFCURVE",
"259 354 OFFCURVE",
"273 354 CURVE SMOOTH",
"368 354 OFFCURVE",
"422 367 OFFCURVE",
"422 443 CURVE SMOOTH",
"422 478 OFFCURVE",
"402 502 OFFCURVE",
"389 502 CURVE SMOOTH",
"378 502 OFFCURVE",
"375 491 OFFCURVE",
"360 480 CURVE",
"341 467 OFFCURVE",
"310 460 OFFCURVE",
"262 460 CURVE SMOOTH",
"202 460 OFFCURVE",
"153 463 OFFCURVE",
"105 469 CURVE",
"83 473 OFFCURVE",
"74 457 OFFCURVE",
"74 435 CURVE SMOOTH",
"74 355 OFFCURVE",
"72 255 OFFCURVE",
"57 176 CURVE SMOOTH",
"53 158 OFFCURVE",
"71 144 OFFCURVE",
"90 144 CURVE SMOOTH",
"102 144 OFFCURVE",
"114 148 OFFCURVE",
"136 147 CURVE",
"233 147 OFFCURVE",
"342 79 OFFCURVE",
"340 -9 CURVE SMOOTH",
"339 -67 OFFCURVE",
"299 -108 OFFCURVE",
"226 -108 CURVE SMOOTH",
"181 -108 OFFCURVE",
"139 -92 OFFCURVE",
"110 -56 CURVE SMOOTH",
"98 -40 OFFCURVE",
"92 -34 OFFCURVE",
"81 -34 CURVE SMOOTH",
"62 -34 OFFCURVE",
"31 -54 OFFCURVE",
"31 -106 CURVE SMOOTH",
"31 -183 OFFCURVE",
"100 -221 OFFCURVE",
"180 -221 CURVE SMOOTH",
"320 -221 OFFCURVE",
"424 -105 OFFCURVE",
"425 29 CURVE SMOOTH",
"425 95 OFFCURVE",
"398 158 OFFCURVE",
"338 202 CURVE SMOOTH"
);
}
);
width = 471;
}
);
note = five;
unicode = 0035;
},
{
glyphname = six;
lastChange = "2015-12-24 10:46:09 +0000";
layers = (
{
guideLines = (
{
position = "{25, -198}";
},
{
position = "{25, -210}";
},
{
position = "{15, 460}";
},
{
position = "{15, 472}";
}
);
layerId = "59118767-2CA9-48AA-9373-694D24C960D8";
name = Regular;
paths = (
{
closed = 1;
nodes = (
"337 95 OFFCURVE",
"268 95 CURVE SMOOTH",
"192 95 OFFCURVE",
"142 160 OFFCURVE",
"140 251 CURVE SMOOTH",
"140 287 OFFCURVE",
"144 317 OFFCURVE",
"154 349 CURVE",
"120 260 LINE",
"158 302 OFFCURVE",
"205 329 OFFCURVE",
"259 329 CURVE SMOOTH",
"328 329 OFFCURVE",
"382 286 OFFCURVE",
"383 213 CURVE SMOOTH",
"384 143 OFFCURVE"
);
},
{
closed = 1;
nodes = (
"462 101 OFFCURVE",
"460 240 CURVE SMOOTH",
"458 362 OFFCURVE",
"393 436 OFFCURVE",
"287 436 CURVE SMOOTH",
"232 436 OFFCURVE",
"180 417 OFFCURVE",
"135 369 CURVE",
"151 368 LINE",
"179 487 OFFCURVE",
"265 560 OFFCURVE",
"366 560 CURVE SMOOTH",
"382 560 OFFCURVE",
"388 558 OFFCURVE",
"402 557 CURVE",
"424 557 OFFCURVE",
"444 603 OFFCURVE",
"444 640 CURVE SMOOTH",
"443 664 OFFCURVE",
"434 677 OFFCURVE",
"404 678 CURVE SMOOTH",
"368 679 OFFCURVE",
"318 665 OFFCURVE",
"278 644 CURVE SMOOTH",
"148 574 OFFCURVE",
"53 415 OFFCURVE",
"57 226 CURVE SMOOTH",
"60 85 OFFCURVE",
"114 -14 OFFCURVE",
"240 -14 CURVE SMOOTH",
"373 -14 OFFCURVE"
);
}
);
width = 524;
}
);
note = six;
unicode = 0036;
},
{
glyphname = seven;
lastChange = "2015-12-24 10:46:09 +0000";
layers = (
{
guideLines = (
{
position = "{-19, -212}";
},
{
position = "{-19, -224}";
},
{
position = "{-17, 460}";
},
{
position = "{-17, 472}";
}
);
layerId = "59118767-2CA9-48AA-9373-694D24C960D8";
name = Regular;
paths = (
{
closed = 1;
nodes = (
"209 -221 OFFCURVE",
"249 -179 OFFCURVE",
"249 -152 CURVE SMOOTH",
"249 -127 OFFCURVE",
"216 -109 OFFCURVE",
"216 -59 CURVE SMOOTH",
"216 -25 OFFCURVE",
"225 12 OFFCURVE",
"242 55 CURVE SMOOTH",
"280 151 OFFCURVE",
"357 281 OFFCURVE",
"443 402 CURVE SMOOTH",
"449 411 OFFCURVE",
"451 419 OFFCURVE",
"451 427 CURVE SMOOTH",
"451 442 OFFCURVE",
"437 469 OFFCURVE",
"418 469 CURVE SMOOTH",
"411 469 OFFCURVE",
"339 457 OFFCURVE",
"252 457 CURVE SMOOTH",
"188 457 OFFCURVE",
"144 462 OFFCURVE",
"114 467 CURVE SMOOTH",
"81 473 OFFCURVE",
"64 479 OFFCURVE",
"54 479 CURVE SMOOTH",
"34 479 OFFCURVE",
"18 442 OFFCURVE",
"18 400 CURVE SMOOTH",
"18 375 OFFCURVE",
"24 364 OFFCURVE",
"40 355 CURVE SMOOTH",
"52 350 OFFCURVE",
"72 348 OFFCURVE",
"106 348 CURVE SMOOTH",
"184 348 OFFCURVE",
"328 357 OFFCURVE",
"388 375 CURVE",
"367 402 LINE",
"279 299 OFFCURVE",
"187 157 OFFCURVE",
"133 33 CURVE SMOOTH",
"105 -31 OFFCURVE",
"88 -93 OFFCURVE",
"88 -152 CURVE SMOOTH",
"88 -201 OFFCURVE",
"108 -221 OFFCURVE",
"149 -221 CURVE SMOOTH"
);
}
);
width = 475;
}
);
note = seven;
unicode = 0037;
},
{
glyphname = eight;
lastChange = "2015-12-24 10:46:09 +0000";
layers = (
{
guideLines = (
{
position = "{-110, 460}";
},
{
position = "{-110, 472}";
},
{
position = "{-120, -198}";
},
{
position = "{-120, -210}";
}
);
layerId = "59118767-2CA9-48AA-9373-694D24C960D8";
name = Regular;
paths = (
{
closed = 1;
nodes = (
"182 351 LINE",
"125 324 OFFCURVE",
"44 260 OFFCURVE",
"44 155 CURVE SMOOTH",
"44 68 OFFCURVE",
"93 -14 OFFCURVE",
"225 -14 CURVE SMOOTH",
"357 -14 OFFCURVE",
"457 73 OFFCURVE",
"457 191 CURVE SMOOTH",
"457 284 OFFCURVE",
"392 336 OFFCURVE",
"334 360 CURVE",
"300 381 LINE",
"236 411 OFFCURVE",
"173 452 OFFCURVE",
"173 514 CURVE SMOOTH",
"173 554 OFFCURVE",
"196 585 OFFCURVE",
"231 610 CURVE",
"205 615 LINE",
"188 616 OFFCURVE",
"151 599 OFFCURVE",
"129 573 CURVE SMOOTH",
"110 552 OFFCURVE",
"85 523 OFFCURVE",
"85 469 CURVE SMOOTH",
"85 397 OFFCURVE",
"126 351 OFFCURVE",
"171 333 CURVE",
"183 311 LINE",
"228 299 OFFCURVE",
"272 281 OFFCURVE",
"307 259 CURVE SMOOTH",
"350 234 OFFCURVE",
"377 204 OFFCURVE",
"377 167 CURVE SMOOTH",
"377 113 OFFCURVE",
"326 88 OFFCURVE",
"271 88 CURVE SMOOTH",
"208 88 OFFCURVE",
"143 122 OFFCURVE",
"143 195 CURVE SMOOTH",
"143 243 OFFCURVE",
"176 282 OFFCURVE",
"225 307 CURVE"
);
},
{
closed = 1;
nodes = (
"288 320 LINE",
"376 342 OFFCURVE",
"453 423 OFFCURVE",
"453 525 CURVE SMOOTH",
"453 621 OFFCURVE",
"382 684 OFFCURVE",
"271 684 CURVE SMOOTH",
"189 684 OFFCURVE",
"125 650 OFFCURVE",
"97 629 CURVE SMOOTH",
"86 620 OFFCURVE",
"70 605 OFFCURVE",
"70 579 CURVE SMOOTH",
"70 563 OFFCURVE",
"76 534 OFFCURVE",
"90 534 CURVE SMOOTH",
"99 534 OFFCURVE",
"111 544 OFFCURVE",
"133 553 CURVE",
"166 556 LINE",
"190 567 OFFCURVE",
"221 581 OFFCURVE",
"260 581 CURVE SMOOTH",
"321 581 OFFCURVE",
"362 547 OFFCURVE",
"362 487 CURVE SMOOTH",
"362 427 OFFCURVE",
"320 400 OFFCURVE",
"255 368 CURVE"
);
}
);
width = 509;
}
);
note = eight;
unicode = 0038;
},
{
glyphname = nine;
lastChange = "2015-12-24 10:46:09 +0000";
layers = (
{
guideLines = (
{
position = "{-80, -212}";
},
{
position = "{-80, -224}";
},
{
position = "{-90, 460}";
},
{
position = "{-90, 472}";
}
);
layerId = "59118767-2CA9-48AA-9373-694D24C960D8";
name = Regular;
paths = (
{
closed = 1;
nodes = (
"176 363 OFFCURVE",
"245 363 CURVE SMOOTH",
"321 363 OFFCURVE",
"373 299 OFFCURVE",
"373 205 CURVE SMOOTH",
"373 171 OFFCURVE",
"369 141 OFFCURVE",
"359 109 CURVE",
"393 198 LINE",
"355 156 OFFCURVE",
"308 129 OFFCURVE",
"254 129 CURVE SMOOTH",
"185 129 OFFCURVE",
"131 172 OFFCURVE",
"130 243 CURVE SMOOTH",
"129 310 OFFCURVE"
);
},
{
closed = 1;
nodes = (
"51 358 OFFCURVE",
"53 216 CURVE SMOOTH",
"55 96 OFFCURVE",
"124 22 OFFCURVE",
"230 22 CURVE SMOOTH",
"285 22 OFFCURVE",
"333 41 OFFCURVE",
"378 89 CURVE",
"365 90 LINE",
"337 -29 OFFCURVE",
"248 -102 OFFCURVE",
"147 -102 CURVE SMOOTH",
"131 -102 OFFCURVE",
"125 -100 OFFCURVE",
"111 -99 CURVE",
"89 -99 OFFCURVE",
"69 -145 OFFCURVE",
"69 -182 CURVE SMOOTH",
"70 -206 OFFCURVE",
"79 -219 OFFCURVE",
"109 -220 CURVE SMOOTH",
"145 -221 OFFCURVE",
"195 -207 OFFCURVE",
"235 -186 CURVE SMOOTH",
"365 -116 OFFCURVE",
"460 43 OFFCURVE",
"456 230 CURVE SMOOTH",
"453 369 OFFCURVE",
"395 472 OFFCURVE",
"269 472 CURVE SMOOTH",
"136 472 OFFCURVE"
);
}
);
width = 524;
}
);
note = nine;
unicode = 0039;
},
{
color = 8;
glyphname = zero.lf;
lastChange = "2015-12-24 10:46:09 +0000";
layers = (
{
layerId = "59118767-2CA9-48AA-9373-694D24C960D8";
name = Regular;
paths = (
{
closed = 1;
nodes = (
"421 -14 OFFCURVE",
"512 142 OFFCURVE",
"512 383 CURVE SMOOTH",
"512 594 OFFCURVE",
"432 685 OFFCURVE",
"312 685 CURVE SMOOTH",
"154 685 OFFCURVE",
"63 537 OFFCURVE",
"63 289 CURVE SMOOTH",
"63 84 OFFCURVE",
"143 -14 OFFCURVE",
"263 -14 CURVE SMOOTH"
);
},
{
closed = 1;
nodes = (
"202 106 OFFCURVE",
"141 181 OFFCURVE",
"141 323 CURVE SMOOTH",
"141 484 OFFCURVE",
"201 570 OFFCURVE",
"290 570 CURVE SMOOTH",
"374 570 OFFCURVE",
"435 499 OFFCURVE",
"435 349 CURVE SMOOTH",
"435 197 OFFCURVE",
"375 106 OFFCURVE",
"286 106 CURVE SMOOTH"
);
}
);
width = 575;
}
);
},
{
color = 8;
glyphname = one.lf;
lastChange = "2015-12-24 10:46:09 +0000";
layers = (
{
layerId = "59118767-2CA9-48AA-9373-694D24C960D8";
name = Regular;
paths = (
{
closed = 1;
nodes = (
"254 126 OFFCURVE",
"247 193 OFFCURVE",
"250 297 CURVE SMOOTH",
"255 452 OFFCURVE",
"272 585 OFFCURVE",
"291 658 CURVE",
"294 667 OFFCURVE",
"293 674 OFFCURVE",
"284 680 CURVE",
"269 691 OFFCURVE",
"251 690 OFFCURVE",
"235 679 CURVE SMOOTH",
"186 644 OFFCURVE",
"125 617 OFFCURVE",
"38 605 CURVE SMOOTH",
"24 603 OFFCURVE",
"10 574 OFFCURVE",
"10 545 CURVE SMOOTH",
"9 511 OFFCURVE",
"29 496 OFFCURVE",
"60 496 CURVE SMOOTH",
"108 496 OFFCURVE",
"181 537 OFFCURVE",
"212 566 CURVE",
"199 580 LINE",
"166 439 OFFCURVE",
"141 207 OFFCURVE",
"141 87 CURVE SMOOTH",
"140 9 OFFCURVE",
"166 -9 OFFCURVE",
"208 -9 CURVE SMOOTH",
"284 -9 OFFCURVE",
"308 46 OFFCURVE",
"308 64 CURVE SMOOTH",
"308 86 OFFCURVE",
"276 85 OFFCURVE",
"264 108 CURVE SMOOTH"
);
}
);
width = 366;
}
);
},
{
color = 8;
glyphname = two.lf;
lastChange = "2015-12-24 10:46:09 +0000";
layers = (
{
layerId = "59118767-2CA9-48AA-9373-694D24C960D8";
name = Regular;
paths = (
{
closed = 1;
nodes = (
"361 -9 OFFCURVE",
"431 17 OFFCURVE",
"431 87 CURVE SMOOTH",
"431 126 OFFCURVE",
"410 149 OFFCURVE",
"395 149 CURVE SMOOTH",
"384 149 OFFCURVE",
"379 137 OFFCURVE",
"363 126 CURVE SMOOTH",
"344 112 OFFCURVE",
"308 99 OFFCURVE",
"243 99 CURVE SMOOTH",
"213 99 OFFCURVE",
"145 100 OFFCURVE",
"116 103 CURVE",
"101 78 LINE",
"146 103 OFFCURVE",
"194 146 OFFCURVE",
"241 193 CURVE SMOOTH",
"329 286 OFFCURVE",
"403 409 OFFCURVE",
"403 515 CURVE SMOOTH",
"403 621 OFFCURVE",
"332 684 OFFCURVE",
"227 684 CURVE SMOOTH",
"169 684 OFFCURVE",
"122 664 OFFCURVE",
"85 638 CURVE SMOOTH",
"53 615 OFFCURVE",
"41 599 OFFCURVE",
"41 573 CURVE SMOOTH",
"41 551 OFFCURVE",
"50 527 OFFCURVE",
"70 527 CURVE SMOOTH",
"81 527 OFFCURVE",
"93 534 OFFCURVE",
"106 543 CURVE SMOOTH",
"132 560 OFFCURVE",
"170 573 OFFCURVE",
"205 573 CURVE SMOOTH",
"248 573 OFFCURVE",
"301 553 OFFCURVE",
"301 475 CURVE SMOOTH",
"301 414 OFFCURVE",
"267 345 OFFCURVE",
"218 283 CURVE SMOOTH",
"164 213 OFFCURVE",
"101 156 OFFCURVE",
"35 115 CURVE SMOOTH",
"17 103 OFFCURVE",
"7 92 OFFCURVE",
"7 71 CURVE SMOOTH",
"7 56 OFFCURVE",
"13 38 OFFCURVE",
"19 29 CURVE SMOOTH",
"37 -1 OFFCURVE",
"123 -9 OFFCURVE",
"215 -9 CURVE SMOOTH"
);
}
);
width = 465;
}
);
},
{
glyphname = threesuperior.001;
lastChange = "2015-12-24 10:46:09 +0000";
layers = (
{
guideLines = (
{
position = "{38, 743}";
},
{
position = "{28, 316}";
}
);
layerId = "59118767-2CA9-48AA-9373-694D24C960D8";
name = Regular;
paths = (
{
closed = 1;
nodes = (
"12 21 OFFCURVE",
"56 -9 OFFCURVE",
"125 -9 CURVE SMOOTH",
"227 -9 OFFCURVE",
"298 57 OFFCURVE",
"298 138 CURVE SMOOTH",
"298 206 OFFCURVE",
"248 242 OFFCURVE",
"164 242 CURVE",
"167 220 LINE",
"227 224 OFFCURVE",
"283 273 OFFCURVE",
"283 334 CURVE SMOOTH",
"283 387 OFFCURVE",
"241 424 OFFCURVE",
"167 424 CURVE SMOOTH",
"127 424 OFFCURVE",
"93 412 OFFCURVE",
"69 396 CURVE SMOOTH",
"48 382 OFFCURVE",
"42 368 OFFCURVE",
"42 351 CURVE SMOOTH",
"42 328 OFFCURVE",
"53 319 OFFCURVE",
"62 319 CURVE SMOOTH",
"69 319 OFFCURVE",
"80 324 OFFCURVE",
"92 330 CURVE SMOOTH",
"110 339 OFFCURVE",
"130 344 OFFCURVE",
"154 344 CURVE SMOOTH",
"184 344 OFFCURVE",
"208 336 OFFCURVE",
"208 310 CURVE SMOOTH",
"208 277 OFFCURVE",
"168 253 OFFCURVE",
"131 241 CURVE SMOOTH",
"119 237 OFFCURVE",
"113 232 OFFCURVE",
"112 221 CURVE",
"112 213 OFFCURVE",
"115 201 OFFCURVE",
"119 192 CURVE SMOOTH",
"123 182 OFFCURVE",
"131 178 OFFCURVE",
"143 177 CURVE SMOOTH",
"158 176 OFFCURVE",
"178 173 OFFCURVE",
"195 166 CURVE SMOOTH",
"223 155 OFFCURVE",
"234 138 OFFCURVE",
"234 120 CURVE SMOOTH",
"234 89 OFFCURVE",
"204 70 OFFCURVE",
"158 70 CURVE SMOOTH",
"112 70 OFFCURVE",
"80 89 OFFCURVE",
"70 101 CURVE SMOOTH",
"61 111 OFFCURVE",
"54 116 OFFCURVE",
"46 116 CURVE SMOOTH",
"30 116 OFFCURVE",
"11 94 OFFCURVE",
"11 66 CURVE SMOOTH"
);
}
);
width = 301;
}
);
},
{
glyphname = onesuperior;
lastChange = "2015-12-24 10:46:09 +0000";
layers = (
{
guideLines = (
{
position = "{-31, 743}";
},
{
position = "{-44, 314}";
}
);
layerId = "59118767-2CA9-48AA-9373-694D24C960D8";
name = Regular;
paths = (
{
closed = 1;
nodes = (
"201 409 OFFCURVE",
"196 451 OFFCURVE",
"197 506 CURVE SMOOTH",
"199 596 OFFCURVE",
"211 678 OFFCURVE",
"221 722 CURVE",
"224 731 OFFCURVE",
"222 734 OFFCURVE",
"212 740 CURVE SMOOTH",
"202 748 OFFCURVE",
"184 748 OFFCURVE",
"171 739 CURVE SMOOTH",
"132 714 OFFCURVE",
"83 701 OFFCURVE",
"32 695 CURVE",
"22 692 OFFCURVE",
"15 665 OFFCURVE",
"15 649 CURVE SMOOTH",
"15 627 OFFCURVE",
"29 620 OFFCURVE",
"48 620 CURVE SMOOTH",
"91 620 OFFCURVE",
"153 650 OFFCURVE",
"170 667 CURVE",
"147 687 LINE",
"124 600 OFFCURVE",
"109 452 OFFCURVE",
"110 375 CURVE SMOOTH",
"110 331 OFFCURVE",
"126 312 OFFCURVE",
"164 312 CURVE SMOOTH",
"222 312 OFFCURVE",
"233 350 OFFCURVE",
"233 361 CURVE",
"232 374 OFFCURVE",
"216 383 OFFCURVE",
"208 396 CURVE SMOOTH"
);
}
);
width = 286;
}
);
unicode = 00B9;
},
{
glyphname = twosuperior;
lastChange = "2015-12-24 10:46:09 +0000";
layers = (
{
guideLines = (
{
position = "{-34, 743}";
},
{
position = "{-45, 293}";
}
);
layerId = "59118767-2CA9-48AA-9373-694D24C960D8";
name = Regular;
paths = (
{
closed = 1;
nodes = (
"285 309 OFFCURVE",
"332 329 OFFCURVE",
"331 375 CURVE SMOOTH",
"330 400 OFFCURVE",
"319 420 OFFCURVE",
"307 420 CURVE SMOOTH",
"295 420 OFFCURVE",
"288 410 OFFCURVE",
"277 404 CURVE SMOOTH",
"262 396 OFFCURVE",
"237 388 OFFCURVE",
"195 388 CURVE SMOOTH",
"171 388 OFFCURVE",
"115 389 OFFCURVE",
"102 390 CURVE",
"75 353 LINE",
"108 366 OFFCURVE",
"153 394 OFFCURVE",
"197 435 CURVE SMOOTH",
"267 499 OFFCURVE",
"310 575 OFFCURVE",
"309 634 CURVE SMOOTH",
"308 700 OFFCURVE",
"256 743 OFFCURVE",
"178 743 CURVE SMOOTH",
"143 743 OFFCURVE",
"108 734 OFFCURVE",
"72 710 CURVE SMOOTH",
"53 697 OFFCURVE",
"41 684 OFFCURVE",
"41 664 CURVE SMOOTH",
"41 645 OFFCURVE",
"50 629 OFFCURVE",
"65 629 CURVE SMOOTH",
"77 629 OFFCURVE",
"83 637 OFFCURVE",
"101 646 CURVE SMOOTH",
"129 660 OFFCURVE",
"150 663 OFFCURVE",
"164 663 CURVE SMOOTH",
"199 663 OFFCURVE",
"219 645 OFFCURVE",
"220 610 CURVE SMOOTH",
"221 577 OFFCURVE",
"202 537 OFFCURVE",
"168 497 CURVE SMOOTH",
"132 455 OFFCURVE",
"91 420 OFFCURVE",
"48 396 CURVE SMOOTH",
"30 386 OFFCURVE",
"25 378 OFFCURVE",
"25 365 CURVE SMOOTH",
"25 355 OFFCURVE",
"28 344 OFFCURVE",
"35 335 CURVE",
"47 317 OFFCURVE",
"97 309 OFFCURVE",
"177 309 CURVE SMOOTH"
);
}
);
width = 352;
}
);
unicode = 00B2;
},
{
glyphname = threesuperior;
lastChange = "2015-12-24 10:46:09 +0000";
layers = (
{
guideLines = (
{
position = "{50, 743}";
},
{
position = "{40, 316}";
}
);
layerId = "59118767-2CA9-48AA-9373-694D24C960D8";
name = Regular;
paths = (
{
closed = 1;
nodes = (
"24 340 OFFCURVE",
"68 310 OFFCURVE",
"137 310 CURVE SMOOTH",
"239 310 OFFCURVE",
"310 376 OFFCURVE",
"310 457 CURVE SMOOTH",
"310 525 OFFCURVE",
"260 561 OFFCURVE",
"176 561 CURVE",
"179 539 LINE",
"239 543 OFFCURVE",
"295 592 OFFCURVE",
"295 653 CURVE SMOOTH",
"295 706 OFFCURVE",
"253 743 OFFCURVE",
"179 743 CURVE SMOOTH",
"139 743 OFFCURVE",
"105 731 OFFCURVE",
"81 715 CURVE SMOOTH",
"60 701 OFFCURVE",
"54 687 OFFCURVE",
"54 670 CURVE SMOOTH",
"54 647 OFFCURVE",
"65 638 OFFCURVE",
"74 638 CURVE SMOOTH",
"81 638 OFFCURVE",
"92 643 OFFCURVE",
"104 649 CURVE SMOOTH",
"122 658 OFFCURVE",
"142 663 OFFCURVE",
"166 663 CURVE SMOOTH",
"196 663 OFFCURVE",
"220 655 OFFCURVE",
"220 629 CURVE SMOOTH",
"220 596 OFFCURVE",
"180 572 OFFCURVE",
"143 560 CURVE SMOOTH",
"131 556 OFFCURVE",
"125 551 OFFCURVE",
"124 540 CURVE",
"124 532 OFFCURVE",
"127 520 OFFCURVE",
"131 511 CURVE SMOOTH",
"135 501 OFFCURVE",
"143 497 OFFCURVE",
"155 496 CURVE SMOOTH",
"170 495 OFFCURVE",
"190 492 OFFCURVE",
"207 485 CURVE SMOOTH",
"235 474 OFFCURVE",
"246 457 OFFCURVE",
"246 439 CURVE SMOOTH",
"246 408 OFFCURVE",
"216 389 OFFCURVE",
"170 389 CURVE SMOOTH",
"124 389 OFFCURVE",
"92 408 OFFCURVE",
"82 420 CURVE SMOOTH",
"73 430 OFFCURVE",
"66 435 OFFCURVE",
"58 435 CURVE SMOOTH",
"42 435 OFFCURVE",
"23 413 OFFCURVE",
"23 385 CURVE SMOOTH"
);
}
);
width = 331;
}
);
unicode = 00B3;
},
{
glyphname = foursuperior;
lastChange = "2015-12-24 10:46:09 +0000";
layers = (
{
layerId = "59118767-2CA9-48AA-9373-694D24C960D8";
name = Regular;
paths = (
{
closed = 1;
nodes = (
"307 431 OFFCURVE",
"326 476 OFFCURVE",
"326 498 CURVE SMOOTH",
"326 505 OFFCURVE",
"324 512 OFFCURVE",
"317 513 CURVE",
"314 513 OFFCURVE",
"306 513 OFFCURVE",
"293 513 CURVE SMOOTH",
"280 513 OFFCURVE",
"247 512 OFFCURVE",
"222 511 CURVE",
"261 481 LINE",
"263 506 OFFCURVE",
"266 533 OFFCURVE",
"270 558 CURVE SMOOTH",
"278 610 OFFCURVE",
"286 665 OFFCURVE",
"286 709 CURVE SMOOTH",
"286 722 OFFCURVE",
"285 734 OFFCURVE",
"277 740 CURVE SMOOTH",
"272 743 OFFCURVE",
"266 744 OFFCURVE",
"261 744 CURVE SMOOTH",
"249 744 OFFCURVE",
"233 734 OFFCURVE",
"212 719 CURVE SMOOTH",
"160 679 OFFCURVE",
"66 598 OFFCURVE",
"28 525 CURVE SMOOTH",
"19 508 OFFCURVE",
"14 493 OFFCURVE",
"14 481 CURVE SMOOTH",
"14 456 OFFCURVE",
"33 427 OFFCURVE",
"61 427 CURVE SMOOTH",
"116 429 OFFCURVE",
"172 430 OFFCURVE",
"227 430 CURVE",
"187 478 LINE",
"180 429 OFFCURVE",
"176 389 OFFCURVE",
"176 361 CURVE SMOOTH",
"176 322 OFFCURVE",
"197 311 OFFCURVE",
"230 311 CURVE SMOOTH",
"275 311 OFFCURVE",
"288 345 OFFCURVE",
"288 357 CURVE SMOOTH",
"288 370 OFFCURVE",
"275 368 OFFCURVE",
"265 380 CURVE",
"255 393 OFFCURVE",
"254 412 OFFCURVE",
"254 432 CURVE SMOOTH",
"254 444 OFFCURVE",
"255 456 OFFCURVE",
"258 468 CURVE",
"227 428 LINE",
"247 431 OFFCURVE",
"271 431 OFFCURVE",
"288 431 CURVE SMOOTH"
);
},
{
closed = 1;
nodes = (
"126 563 OFFCURVE",
"159 595 OFFCURVE",
"184 614 CURVE SMOOTH",
"189 617 OFFCURVE",
"193 619 OFFCURVE",
"196 619 CURVE SMOOTH",
"200 619 OFFCURVE",
"201 616 OFFCURVE",
"201 610 CURVE SMOOTH",
"201 595 OFFCURVE",
"193 532 OFFCURVE",
"189 509 CURVE",
"164 507 OFFCURVE",
"139 506 OFFCURVE",
"114 504 CURVE SMOOTH",
"104 503 OFFCURVE",
"98 508 OFFCURVE",
"98 516 CURVE SMOOTH",
"98 519 OFFCURVE",
"99 522 OFFCURVE",
"101 525 CURVE SMOOTH"
);
}
);
width = 349;
}
);
unicode = 2074;
},
{
color = 3;
glyphname = asterisk;
lastChange = "2015-12-24 10:46:09 +0000";
layers = (
{
anchors = (
{
name = _top;
position = "{154, 390}";
}
);
guideLines = (
{
angle = 90;
position = "{191, 511}";
}
);
layerId = "59118767-2CA9-48AA-9373-694D24C960D8";
name = Regular;
paths = (
{
closed = 1;
nodes = (
"146 674 OFFCURVE",
"131 655 OFFCURVE",
"137 625 CURVE SMOOTH",
"140 606 OFFCURVE",
"153 577 OFFCURVE",
"167 551 CURVE SMOOTH",
"178 532 OFFCURVE",
"184 525 OFFCURVE",
"200 527 CURVE SMOOTH",
"216 530 OFFCURVE",
"220 540 OFFCURVE",
"223 561 CURVE SMOOTH",
"228 590 OFFCURVE",
"230 622 OFFCURVE",
"226 640 CURVE SMOOTH",
"221 671 OFFCURVE",
"200 684 OFFCURVE",
"173 679 CURVE SMOOTH"
);
},
{
closed = 1;
nodes = (
"360 606 OFFCURVE",
"337 614 OFFCURVE",
"310 600 CURVE SMOOTH",
"293 591 OFFCURVE",
"269 570 OFFCURVE",
"250 548 CURVE SMOOTH",
"234 532 OFFCURVE",
"229 523 OFFCURVE",
"237 509 CURVE SMOOTH",
"244 495 OFFCURVE",
"255 495 OFFCURVE",
"276 498 CURVE SMOOTH",
"305 503 OFFCURVE",
"336 510 OFFCURVE",
"353 519 CURVE SMOOTH",
"380 534 OFFCURVE",
"386 558 OFFCURVE",
"373 582 CURVE SMOOTH"
);
},
{
closed = 1;
nodes = (
"15 492 OFFCURVE",
"29 472 OFFCURVE",
"60 468 CURVE SMOOTH",
"78 465 OFFCURVE",
"110 468 OFFCURVE",
"138 474 CURVE SMOOTH",
"160 478 OFFCURVE",
"169 482 OFFCURVE",
"172 498 CURVE SMOOTH",
"174 513 OFFCURVE",
"165 520 OFFCURVE",
"146 530 CURVE SMOOTH",
"120 543 OFFCURVE",
"91 555 OFFCURVE",
"72 558 CURVE SMOOTH",
"42 562 OFFCURVE",
"23 546 OFFCURVE",
"19 519 CURVE SMOOTH"
);
},
{
closed = 1;
nodes = (
"148 311 OFFCURVE",
"171 318 OFFCURVE",
"185 346 CURVE SMOOTH",
"193 363 OFFCURVE",
"200 394 OFFCURVE",
"203 422 CURVE SMOOTH",
"206 444 OFFCURVE",
"205 455 OFFCURVE",
"191 462 CURVE SMOOTH",
"177 469 OFFCURVE",
"168 463 OFFCURVE",
"152 448 CURVE SMOOTH",
"132 427 OFFCURVE",
"112 403 OFFCURVE",
"103 386 CURVE SMOOTH",
"90 358 OFFCURVE",
"98 335 OFFCURVE",
"123 323 CURVE SMOOTH"
);
},
{
closed = 1;
nodes = (
"361 381 OFFCURVE",
"362 406 OFFCURVE",
"340 427 CURVE SMOOTH",
"326 440 OFFCURVE",
"299 456 OFFCURVE",
"272 469 CURVE SMOOTH",
"253 477 OFFCURVE",
"242 480 OFFCURVE",
"231 469 CURVE SMOOTH",
"220 457 OFFCURVE",
"223 448 OFFCURVE",
"233 428 CURVE SMOOTH",
"246 402 OFFCURVE",
"263 375 OFFCURVE",
"276 362 CURVE SMOOTH",
"298 341 OFFCURVE",
"323 342 OFFCURVE",
"342 362 CURVE SMOOTH"
);
}
);
width = 399;
}
);
note = asterisk;
unicode = 002A;
},
{
color = 3;
glyphname = comma;
lastChange = "2015-12-24 10:46:09 +0000";
layers = (
{
layerId = "59118767-2CA9-48AA-9373-694D24C960D8";
name = Regular;
paths = (
{
closed = 1;
nodes = (
"87 127 OFFCURVE",
"60 95 OFFCURVE",
"60 61 CURVE SMOOTH",
"60 42 OFFCURVE",
"69 20 OFFCURVE",
"88 10 CURVE SMOOTH",
"106 1 OFFCURVE",
"109 -4 OFFCURVE",
"109 -14 CURVE SMOOTH",
"109 -37 OFFCURVE",
"93 -81 OFFCURVE",
"61 -109 CURVE SMOOTH",
"51 -118 OFFCURVE",
"39 -131 OFFCURVE",
"39 -143 CURVE SMOOTH",
"39 -155 OFFCURVE",
"49 -161 OFFCURVE",
"61 -161 CURVE SMOOTH",
"76 -161 OFFCURVE",
"96 -152 OFFCURVE",
"112 -138 CURVE SMOOTH",
"152 -101 OFFCURVE",
"197 -25 OFFCURVE",
"197 46 CURVE SMOOTH",
"197 103 OFFCURVE",
"169 127 OFFCURVE",
"130 127 CURVE SMOOTH"
);
}
);
width = 256;
}
);
leftKerningGroup = period;
rightKerningGroup = period;
unicode = 002C;
},
{
color = 3;
glyphname = exclam;
lastChange = "2015-12-24 10:46:09 +0000";
layers = (
{
components = (
{
name = period;
transform = "{1, 0, 0, 1, 0, 1}";
}
);
layerId = "59118767-2CA9-48AA-9373-694D24C960D8";
name = Regular;
paths = (
{
closed = 1;
nodes = (
"207 622 OFFCURVE",
"217 594 OFFCURVE",
"219 526 CURVE SMOOTH",
"222 437 OFFCURVE",
"201 290 OFFCURVE",
"186 228 CURVE SMOOTH",
"176 186 OFFCURVE",
"161 180 OFFCURVE",
"137 179 CURVE SMOOTH",
"108 178 OFFCURVE",
"103 188 OFFCURVE",
"105 209 CURVE SMOOTH",
"110 272 OFFCURVE",
"111 340 OFFCURVE",
"109 401 CURVE SMOOTH",
"108 426 OFFCURVE",
"104 471 OFFCURVE",
"100 498 CURVE SMOOTH",
"93 533 OFFCURVE",
"86 555 OFFCURVE",
"85 565 CURVE SMOOTH",
"85 585 OFFCURVE",
"110 620 OFFCURVE",
"160 621 CURVE SMOOTH"
);
}
);
width = 272;
}
);
note = exclam;
unicode = 0021;
},
{
color = 3;
glyphname = period;
lastChange = "2015-12-24 10:46:09 +0000";
layers = (
{
layerId = "59118767-2CA9-48AA-9373-694D24C960D8";
name = Regular;
paths = (
{
closed = 1;
nodes = (
"167 -9 OFFCURVE",
"196 21 OFFCURVE",
"196 63 CURVE SMOOTH",
"196 101 OFFCURVE",
"170 127 OFFCURVE",
"131 127 CURVE SMOOTH",
"90 127 OFFCURVE",
"60 98 OFFCURVE",
"60 57 CURVE SMOOTH",
"60 18 OFFCURVE",
"87 -9 OFFCURVE",
"126 -9 CURVE SMOOTH"
);
}
);
width = 256;
}
);
leftKerningGroup = period;
rightKerningGroup = period;
unicode = 002E;
},
{
color = 3;
glyphname = question;
lastChange = "2015-12-24 10:46:09 +0000";
layers = (
{
components = (
{
name = period;
transform = "{1, 0, 0, 1, 48, 2}";
}
);
layerId = "59118767-2CA9-48AA-9373-694D24C960D8";
name = Regular;
paths = (
{
closed = 1;
nodes = (
"208 172 OFFCURVE",
"249 196 OFFCURVE",
"249 219 CURVE SMOOTH",
"249 239 OFFCURVE",
"224 247 OFFCURVE",
"224 266 CURVE SMOOTH",
"224 279 OFFCURVE",
"237 294 OFFCURVE",
"255 310 CURVE SMOOTH",
"277 331 OFFCURVE",
"308 353 OFFCURVE",
"332 377 CURVE SMOOTH",
"376 421 OFFCURVE",
"391 462 OFFCURVE",
"391 499 CURVE SMOOTH",
"391 571 OFFCURVE",
"334 623 OFFCURVE",
"248 623 CURVE SMOOTH",
"139 623 OFFCURVE",
"55 539 OFFCURVE",
"55 460 CURVE SMOOTH",
"55 412 OFFCURVE",
"87 392 OFFCURVE",
"120 392 CURVE SMOOTH",
"162 392 OFFCURVE",
"179 425 OFFCURVE",
"179 453 CURVE SMOOTH",
"179 462 OFFCURVE",
"176 466 OFFCURVE",
"169 468 CURVE SMOOTH",
"154 473 OFFCURVE",
"140 479 OFFCURVE",
"140 494 CURVE SMOOTH",
"140 516 OFFCURVE",
"172 533 OFFCURVE",
"213 533 CURVE SMOOTH",
"255 533 OFFCURVE",
"297 515 OFFCURVE",
"297 472 CURVE SMOOTH",
"297 433 OFFCURVE",
"263 405 OFFCURVE",
"222 382 CURVE SMOOTH",
"140 336 OFFCURVE",
"96 307 OFFCURVE",
"96 250 CURVE SMOOTH",
"96 206 OFFCURVE",
"123 172 OFFCURVE",
"170 172 CURVE SMOOTH"
);
}
);
width = 399;
}
);
note = question;
unicode = 003F;
},
{
color = 3;
glyphname = quotesingle;
lastChange = "2015-12-24 10:49:05 +0000";
layers = (
{
layerId = "59118767-2CA9-48AA-9373-694D24C960D8";
name = Regular;
paths = (
{
closed = 1;
nodes = (
"140 503 OFFCURVE",
"128 452 CURVE SMOOTH",
"122 427 OFFCURVE",
"112 414 OFFCURVE",
"92 414 CURVE SMOOTH",
"75 414 OFFCURVE",
"69 427 OFFCURVE",
"67 454 CURVE SMOOTH",
"63 487 OFFCURVE",
"60 541 OFFCURVE",
"60 585 CURVE SMOOTH",
"60 647 OFFCURVE",
"64 676 OFFCURVE",
"117 676 CURVE SMOOTH",
"146 676 OFFCURVE",
"158 659 OFFCURVE",
"158 631 CURVE SMOOTH",
"158 590 OFFCURVE"
);
}
);
width = 221;
}
);
leftKerningGroup = quoteright;
note = quotesingle;
rightKerningGroup = quoteright;
unicode = 0027;
},
{
color = 3;
glyphname = underscore;
lastChange = "2015-12-24 10:46:09 +0000";
layers = (
{
layerId = "59118767-2CA9-48AA-9373-694D24C960D8";
name = Regular;
paths = (
{
closed = 1;
nodes = (
"500 -210 LINE",
"500 -130 LINE",
"0 -130 LINE",
"0 -210 LINE"
);
}
);
width = 500;
}
);
note = underscore;
unicode = 005F;
},
{
color = 3;
glyphname = braceright;
lastChange = "2015-12-24 10:46:09 +0000";
layers = (
{
guideLines = (
{
angle = 87.1864;
position = "{202, 199}";
},
{
position = "{67, 809}";
},
{
position = "{66, -192}";
},
{
position = "{43, 309}";
}
);
layerId = "59118767-2CA9-48AA-9373-694D24C960D8";
name = Regular;
paths = (
{
closed = 1;
nodes = (
"253 462 OFFCURVE",
"294 595 OFFCURVE",
"294 670 CURVE SMOOTH",
"294 748 OFFCURVE",
"254 809 OFFCURVE",
"183 809 CURVE SMOOTH",
"131 809 OFFCURVE",
"82 774 OFFCURVE",
"82 740 CURVE SMOOTH",
"82 726 OFFCURVE",
"90 713 OFFCURVE",
"111 708 CURVE SMOOTH",
"173 695 OFFCURVE",
"200 666 OFFCURVE",
"200 617 CURVE SMOOTH",
"200 528 OFFCURVE",
"154 468 OFFCURVE",
"154 401 CURVE SMOOTH",
"154 319 OFFCURVE",
"228 291 OFFCURVE",
"252 295 CURVE",
"252 297 LINE",
"226 301 OFFCURVE",
"142 262 OFFCURVE",
"142 167 CURVE SMOOTH",
"142 115 OFFCURVE",
"169 71 OFFCURVE",
"169 6 CURVE SMOOTH",
"169 -61 OFFCURVE",
"144 -98 OFFCURVE",
"69 -114 CURVE SMOOTH",
"46 -119 OFFCURVE",
"36 -137 OFFCURVE",
"36 -151 CURVE SMOOTH",
"36 -184 OFFCURVE",
"81 -215 OFFCURVE",
"131 -215 CURVE SMOOTH",
"210 -215 OFFCURVE",
"258 -140 OFFCURVE",
"258 -48 CURVE SMOOTH",
"258 20 OFFCURVE",
"239 112 OFFCURVE",
"239 156 CURVE SMOOTH",
"239 213 OFFCURVE",
"276 244 OFFCURVE",
"312 256 CURVE SMOOTH",
"330 262 OFFCURVE",
"339 278 OFFCURVE",
"339 302 CURVE SMOOTH",
"339 321 OFFCURVE",
"333 331 OFFCURVE",
"315 337 CURVE SMOOTH",
"283 347 OFFCURVE",
"253 369 OFFCURVE",
"253 412 CURVE SMOOTH"
);
}
);
width = 420;
}
);
leftKerningGroup = parenright;
note = braceright;
rightKerningGroup = parenright;
unicode = 007D;
},
{
color = 3;
glyphname = bracketright;
lastChange = "2015-12-24 10:46:09 +0000";
layers = (
{
guideLines = (
{
angle = 87.1864;
position = "{137, 199}";
},
{
position = "{2, 809}";
},
{
position = "{1, -192}";
},
{
position = "{-22, 309}";
},
{
angle = 90;
position = "{224, 288}";
}
);
layerId = "59118767-2CA9-48AA-9373-694D24C960D8";
name = Regular;
paths = (
{
closed = 1;
nodes = (
"278 484 OFFCURVE",
"284 656 OFFCURVE",
"284 720 CURVE SMOOTH",
"284 767 OFFCURVE",
"282 806 OFFCURVE",
"233 809 CURVE SMOOTH",
"207 811 OFFCURVE",
"178 812 OFFCURVE",
"151 812 CURVE SMOOTH",
"112 812 OFFCURVE",
"78 810 OFFCURVE",
"66 805 CURVE SMOOTH",
"48 798 OFFCURVE",
"37 768 OFFCURVE",
"37 743 CURVE SMOOTH",
"37 712 OFFCURVE",
"58 708 OFFCURVE",
"99 702 CURVE SMOOTH",
"129 698 OFFCURVE",
"157 693 OFFCURVE",
"182 688 CURVE",
"188 645 OFFCURVE",
"191 568 OFFCURVE",
"191 485 CURVE SMOOTH",
"191 419 OFFCURVE",
"189 349 OFFCURVE",
"186 289 CURVE SMOOTH",
"179 147 OFFCURVE",
"165 -3 OFFCURVE",
"142 -94 CURVE",
"117 -98 OFFCURVE",
"89 -101 OFFCURVE",
"59 -103 CURVE SMOOTH",
"14 -106 OFFCURVE",
"-8 -111 OFFCURVE",
"-8 -150 CURVE SMOOTH",
"-8 -173 OFFCURVE",
"0 -199 OFFCURVE",
"13 -205 CURVE SMOOTH",
"35 -214 OFFCURVE",
"116 -215 OFFCURVE",
"181 -215 CURVE SMOOTH",
"225 -215 OFFCURVE",
"235 -180 OFFCURVE",
"240 -139 CURVE SMOOTH",
"243 -104 OFFCURVE",
"255 74 OFFCURVE",
"267 289 CURVE SMOOTH"
);
}
);
width = 419;
}
);
leftKerningGroup = parenright;
note = bracketright;
rightKerningGroup = parenright;
unicode = 005D;
},
{
color = 3;
glyphname = parenright;
lastChange = "2015-12-24 10:46:09 +0000";
layers = (
{
guideLines = (
{
angle = 87.1864;
position = "{186, 199}";
},
{
position = "{51, 809}";
},
{
position = "{50, -192}";
}
);
layerId = "59118767-2CA9-48AA-9373-694D24C960D8";
name = Regular;
paths = (
{
closed = 1;
nodes = (
"29 -195 OFFCURVE",
"59 -216 OFFCURVE",
"86 -216 CURVE SMOOTH",
"114 -216 OFFCURVE",
"135 -195 OFFCURVE",
"150 -175 CURVE SMOOTH",
"233 -60 OFFCURVE",
"297 141 OFFCURVE",
"297 363 CURVE SMOOTH",
"297 560 OFFCURVE",
"240 708 OFFCURVE",
"195 772 CURVE SMOOTH",
"175 801 OFFCURVE",
"155 809 OFFCURVE",
"137 809 CURVE SMOOTH",
"110 809 OFFCURVE",
"79 790 OFFCURVE",
"59 729 CURVE",
"131 661 OFFCURVE",
"215 518 OFFCURVE",
"215 325 CURVE SMOOTH",
"215 95 OFFCURVE",
"92 -75 OFFCURVE",
"16 -149 CURVE"
);
}
);
width = 417;
}
);
leftKerningGroup = parenright;
note = parenright;
rightKerningGroup = parenright;
unicode = 0029;
},
{
color = 3;
glyphname = emdash;
lastChange = "2015-12-24 10:46:09 +0000";
layers = (
{
layerId = "59118767-2CA9-48AA-9373-694D24C960D8";
name = Regular;
paths = (
{
closed = 1;
nodes = (
"792 268 OFFCURVE",
"101 266 OFFCURVE",
"61 260 CURVE SMOOTH",
"53 259 OFFCURVE",
"49 257 OFFCURVE",
"46 253 CURVE SMOOTH",
"34 237 OFFCURVE",
"30 218 OFFCURVE",
"30 195 CURVE SMOOTH",
"30 176 OFFCURVE",
"33 159 OFFCURVE",
"46 159 CURVE SMOOTH",
"56 159 OFFCURVE",
"109.8 168.2 OFFCURVE",
"149 172 CURVE SMOOTH",
"192.1 176.2 OFFCURVE",
"388.3 178.9 OFFCURVE",
"469.6 178.9 CURVE SMOOTH",
"624.6 178.9 OFFCURVE",
"930 173 OFFCURVE",
"939 173 CURVE SMOOTH",
"958 173 OFFCURVE",
"970 218 OFFCURVE",
"970 240 CURVE SMOOTH",
"970 255 OFFCURVE",
"965 268 OFFCURVE",
"950 268 CURVE SMOOTH"
);
}
);
width = 1000;
}
);
leftKerningGroup = hyphen;
note = emdash;
rightKerningGroup = hyphen;
unicode = 2014;
},
{
color = 3;
glyphname = endash;
lastChange = "2015-12-24 10:46:09 +0000";
layers = (
{
layerId = "59118767-2CA9-48AA-9373-694D24C960D8";
name = Regular;
paths = (
{
closed = 1;
nodes = (
"292 268 OFFCURVE",
"101 266 OFFCURVE",
"61 260 CURVE SMOOTH",
"53 259 OFFCURVE",
"49 257 OFFCURVE",
"46 253 CURVE SMOOTH",
"34 237 OFFCURVE",
"30 218 OFFCURVE",
"30 195 CURVE SMOOTH",
"30 176 OFFCURVE",
"33 159 OFFCURVE",
"46 159 CURVE SMOOTH",
"56 159 OFFCURVE",
"99.8 168.2 OFFCURVE",
"139 172 CURVE SMOOTH",
"182.1 176.2 OFFCURVE",
"227.3 178.9 OFFCURVE",
"298.6 178.9 CURVE SMOOTH",
"370.6 178.9 OFFCURVE",
"430 173 OFFCURVE",
"439 173 CURVE SMOOTH",
"458 173 OFFCURVE",
"470 218 OFFCURVE",
"470 240 CURVE SMOOTH",
"470 255 OFFCURVE",
"465 268 OFFCURVE",
"450 268 CURVE SMOOTH"
);
}
);
width = 500;
}
);
leftKerningGroup = hyphen;
note = endash;
rightKerningGroup = hyphen;
unicode = 2013;
},
{
color = 3;
glyphname = hyphen;
lastChange = "2015-12-24 10:46:09 +0000";
layers = (
{
layerId = "59118767-2CA9-48AA-9373-694D24C960D8";
name = Regular;
paths = (
{
closed = 1;
nodes = (
"223 274 OFFCURVE",
"101 271 OFFCURVE",
"61 265 CURVE SMOOTH",
"53 264 OFFCURVE",
"49 262 OFFCURVE",
"46 258 CURVE SMOOTH",
"34 242 OFFCURVE",
"30 213 OFFCURVE",
"30 190 CURVE SMOOTH",
"30 171 OFFCURVE",
"33 154 OFFCURVE",
"46 154 CURVE SMOOTH",
"56 154 OFFCURVE",
"74 161 OFFCURVE",
"113 167 CURVE SMOOTH",
"136 171 OFFCURVE",
"163 174.6 OFFCURVE",
"194 174 CURVE SMOOTH",
"242 173 OFFCURVE",
"273 168 OFFCURVE",
"282 168 CURVE SMOOTH",
"301 168 OFFCURVE",
"313 223 OFFCURVE",
"313 245 CURVE SMOOTH",
"313 260 OFFCURVE",
"308 273 OFFCURVE",
"293 273 CURVE SMOOTH"
);
}
);
width = 343;
}
);
leftKerningGroup = hyphen;
rightKerningGroup = hyphen;
unicode = 002D;
},
{
color = 3;
glyphname = guilsinglright;
lastChange = "2015-12-24 10:46:09 +0000";
layers = (
{
layerId = "59118767-2CA9-48AA-9373-694D24C960D8";
name = Regular;
paths = (
{
closed = 1;
nodes = (
"141 186 OFFCURVE",
"69 100 OFFCURVE",
"53 71 CURVE SMOOTH",
"47 61 OFFCURVE",
"45 53 OFFCURVE",
"45 46 CURVE SMOOTH",
"45 32 OFFCURVE",
"55 23 OFFCURVE",
"70 23 CURVE SMOOTH",
"80 23 OFFCURVE",
"92 27 OFFCURVE",
"104 35 CURVE SMOOTH",
"144 60 OFFCURVE",
"210 128 OFFCURVE",
"232 154 CURVE SMOOTH",
"250 174 OFFCURVE",
"257 194 OFFCURVE",
"257 212 CURVE SMOOTH",
"257 228 OFFCURVE",
"251 244 OFFCURVE",
"236 262 CURVE SMOOTH",
"217 288 OFFCURVE",
"156 356 OFFCURVE",
"118 381 CURVE SMOOTH",
"107 389 OFFCURVE",
"96 393 OFFCURVE",
"86 393 CURVE SMOOTH",
"71 393 OFFCURVE",
"59 383 OFFCURVE",
"59 367 CURVE SMOOTH",
"59 360 OFFCURVE",
"61 353 OFFCURVE",
"65 345 CURVE SMOOTH",
"78 316 OFFCURVE",
"143 230 OFFCURVE",
"174 181 CURVE",
"176 235 LINE"
);
}
);
width = 313;
}
);
leftKerningGroup = guillemotright;
note = guilsinglright;
rightKerningGroup = guillemotright;
unicode = 203A;
},
{
glyphname = cent;
lastChange = "2015-12-24 10:46:09 +0000";
layers = (
{
components = (
{
disableAlignment = 1;
name = _part.stemSimple;
transform = "{0.64, 0, 0, 0.66, 200, 64}";
piece = {
toFlatStem = 64.4614;
toThickStem = 58.7083;
};
}
);
layerId = "59118767-2CA9-48AA-9373-694D24C960D8";
name = Regular;
paths = (
{
closed = 1;
nodes = (
"164 445 OFFCURVE",
"63 326 OFFCURVE",
"63 187 CURVE SMOOTH",
"63 70 OFFCURVE",
"128 5 OFFCURVE",
"232 5 CURVE SMOOTH",
"292 5 OFFCURVE",
"354 27 OFFCURVE",
"389 60 CURVE SMOOTH",
"412 80 OFFCURVE",
"420 102 OFFCURVE",
"420 122 CURVE SMOOTH",
"420 143 OFFCURVE",
"411 150 OFFCURVE",
"399 150 CURVE SMOOTH",
"390 150 OFFCURVE",
"381 146 OFFCURVE",
"373 140 CURVE SMOOTH",
"351 125 OFFCURVE",
"308 104 OFFCURVE",
"263 104 CURVE SMOOTH",
"198 104 OFFCURVE",
"147 149 OFFCURVE",
"147 225 CURVE SMOOTH",
"147 288 OFFCURVE",
"187 348 OFFCURVE",
"265 348 CURVE SMOOTH",
"305 348 OFFCURVE",
"327 334 OFFCURVE",
"342 322 CURVE SMOOTH",
"350 315 OFFCURVE",
"360 309 OFFCURVE",
"370 309 CURVE SMOOTH",
"382 309 OFFCURVE",
"397 319 OFFCURVE",
"408 332 CURVE SMOOTH",
"421 345 OFFCURVE",
"433 363 OFFCURVE",
"433 381 CURVE SMOOTH",
"433 419 OFFCURVE",
"385 445 OFFCURVE",
"315 445 CURVE SMOOTH"
);
}
);
width = 475;
}
);
leftMetricsKey = zero;
unicode = 00A2;
},
{
glyphname = currency;
lastChange = "2015-12-24 10:46:09 +0000";
layers = (
{
layerId = "59118767-2CA9-48AA-9373-694D24C960D8";
name = Regular;
paths = (
{
closed = 1;
nodes = (
"341 49 OFFCURVE",
"422 136 OFFCURVE",
"422 249 CURVE SMOOTH",
"422 362 OFFCURVE",
"341 410 OFFCURVE",
"261 410 CURVE SMOOTH",
"154 410 OFFCURVE",
"74 324 OFFCURVE",
"74 211 CURVE SMOOTH",
"74 96 OFFCURVE",
"155 49 OFFCURVE",
"234 49 CURVE SMOOTH"
);
},
{
closed = 1;
nodes = (
"200 142 OFFCURVE",
"151 171 OFFCURVE",
"151 229 CURVE SMOOTH",
"152 283 OFFCURVE",
"194 318 OFFCURVE",
"246 318 CURVE SMOOTH",
"297 319 OFFCURVE",
"344 288 OFFCURVE",
"344 231 CURVE SMOOTH",
"344 176 OFFCURVE",
"301 143 OFFCURVE",
"249 142 CURVE SMOOTH"
);
},
{
closed = 1;
nodes = (
"183 332 LINE",
"163 367 OFFCURVE",
"140 402 OFFCURVE",
"115 427 CURVE SMOOTH",
"96 448 OFFCURVE",
"76 446 OFFCURVE",
"56 426 CURVE SMOOTH",
"33 402 OFFCURVE",
"35 383 OFFCURVE",
"56 362 CURVE SMOOTH",
"79 337 OFFCURVE",
"113 315 OFFCURVE",
"146 294 CURVE"
);
},
{
closed = 1;
nodes = (
"318 129 LINE",
"338 93 OFFCURVE",
"360 58 OFFCURVE",
"385 33 CURVE SMOOTH",
"404 13 OFFCURVE",
"425 15 OFFCURVE",
"444 35 CURVE SMOOTH",
"467 59 OFFCURVE",
"466 77 OFFCURVE",
"444 98 CURVE SMOOTH",
"421 123 OFFCURVE",
"388 145 OFFCURVE",
"354 166 CURVE"
);
},
{
closed = 1;
nodes = (
"350 297 LINE",
"386 317 OFFCURVE",
"421 339 OFFCURVE",
"446 364 CURVE SMOOTH",
"466 383 OFFCURVE",
"464 404 OFFCURVE",
"444 424 CURVE SMOOTH",
"420 446 OFFCURVE",
"402 445 OFFCURVE",
"381 424 CURVE SMOOTH",
"356 400 OFFCURVE",
"334 367 OFFCURVE",
"313 333 CURVE"
);
},
{
closed = 1;
nodes = (
"148 162 LINE",
"112 143 OFFCURVE",
"76 119 OFFCURVE",
"52 95 CURVE SMOOTH",
"31 75 OFFCURVE",
"33 55 OFFCURVE",
"53 35 CURVE SMOOTH",
"77 13 OFFCURVE",
"95 14 OFFCURVE",
"117 36 CURVE SMOOTH",
"142 59 OFFCURVE",
"164 92 OFFCURVE",
"185 126 CURVE"
);
}
);
width = 496;
}
);
unicode = 00A4;
},
{
glyphname = dollar;
lastChange = "2015-12-24 10:46:09 +0000";
layers = (
{
components = (
{
disableAlignment = 1;
name = _part.stemSimple;
transform = "{0.93, 0, 0, 0.93, 173, 96}";
piece = {
toFlatStem = 64.4614;
toThickStem = 6.49569;
};
}
);
layerId = "59118767-2CA9-48AA-9373-694D24C960D8";
name = Regular;
paths = (
{
closed = 1;
nodes = (
"371.855 8 OFFCURVE",
"472 118 OFFCURVE",
"471 235.983 CURVE SMOOTH",
"470 322 OFFCURVE",
"416 355 OFFCURVE",
"324 377 CURVE SMOOTH",
"239 397 OFFCURVE",
"153 417 OFFCURVE",
"152 473.962 CURVE SMOOTH",
"151 513 OFFCURVE",
"197.574 543 OFFCURVE",
"259 543 CURVE SMOOTH",
"295.309 543 OFFCURVE",
"334.237 532.827 OFFCURVE",
"357.545 517.677 CURVE",
"376.531 507.735 OFFCURVE",
"379.766 498 OFFCURVE",
"395 498 CURVE SMOOTH",
"421.957 498 OFFCURVE",
"474 530.404 OFFCURVE",
"474 571 CURVE SMOOTH",
"474 615.916 OFFCURVE",
"403.447 650 OFFCURVE",
"312 650 CURVE SMOOTH",
"154.178 650 OFFCURVE",
"62 537 OFFCURVE",
"63 436 CURVE SMOOTH",
"64 338 OFFCURVE",
"157 304 OFFCURVE",
"248 286 CURVE SMOOTH",
"342 267 OFFCURVE",
"390 252 OFFCURVE",
"390 202 CURVE SMOOTH",
"390 151 OFFCURVE",
"338 117 OFFCURVE",
"248 117 CURVE SMOOTH",
"192.908 117 OFFCURVE",
"135.662 137.699 OFFCURVE",
"98.34 170.498 CURVE",
"91.859 175.058 OFFCURVE",
"83.975 179 OFFCURVE",
"74 179 CURVE SMOOTH",
"51.776 179 OFFCURVE",
"35 156.519 OFFCURVE",
"35 123 CURVE SMOOTH",
"35 53.47 OFFCURVE",
"118.031 8 OFFCURVE",
"216 8 CURVE SMOOTH"
);
}
);
width = 524;
}
);
unicode = 0024;
},
{
glyphname = euro;
lastChange = "2015-12-24 10:46:09 +0000";
layers = (
{
layerId = "59118767-2CA9-48AA-9373-694D24C960D8";
name = Regular;
paths = (
{
closed = 1;
nodes = (
"253 674 OFFCURVE",
"114 477 OFFCURVE",
"114 267 CURVE SMOOTH",
"114 94 OFFCURVE",
"214 -14 OFFCURVE",
"365 -14 CURVE SMOOTH",
"501 -14 OFFCURVE",
"615 60 OFFCURVE",
"615 131 CURVE SMOOTH",
"615 151 OFFCURVE",
"607 161 OFFCURVE",
"592 161 CURVE SMOOTH",
"582 161 OFFCURVE",
"572 157 OFFCURVE",
"557 146 CURVE SMOOTH",
"531 126 OFFCURVE",
"472 98 OFFCURVE",
"402 98 CURVE SMOOTH",
"271 98 OFFCURVE",
"200 192 OFFCURVE",
"200 320 CURVE SMOOTH",
"200 442 OFFCURVE",
"278 562 OFFCURVE",
"434 562 CURVE SMOOTH",
"475 562 OFFCURVE",
"515 554 OFFCURVE",
"546 536 CURVE SMOOTH",
"553 532 OFFCURVE",
"557 531 OFFCURVE",
"563 531 CURVE SMOOTH",
"597 531 OFFCURVE",
"630 567 OFFCURVE",
"630 604 CURVE SMOOTH",
"630 657 OFFCURVE",
"567 674 OFFCURVE",
"486 674 CURVE SMOOTH"
);
},
{
closed = 1;
nodes = (
"438 446 OFFCURVE",
"325 440 OFFCURVE",
"225 440 CURVE SMOOTH",
"174 440 OFFCURVE",
"104 443 OFFCURVE",
"84 443 CURVE SMOOTH",
"64 443 OFFCURVE",
"42 426 OFFCURVE",
"42 393 CURVE SMOOTH",
"42 380 OFFCURVE",
"49 376 OFFCURVE",
"62 375 CURVE SMOOTH",
"90 373 OFFCURVE",
"154 376 OFFCURVE",
"300 376 CURVE SMOOTH",
"373 376 OFFCURVE",
"474 371 OFFCURVE",
"520 371 CURVE SMOOTH",
"540 371 OFFCURVE",
"562 387 OFFCURVE",
"562 419 CURVE SMOOTH",
"562 437 OFFCURVE",
"558 446 OFFCURVE",
"516 446 CURVE SMOOTH"
);
},
{
closed = 1;
nodes = (
"412 299 OFFCURVE",
"299 293 OFFCURVE",
"199 293 CURVE SMOOTH",
"148 293 OFFCURVE",
"78 296 OFFCURVE",
"58 296 CURVE SMOOTH",
"38 296 OFFCURVE",
"16 279 OFFCURVE",
"16 246 CURVE SMOOTH",
"16 233 OFFCURVE",
"23 229 OFFCURVE",
"36 228 CURVE SMOOTH",
"64 226 OFFCURVE",
"128 229 OFFCURVE",
"274 229 CURVE SMOOTH",
"347 229 OFFCURVE",
"448 224 OFFCURVE",
"494 224 CURVE SMOOTH",
"514 224 OFFCURVE",
"536 240 OFFCURVE",
"536 272 CURVE SMOOTH",
"536 290 OFFCURVE",
"532 299 OFFCURVE",
"490 299 CURVE SMOOTH"
);
}
);
width = 640;
}
);
unicode = 20AC;
},
{
glyphname = florin;
lastChange = "2015-12-24 10:46:09 +0000";
layers = (
{
anchors = (
{
name = top;
position = "{246, 412}";
}
);
guideLines = (
{
position = "{156, 670}";
}
);
layerId = "59118767-2CA9-48AA-9373-694D24C960D8";
name = Regular;
paths = (
{
closed = 1;
nodes = (
"279 670 OFFCURVE",
"208 500 OFFCURVE",
"208 350 CURVE",
"201 282 LINE",
"199 220 OFFCURVE",
"195 136 OFFCURVE",
"188 84 CURVE SMOOTH",
"173 -38 OFFCURVE",
"142 -84 OFFCURVE",
"89 -84 CURVE SMOOTH",
"54 -84 OFFCURVE",
"35 -65 OFFCURVE",
"14 -65 CURVE SMOOTH",
"-5 -65 OFFCURVE",
"-21 -81 OFFCURVE",
"-21 -113 CURVE SMOOTH",
"-21 -166 OFFCURVE",
"22 -203 OFFCURVE",
"76 -203 CURVE SMOOTH",
"125 -203 OFFCURVE",
"166 -172 OFFCURVE",
"201 -115 CURVE SMOOTH",
"266 -10 OFFCURVE",
"292 179 OFFCURVE",
"302 315 CURVE",
"292 521 OFFCURVE",
"331 554 OFFCURVE",
"398 554 CURVE SMOOTH",
"446 554 OFFCURVE",
"468 536 OFFCURVE",
"490 536 CURVE SMOOTH",
"514 536 OFFCURVE",
"523 560 OFFCURVE",
"523 583 CURVE SMOOTH",
"523 632 OFFCURVE",
"478 670 OFFCURVE",
"415 670 CURVE SMOOTH"
);
},
{
closed = 1;
nodes = (
"167 261 OFFCURVE",
"196 263 OFFCURVE",
"221 262 CURVE",
"228 359 LINE",
"193 355 OFFCURVE",
"159 350 OFFCURVE",
"138 343 CURVE SMOOTH",
"119 337 OFFCURVE",
"114 323 OFFCURVE",
"114 300 CURVE SMOOTH",
"113 273 OFFCURVE",
"123 256 OFFCURVE",
"135 258 CURVE SMOOTH"
);
},
{
closed = 1;
nodes = (
"399 251 OFFCURVE",
"415 302 OFFCURVE",
"414 330 CURVE SMOOTH",
"412 360 OFFCURVE",
"393 367 OFFCURVE",
"362 366 CURVE SMOOTH",
"337 364 OFFCURVE",
"295 361 OFFCURVE",
"263 356 CURVE",
"242 335 OFFCURVE",
"235 259 OFFCURVE",
"260 259 CURVE SMOOTH",
"333 262 OFFCURVE",
"363 250 OFFCURVE",
"378 251 CURVE SMOOTH"
);
}
);
width = 533;
}
);
unicode = 0192;
},
{
glyphname = liraTurkish;
lastChange = "2015-12-24 10:46:09 +0000";
layers = (
{
layerId = "59118767-2CA9-48AA-9373-694D24C960D8";
name = Regular;
paths = (
{
closed = 1;
nodes = (
"384 -10 OFFCURVE",
"516 133 OFFCURVE",
"516 297 CURVE SMOOTH",
"516 325 OFFCURVE",
"512 338 OFFCURVE",
"486 338 CURVE SMOOTH",
"464 338 OFFCURVE",
"447 329 OFFCURVE",
"437 291 CURVE SMOOTH",
"414 199 OFFCURVE",
"389 104 OFFCURVE",
"244 104 CURVE SMOOTH",
"193 104 OFFCURVE",
"174 116 OFFCURVE",
"174 166 CURVE SMOOTH",
"174 223 OFFCURVE",
"203 321 OFFCURVE",
"212 430 CURVE SMOOTH",
"222 559 OFFCURVE",
"222 670 OFFCURVE",
"158 670 CURVE SMOOTH",
"123 670 OFFCURVE",
"81 638 OFFCURVE",
"81 614 CURVE SMOOTH",
"81 597 OFFCURVE",
"104 561 OFFCURVE",
"112 513 CURVE SMOOTH",
"117 480 OFFCURVE",
"120 442 OFFCURVE",
"120 402 CURVE SMOOTH",
"120 358 OFFCURVE",
"117 310 OFFCURVE",
"112 264 CURVE",
"104 209 LINE",
"95 161 OFFCURVE",
"89 119 OFFCURVE",
"89 90 CURVE SMOOTH",
"89 32 OFFCURVE",
"118 -10 OFFCURVE",
"211 -10 CURVE SMOOTH"
);
},
{
closed = 1;
nodes = (
"272 363 OFFCURVE",
"203 324 OFFCURVE",
"141 293 CURVE SMOOTH",
"108 277 OFFCURVE",
"63 259 OFFCURVE",
"50 252 CURVE SMOOTH",
"41 248 OFFCURVE",
"33 235 OFFCURVE",
"33 218 CURVE SMOOTH",
"33 210 OFFCURVE",
"35 201 OFFCURVE",
"39 191 CURVE SMOOTH",
"43 184 OFFCURVE",
"49 182 OFFCURVE",
"55 182 CURVE SMOOTH",
"61 182 OFFCURVE",
"71 185 OFFCURVE",
"84 192 CURVE SMOOTH",
"107 203 OFFCURVE",
"143 223 OFFCURVE",
"197 249 CURVE SMOOTH",
"262 281 OFFCURVE",
"328 307 OFFCURVE",
"357 321 CURVE SMOOTH",
"366 326 OFFCURVE",
"374 338 OFFCURVE",
"374 355 CURVE SMOOTH",
"374 363 OFFCURVE",
"373 372 OFFCURVE",
"368 381 CURVE SMOOTH",
"363 390 OFFCURVE",
"357 395 OFFCURVE",
"347 395 CURVE SMOOTH",
"341 395 OFFCURVE",
"332 393 OFFCURVE",
"321 388 CURVE SMOOTH"
);
},
{
closed = 1;
nodes = (
"272 511 OFFCURVE",
"203 472 OFFCURVE",
"141 441 CURVE SMOOTH",
"108 425 OFFCURVE",
"63 407 OFFCURVE",
"50 400 CURVE SMOOTH",
"41 396 OFFCURVE",
"33 383 OFFCURVE",
"33 366 CURVE SMOOTH",
"33 358 OFFCURVE",
"35 349 OFFCURVE",
"39 339 CURVE SMOOTH",
"43 332 OFFCURVE",
"49 330 OFFCURVE",
"55 330 CURVE SMOOTH",
"61 330 OFFCURVE",
"71 333 OFFCURVE",
"84 340 CURVE SMOOTH",
"107 351 OFFCURVE",
"143 371 OFFCURVE",
"197 397 CURVE SMOOTH",
"262 429 OFFCURVE",
"328 455 OFFCURVE",
"357 469 CURVE SMOOTH",
"366 474 OFFCURVE",
"374 486 OFFCURVE",
"374 503 CURVE SMOOTH",
"374 511 OFFCURVE",
"373 520 OFFCURVE",
"368 529 CURVE SMOOTH",
"363 538 OFFCURVE",
"357 543 OFFCURVE",
"347 543 CURVE SMOOTH",
"341 543 OFFCURVE",
"332 541 OFFCURVE",
"321 536 CURVE SMOOTH"
);
}
);
width = 531;
}
);
unicode = 20BA;
},
{
glyphname = ruble;
lastChange = "2015-12-24 10:46:09 +0000";
layers = (
{
layerId = "59118767-2CA9-48AA-9373-694D24C960D8";
name = Regular;
paths = (
{
closed = 1;
nodes = (
"313 211 OFFCURVE",
"234 205 OFFCURVE",
"164 205 CURVE SMOOTH",
"128 205 OFFCURVE",
"79 208 OFFCURVE",
"65 208 CURVE SMOOTH",
"51 208 OFFCURVE",
"29 191 OFFCURVE",
"29 158 CURVE SMOOTH",
"29 145 OFFCURVE",
"41 141 OFFCURVE",
"50 140 CURVE SMOOTH",
"56 139 OFFCURVE",
"62 139 OFFCURVE",
"70 139 CURVE SMOOTH",
"95 139 OFFCURVE",
"135 141 OFFCURVE",
"195 141 CURVE SMOOTH",
"268 141 OFFCURVE",
"339 136 OFFCURVE",
"371 136 CURVE SMOOTH",
"386 136 OFFCURVE",
"407 152 OFFCURVE",
"407 184 CURVE SMOOTH",
"407 202 OFFCURVE",
"399 211 OFFCURVE",
"368 211 CURVE SMOOTH"
);
},
{
closed = 1;
nodes = (
"166 252 OFFCURVE",
"199 252 CURVE SMOOTH",
"379 252 OFFCURVE",
"520 325 OFFCURVE",
"520 492 CURVE SMOOTH",
"520 607 OFFCURVE",
"437 674 OFFCURVE",
"310 674 CURVE SMOOTH",
"242 674 OFFCURVE",
"177 654 OFFCURVE",
"128 628 CURVE SMOOTH",
"78 602 OFFCURVE",
"63 576 OFFCURVE",
"63 534 CURVE SMOOTH",
"63 513 OFFCURVE",
"67 500 OFFCURVE",
"81 500 CURVE SMOOTH",
"92 500 OFFCURVE",
"112 512 OFFCURVE",
"126 516 CURVE",
"183 538 OFFCURVE",
"242 557 OFFCURVE",
"299 557 CURVE SMOOTH",
"371 557 OFFCURVE",
"426 531 OFFCURVE",
"426 465 CURVE SMOOTH",
"426 356 OFFCURVE",
"307 333 OFFCURVE",
"185 333 CURVE SMOOTH",
"162 333 OFFCURVE",
"112 336 OFFCURVE",
"88 339 CURVE SMOOTH",
"67 342 OFFCURVE",
"46 314 OFFCURVE",
"46 287 CURVE SMOOTH",
"46 271 OFFCURVE",
"54 264 OFFCURVE",
"63 262 CURVE SMOOTH",
"87 257 OFFCURVE"
);
},
{
closed = 1;
nodes = (
"211 584 OFFCURVE",
"193 591 OFFCURVE",
"171 591 CURVE SMOOTH",
"136 591 OFFCURVE",
"91 574 OFFCURVE",
"99 550 CURVE SMOOTH",
"110 515 OFFCURVE",
"113 461 OFFCURVE",
"113 418 CURVE SMOOTH",
"113 274 OFFCURVE",
"79 131 OFFCURVE",
"79 61 CURVE SMOOTH",
"79 -4 OFFCURVE",
"109 -10 OFFCURVE",
"135 -10 CURVE SMOOTH",
"190 -10 OFFCURVE",
"228 19 OFFCURVE",
"228 50 CURVE SMOOTH",
"228 61 OFFCURVE",
"223 72 OFFCURVE",
"214 81 CURVE SMOOTH",
"186 107 OFFCURVE",
"179 144 OFFCURVE",
"179 193 CURVE SMOOTH",
"179 301 OFFCURVE",
"211 473 OFFCURVE",
"211 570 CURVE SMOOTH"
);
}
);
width = 538;
}
);
unicode = 20BD;
},
{
glyphname = sterling;
lastChange = "2015-12-24 10:46:09 +0000";
layers = (
{
layerId = "59118767-2CA9-48AA-9373-694D24C960D8";
name = Regular;
paths = (
{
closed = 1;
nodes = (
"432 105 OFFCURVE",
"385 102 OFFCURVE",
"350 102 CURVE SMOOTH",
"268 102 OFFCURVE",
"227 126 OFFCURVE",
"170 155 CURVE",
"194 124 LINE",
"218 181 OFFCURVE",
"243 244 OFFCURVE",
"243 300 CURVE SMOOTH",
"243 339 OFFCURVE",
"231 375 OFFCURVE",
"208 428 CURVE SMOOTH",
"198 449 OFFCURVE",
"191 471 OFFCURVE",
"191 491 CURVE SMOOTH",
"191 538 OFFCURVE",
"229 569 OFFCURVE",
"281 569 CURVE SMOOTH",
"330 569 OFFCURVE",
"363 541 OFFCURVE",
"387 520 CURVE SMOOTH",
"404 506 OFFCURVE",
"412 500 OFFCURVE",
"422 500 CURVE SMOOTH",
"439 500 OFFCURVE",
"469 520 OFFCURVE",
"469 560 CURVE SMOOTH",
"469 626 OFFCURVE",
"394 670 OFFCURVE",
"317 670 CURVE SMOOTH",
"201 670 OFFCURVE",
"104 572 OFFCURVE",
"104 450 CURVE SMOOTH",
"104 414 OFFCURVE",
"113 379 OFFCURVE",
"129 338 CURVE SMOOTH",
"138 315 OFFCURVE",
"146 292 OFFCURVE",
"146 260 CURVE SMOOTH",
"146 209 OFFCURVE",
"126 163 OFFCURVE",
"114 136 CURVE",
"134 158 LINE",
"79 155 OFFCURVE",
"36 120 OFFCURVE",
"36 56 CURVE SMOOTH",
"36 15 OFFCURVE",
"58 -8 OFFCURVE",
"88 -8 CURVE SMOOTH",
"130 -8 OFFCURVE",
"161 41 OFFCURVE",
"181 86 CURVE",
"126 68 LINE",
"197 32 OFFCURVE",
"297 -7 OFFCURVE",
"382 -7 CURVE SMOOTH",
"477 -7 OFFCURVE",
"511 48 OFFCURVE",
"511 95 CURVE SMOOTH",
"511 116 OFFCURVE",
"501 147 OFFCURVE",
"486 147 CURVE SMOOTH",
"480 147 OFFCURVE",
"474 143 OFFCURVE",
"468 138 CURVE SMOOTH"
);
},
{
closed = 1;
nodes = (
"331 374 OFFCURVE",
"252 368 OFFCURVE",
"182 368 CURVE SMOOTH",
"146 368 OFFCURVE",
"97 371 OFFCURVE",
"83 371 CURVE SMOOTH",
"69 371 OFFCURVE",
"47 354 OFFCURVE",
"47 321 CURVE SMOOTH",
"47 304 OFFCURVE",
"64 302 OFFCURVE",
"88 302 CURVE SMOOTH",
"113 302 OFFCURVE",
"153 304 OFFCURVE",
"213 304 CURVE SMOOTH",
"286 304 OFFCURVE",
"357 299 OFFCURVE",
"389 299 CURVE SMOOTH",
"404 299 OFFCURVE",
"425 315 OFFCURVE",
"425 347 CURVE SMOOTH",
"425 365 OFFCURVE",
"417 374 OFFCURVE",
"386 374 CURVE SMOOTH"
);
}
);
width = 529;
}
);
unicode = 00A3;
},
{
glyphname = yen;
lastChange = "2015-12-24 10:46:09 +0000";
layers = (
{
components = (
{
name = Y;
transform = "{1, 0, 0, 1, 6, 0}";
}
);
layerId = "59118767-2CA9-48AA-9373-694D24C960D8";
name = Regular;
paths = (
{
closed = 1;
nodes = (
"441 376 OFFCURVE",
"390 374 OFFCURVE",
"340 372 CURVE",
"309 331 OFFCURVE",
"268 330 OFFCURVE",
"243 370 CURVE",
"182 370 OFFCURVE",
"122 373 OFFCURVE",
"104 373 CURVE SMOOTH",
"87 373 OFFCURVE",
"68 356 OFFCURVE",
"68 323 CURVE SMOOTH",
"68 310 OFFCURVE",
"74 306 OFFCURVE",
"85 305 CURVE SMOOTH",
"110 303 OFFCURVE",
"165 306 OFFCURVE",
"291 306 CURVE SMOOTH",
"354 306 OFFCURVE",
"442 301 OFFCURVE",
"482 301 CURVE SMOOTH",
"499 301 OFFCURVE",
"518 317 OFFCURVE",
"518 349 CURVE SMOOTH",
"518 367 OFFCURVE",
"515 376 OFFCURVE",
"478 376 CURVE SMOOTH"
);
},
{
closed = 1;
nodes = (
"403 229 OFFCURVE",
"305 223 OFFCURVE",
"218 223 CURVE SMOOTH",
"174 223 OFFCURVE",
"114 226 OFFCURVE",
"96 226 CURVE SMOOTH",
"79 226 OFFCURVE",
"60 209 OFFCURVE",
"60 176 CURVE SMOOTH",
"60 163 OFFCURVE",
"66 159 OFFCURVE",
"77 158 CURVE SMOOTH",
"102 156 OFFCURVE",
"157 159 OFFCURVE",
"283 159 CURVE SMOOTH",
"346 159 OFFCURVE",
"434 154 OFFCURVE",
"474 154 CURVE SMOOTH",
"491 154 OFFCURVE",
"510 170 OFFCURVE",
"510 202 CURVE SMOOTH",
"510 220 OFFCURVE",
"507 229 OFFCURVE",
"470 229 CURVE SMOOTH"
);
}
);
width = 589;
}
);
unicode = 00A5;
},
{
glyphname = Ohm;
lastChange = "2015-12-24 10:46:09 +0000";
layers = (
{
guideLines = (
{
angle = 90;
position = "{687, 172}";
}
);
layerId = "59118767-2CA9-48AA-9373-694D24C960D8";
name = Regular;
paths = (
{
closed = 1;
nodes = (
"692 129 OFFCURVE",
"687 123 OFFCURVE",
"674 117 CURVE SMOOTH",
"632 99 OFFCURVE",
"570 89 OFFCURVE",
"520 93 CURVE",
"531 75 LINE",
"607 131 OFFCURVE",
"687 261 OFFCURVE",
"688 383 CURVE SMOOTH",
"690 547 OFFCURVE",
"576 684 OFFCURVE",
"399 684 CURVE SMOOTH",
"211 684 OFFCURVE",
"73 535 OFFCURVE",
"71 363 CURVE SMOOTH",
"70 238 OFFCURVE",
"146 136 OFFCURVE",
"241 58 CURVE",
"240 92 LINE",
"190 92 OFFCURVE",
"126 99 OFFCURVE",
"83 117 CURVE SMOOTH",
"70 123 OFFCURVE",
"65 129 OFFCURVE",
"59 129 CURVE SMOOTH",
"44 128 OFFCURVE",
"30 100 OFFCURVE",
"30 64 CURVE SMOOTH",
"30 0 OFFCURVE",
"117 -11 OFFCURVE",
"206 -10 CURVE SMOOTH",
"251 -10 OFFCURVE",
"296 -6 OFFCURVE",
"312 15 CURVE SMOOTH",
"319 24 OFFCURVE",
"324 41 OFFCURVE",
"325 56 CURVE SMOOTH",
"325 70 OFFCURVE",
"319 81 OFFCURVE",
"303 95 CURVE SMOOTH",
"227 157 OFFCURVE",
"165 239 OFFCURVE",
"165 343 CURVE SMOOTH",
"167 467 OFFCURVE",
"255 569 OFFCURVE",
"386 569 CURVE SMOOTH",
"515 569 OFFCURVE",
"596 472 OFFCURVE",
"595 350 CURVE SMOOTH",
"595 251 OFFCURVE",
"534 156 OFFCURVE",
"457 95 CURVE SMOOTH",
"441 81 OFFCURVE",
"435 70 OFFCURVE",
"434 56 CURVE SMOOTH",
"434 41 OFFCURVE",
"439 24 OFFCURVE",
"446 15 CURVE SMOOTH",
"462 -6 OFFCURVE",
"507 -10 OFFCURVE",
"552 -10 CURVE SMOOTH",
"641 -11 OFFCURVE",
"725 0 OFFCURVE",
"727 64 CURVE SMOOTH",
"727 100 OFFCURVE",
"713 128 OFFCURVE",
"698 129 CURVE SMOOTH"
);
}
);
width = 754;
}
);
unicode = 2126;
},
{
glyphname = approxequal;
lastChange = "2015-12-24 10:46:09 +0000";
layers = (
{
layerId = "59118767-2CA9-48AA-9373-694D24C960D8";
name = Regular;
paths = (
{
closed = 1;
nodes = (
"422 408 OFFCURVE",
"416 404 OFFCURVE",
"410 395 CURVE SMOOTH",
"398 378 OFFCURVE",
"377 362 OFFCURVE",
"349 362 CURVE SMOOTH",
"300 362 OFFCURVE",
"247 406 OFFCURVE",
"185 406 CURVE SMOOTH",
"120 406 OFFCURVE",
"64 356 OFFCURVE",
"64 308 CURVE SMOOTH",
"64 284 OFFCURVE",
"80 277 OFFCURVE",
"91 277 CURVE SMOOTH",
"118 277 OFFCURVE",
"128 315 OFFCURVE",
"174 315 CURVE SMOOTH",
"224 315 OFFCURVE",
"276 269 OFFCURVE",
"338 269 CURVE SMOOTH",
"403 269 OFFCURVE",
"462 320 OFFCURVE",
"462 371 CURVE SMOOTH",
"462 395 OFFCURVE",
"446 408 OFFCURVE",
"431 408 CURVE SMOOTH"
);
},
{
closed = 1;
nodes = (
"98 115 OFFCURVE",
"104 119 OFFCURVE",
"110 128 CURVE SMOOTH",
"122 145 OFFCURVE",
"143 161 OFFCURVE",
"171 161 CURVE SMOOTH",
"220 161 OFFCURVE",
"273 116 OFFCURVE",
"335 116 CURVE SMOOTH",
"400 116 OFFCURVE",
"456 167 OFFCURVE",
"456 215 CURVE SMOOTH",
"456 239 OFFCURVE",
"440 246 OFFCURVE",
"429 246 CURVE SMOOTH",
"402 246 OFFCURVE",
"392 208 OFFCURVE",
"346 208 CURVE SMOOTH",
"296 208 OFFCURVE",
"244 254 OFFCURVE",
"182 254 CURVE SMOOTH",
"117 254 OFFCURVE",
"58 203 OFFCURVE",
"58 152 CURVE SMOOTH",
"58 128 OFFCURVE",
"74 115 OFFCURVE",
"89 115 CURVE SMOOTH"
);
}
);
width = 520;
}
);
widthMetricsKey = equal;
unicode = 2248;
},
{
glyphname = asciitilde;
lastChange = "2015-12-24 10:46:09 +0000";
layers = (
{
layerId = "59118767-2CA9-48AA-9373-694D24C960D8";
name = Regular;
paths = (
{
closed = 1;
nodes = (
"416 337 OFFCURVE",
"410 333 OFFCURVE",
"404 324 CURVE SMOOTH",
"392 307 OFFCURVE",
"371 291 OFFCURVE",
"343 291 CURVE SMOOTH",
"294 291 OFFCURVE",
"241 335 OFFCURVE",
"179 335 CURVE SMOOTH",
"114 335 OFFCURVE",
"58 285 OFFCURVE",
"58 237 CURVE SMOOTH",
"58 213 OFFCURVE",
"74 206 OFFCURVE",
"85 206 CURVE SMOOTH",
"112 206 OFFCURVE",
"122 244 OFFCURVE",
"168 244 CURVE SMOOTH",
"218 244 OFFCURVE",
"270 198 OFFCURVE",
"332 198 CURVE SMOOTH",
"397 198 OFFCURVE",
"456 249 OFFCURVE",
"456 300 CURVE SMOOTH",
"456 324 OFFCURVE",
"440 337 OFFCURVE",
"425 337 CURVE SMOOTH"
);
}
);
width = 514;
}
);
unicode = 007E;
},
{
glyphname = divide;
lastChange = "2015-12-24 10:46:09 +0000";
layers = (
{
components = (
{
name = _part.dot;
transform = "{1, 0, 0, 1, 162, 366}";
},
{
name = _part.dot;
transform = "{1, 0, 0, 1, 152, 49}";
}
);
layerId = "59118767-2CA9-48AA-9373-694D24C960D8";
name = Regular;
paths = (
{
closed = 1;
nodes = (
"66 305 OFFCURVE",
"57 262 OFFCURVE",
"57 242 CURVE SMOOTH",
"57 224 OFFCURVE",
"64 216 OFFCURVE",
"84 216 CURVE SMOOTH",
"161 216 OFFCURVE",
"239 218 OFFCURVE",
"322 218 CURVE SMOOTH",
"392 218 OFFCURVE",
"423 216 OFFCURVE",
"430 216 CURVE SMOOTH",
"453 216 OFFCURVE",
"463 262 OFFCURVE",
"463 281 CURVE SMOOTH",
"463 298 OFFCURVE",
"457 306 OFFCURVE",
"436 306 CURVE SMOOTH",
"352 306 OFFCURVE",
"266 302 OFFCURVE",
"195 302 CURVE SMOOTH",
"131 302 OFFCURVE",
"100 305 OFFCURVE",
"91 305 CURVE SMOOTH"
);
}
);
width = 520;
}
);
widthMetricsKey = equal;
unicode = 00F7;
},
{
glyphname = equal;
lastChange = "2015-12-24 10:46:09 +0000";
layers = (
{
layerId = "59118767-2CA9-48AA-9373-694D24C960D8";
name = Regular;
paths = (
{
closed = 1;
nodes = (
"72 341 OFFCURVE",
"72 321 CURVE SMOOTH",
"72 303 OFFCURVE",
"79 295 OFFCURVE",
"98 295 CURVE SMOOTH",
"173 295 OFFCURVE",
"254 297 OFFCURVE",
"335 297 CURVE SMOOTH",
"389 297 OFFCURVE",
"419 295 OFFCURVE",
"426 295 CURVE SMOOTH",
"448 295 OFFCURVE",
"458 341 OFFCURVE",
"458 360 CURVE SMOOTH",
"458 377 OFFCURVE",
"452 385 OFFCURVE",
"432 385 CURVE SMOOTH",
"350 385 OFFCURVE",
"261 381 OFFCURVE",
"192 381 CURVE SMOOTH",
"144 381 OFFCURVE",
"114 384 OFFCURVE",
"105 384 CURVE SMOOTH",
"81 384 OFFCURVE"
);
},
{
closed = 1;
nodes = (
"62 183 OFFCURVE",
"62 163 CURVE SMOOTH",
"62 145 OFFCURVE",
"69 137 OFFCURVE",
"88 137 CURVE SMOOTH",
"163 137 OFFCURVE",
"244 139 OFFCURVE",
"325 139 CURVE SMOOTH",
"379 139 OFFCURVE",
"409 137 OFFCURVE",
"416 137 CURVE SMOOTH",
"438 137 OFFCURVE",
"448 183 OFFCURVE",
"448 202 CURVE SMOOTH",
"448 219 OFFCURVE",
"442 227 OFFCURVE",
"422 227 CURVE SMOOTH",
"340 227 OFFCURVE",
"251 223 OFFCURVE",
"182 223 CURVE SMOOTH",
"134 223 OFFCURVE",
"104 226 OFFCURVE",
"95 226 CURVE SMOOTH",
"71 226 OFFCURVE"
);
}
);
width = 520;
}
);
widthMetricsKey = equal;
unicode = 003D;
},
{
glyphname = greater;
lastChange = "2015-12-24 10:46:09 +0000";
layers = (
{
layerId = "59118767-2CA9-48AA-9373-694D24C960D8";
name = Regular;
paths = (
{
closed = 1;
nodes = (
"381 338 OFFCURVE",
"209 419 OFFCURVE",
"144 448 CURVE SMOOTH",
"132 453 OFFCURVE",
"122 456 OFFCURVE",
"113 456 CURVE SMOOTH",
"84 456 OFFCURVE",
"66 418 OFFCURVE",
"65 388 CURVE SMOOTH",
"64 367 OFFCURVE",
"75 355 OFFCURVE",
"94 347 CURVE SMOOTH",
"153 322 OFFCURVE",
"268 287 OFFCURVE",
"380 239 CURVE",
"369 261 LINE",
"298 232 OFFCURVE",
"163 191 OFFCURVE",
"106 167 CURVE SMOOTH",
"77 156 OFFCURVE",
"58 134 OFFCURVE",
"57 91 CURVE SMOOTH",
"57 70 OFFCURVE",
"64 55 OFFCURVE",
"85 55 CURVE SMOOTH",
"92 55 OFFCURVE",
"101 57 OFFCURVE",
"112 61 CURVE SMOOTH",
"179 86 OFFCURVE",
"375 172 OFFCURVE",
"419 201 CURVE SMOOTH",
"445 218 OFFCURVE",
"456 235 OFFCURVE",
"457 255 CURVE SMOOTH",
"458 275 OFFCURVE",
"447 292 OFFCURVE",
"423 309 CURVE SMOOTH"
);
}
);
width = 520;
}
);
widthMetricsKey = equal;
unicode = 003E;
},
{
glyphname = greaterequal;
lastChange = "2015-12-24 10:46:09 +0000";
layers = (
{
layerId = "59118767-2CA9-48AA-9373-694D24C960D8";
name = Regular;
paths = (
{
closed = 1;
nodes = (
"62 89 OFFCURVE",
"53 46 OFFCURVE",
"53 26 CURVE SMOOTH",
"53 8 OFFCURVE",
"60 0 OFFCURVE",
"80 0 CURVE SMOOTH",
"157 0 OFFCURVE",
"235 2 OFFCURVE",
"318 2 CURVE SMOOTH",
"388 2 OFFCURVE",
"419 0 OFFCURVE",
"426 0 CURVE SMOOTH",
"449 0 OFFCURVE",
"459 46 OFFCURVE",
"459 65 CURVE SMOOTH",
"459 82 OFFCURVE",
"453 90 OFFCURVE",
"432 90 CURVE SMOOTH",
"348 90 OFFCURVE",
"262 86 OFFCURVE",
"191 86 CURVE SMOOTH",
"127 86 OFFCURVE",
"96 89 OFFCURVE",
"87 89 CURVE SMOOTH"
);
},
{
closed = 1;
nodes = (
"389 404 OFFCURVE",
"217 475 OFFCURVE",
"152 504 CURVE SMOOTH",
"140 509 OFFCURVE",
"130 512 OFFCURVE",
"121 512 CURVE SMOOTH",
"92 512 OFFCURVE",
"74 474 OFFCURVE",
"73 444 CURVE SMOOTH",
"72 423 OFFCURVE",
"83 411 OFFCURVE",
"102 403 CURVE SMOOTH",
"161 378 OFFCURVE",
"276 348 OFFCURVE",
"388 305 CURVE",
"377 327 LINE",
"306 303 OFFCURVE",
"171 267 OFFCURVE",
"114 243 CURVE SMOOTH",
"85 232 OFFCURVE",
"66 210 OFFCURVE",
"65 167 CURVE SMOOTH",
"65 146 OFFCURVE",
"72 131 OFFCURVE",
"93 131 CURVE SMOOTH",
"100 131 OFFCURVE",
"109 133 OFFCURVE",
"120 137 CURVE SMOOTH",
"187 162 OFFCURVE",
"383 238 OFFCURVE",
"427 267 CURVE SMOOTH",
"453 284 OFFCURVE",
"464 301 OFFCURVE",
"465 321 CURVE SMOOTH",
"466 341 OFFCURVE",
"455 358 OFFCURVE",
"431 375 CURVE SMOOTH"
);
}
);
width = 520;
}
);
widthMetricsKey = equal;
unicode = 2265;
},
{
glyphname = increment;
lastChange = "2015-12-24 10:46:09 +0000";
layers = (
{
layerId = "59118767-2CA9-48AA-9373-694D24C960D8";
name = Regular;
paths = (
{
closed = 1;
nodes = (
"555 142 OFFCURVE",
"538 192 CURVE SMOOTH",
"521 241 OFFCURVE",
"478 399 OFFCURVE",
"465 503 CURVE SMOOTH",
"461 530 OFFCURVE",
"459 559 OFFCURVE",
"458 577 CURVE SMOOTH",
"454 631 OFFCURVE",
"432 677 OFFCURVE",
"382 677 CURVE SMOOTH",
"274 677 OFFCURVE",
"178 491 OFFCURVE",
"102 298 CURVE SMOOTH",
"77 236 OFFCURVE",
"35 120 OFFCURVE",
"35 75 CURVE SMOOTH",
"35 41 OFFCURVE",
"48 27 OFFCURVE",
"66 16 CURVE SMOOTH",
"101 -6 OFFCURVE",
"199 -10 OFFCURVE",
"266 -10 CURVE SMOOTH",
"356 -10 OFFCURVE",
"446 -2 OFFCURVE",
"516 22 CURVE SMOOTH",
"554 36 OFFCURVE",
"578 57 OFFCURVE",
"578 96 CURVE SMOOTH",
"578 117 OFFCURVE"
);
},
{
closed = 1;
nodes = (
"335 103 OFFCURVE",
"291 103 CURVE SMOOTH",
"252 103 OFFCURVE",
"214 106 OFFCURVE",
"182 112 CURVE SMOOTH",
"158 116 OFFCURVE",
"151 129 OFFCURVE",
"151 149 CURVE SMOOTH",
"151 195 OFFCURVE",
"174 274 OFFCURVE",
"205 350 CURVE SMOOTH",
"246 452 OFFCURVE",
"299 549 OFFCURVE",
"353 549 CURVE SMOOTH",
"372 549 OFFCURVE",
"384 537 OFFCURVE",
"386 506 CURVE SMOOTH",
"396 375 OFFCURVE",
"409 281 OFFCURVE",
"430 189 CURVE SMOOTH",
"437 157 OFFCURVE",
"442 145 OFFCURVE",
"442 137 CURVE SMOOTH",
"442 124 OFFCURVE",
"435 116 OFFCURVE",
"419 113 CURVE SMOOTH",
"381 107 OFFCURVE"
);
}
);
width = 620;
}
);
unicode = 2206;
},
{
glyphname = infinity;
lastChange = "2015-12-24 10:46:09 +0000";
layers = (
{
layerId = "59118767-2CA9-48AA-9373-694D24C960D8";
name = Regular;
paths = (
{
closed = 1;
nodes = (
"473 444 OFFCURVE",
"420 395 OFFCURVE",
"376 332 CURVE",
"327 413 OFFCURVE",
"273 445 OFFCURVE",
"215 445 CURVE SMOOTH",
"120 445 OFFCURVE",
"50 356 OFFCURVE",
"50 245 CURVE SMOOTH",
"50 146 OFFCURVE",
"101 90 OFFCURVE",
"178 90 CURVE SMOOTH",
"248 90 OFFCURVE",
"304 138 OFFCURVE",
"350 197 CURVE",
"396 120 OFFCURVE",
"442 91 OFFCURVE",
"504 91 CURVE SMOOTH",
"610 91 OFFCURVE",
"672 177 OFFCURVE",
"672 288 CURVE SMOOTH",
"672 389 OFFCURVE",
"618 444 OFFCURVE",
"543 444 CURVE SMOOTH"
);
},
{
closed = 1;
nodes = (
"159 195 OFFCURVE",
"120 225 OFFCURVE",
"119 272 CURVE SMOOTH",
"118 311 OFFCURVE",
"145 342 OFFCURVE",
"192 343 CURVE SMOOTH",
"245 343 OFFCURVE",
"286 310 OFFCURVE",
"316 261 CURVE",
"292 222 OFFCURVE",
"252 197 OFFCURVE",
"208 196 CURVE SMOOTH"
);
},
{
closed = 1;
nodes = (
"567 338 OFFCURVE",
"605 306 OFFCURVE",
"604 260 CURVE SMOOTH",
"604 222 OFFCURVE",
"577 192 OFFCURVE",
"530 193 CURVE SMOOTH",
"478 194 OFFCURVE",
"437 229 OFFCURVE",
"410 278 CURVE",
"435 315 OFFCURVE",
"475 340 OFFCURVE",
"518 339 CURVE SMOOTH"
);
}
);
width = 722;
}
);
unicode = 221E;
},
